<svg width="25" height="52" viewBox="0 0 25 52" fill="none" xmlns="http://www.w3.org/2000/svg">
<g clip-path="url(#clip0_37_2609)">
<path d="M36.6398 16.6904L31.0092 2.99469C29.0493 2.49846 26.9971 2.23389 24.883 2.23389C11.1405 2.23389 0 13.3744 0 27.1169C0 27.4138 0.00710938 27.7089 0.0173672 28.0032L17.8468 34.1617L23.9967 51.9826C24.291 51.9929 24.5861 51.9999 24.883 51.9999C38.2534 51.9999 49.1592 41.4542 49.7401 28.227L36.6398 16.6904Z" fill="#02C0FC"/>
<path d="M32.6943 0.556588C31.9522 -0.185529 30.7489 -0.185529 30.0067 0.556588L16.7304 13.8329L18.8454 22.6678C28.1214 22.6678 38.5362 6.39836 38.5362 6.39836L32.6943 0.556588Z" fill="#BBF0F9"/>
<path d="M51.4434 19.3055L38.5361 6.39817C37.1928 6.22999 35.1623 6.44794 33.1488 8.46142C29.6957 11.9145 29.0863 13.0955 29.0863 13.0955C29.0863 13.0955 26.0225 13.0656 26.4626 16.011C26.7085 17.6566 24.3019 18.9565 22.1299 19.7834L17.8468 20.9438C17.8468 20.9438 18.8774 30.5989 25.2598 33.8336C31.6422 37.0682 38.167 35.2694 38.167 35.2694L51.4434 21.9931C52.1856 21.2509 52.1856 20.0477 51.4434 19.3055Z" fill="#E8F8FC"/>
<path d="M31.0561 6.83594C28.9641 6.83594 27.2683 8.53183 27.2683 10.6237L31.4802 12.3484L34.8439 10.6237C34.8439 8.53173 33.148 6.83594 31.0561 6.83594ZM23.9137 13.9782C21.8217 13.9782 20.1259 15.6741 20.1259 17.766L24.4702 19.4026L27.7015 17.766C27.7016 15.6741 26.0057 13.9782 23.9137 13.9782Z" fill="#E2338F"/>
<path d="M23.9137 21.5539C26.0057 21.5539 27.7015 19.858 27.7015 17.7661H20.1259C20.1259 19.8581 21.8218 21.5539 23.9137 21.5539Z" fill="#FC51A3"/>
<path d="M21.7531 18.8557L16.3707 13.4733C15.8672 12.9698 15.0509 12.9698 14.5475 13.4733L0.0173645 28.0033C0.1887 32.8954 1.77216 37.4279 4.37257 41.2063L17.8468 34.1618L21.7531 25.8868C20.3209 24.4546 20.3209 22.1111 21.7531 20.6789C22.2565 20.1754 22.2565 19.3591 21.7531 18.8557Z" fill="#FFC242"/>
<path d="M31.3212 30.2468C29.889 31.6789 27.5455 31.6789 26.1133 30.2468L21.7531 25.8864C21.7531 25.8864 18.9881 24.5663 16.9736 26.5808C15.3486 28.2058 5.6423 37.6097 5.6423 37.6097C5.6423 37.6097 4.3556 38.9573 4.37267 41.206C6.533 44.345 9.39524 46.9634 12.7332 48.8347L25.2599 45.4301L31.3212 30.2468Z" fill="#FEF156"/>
<path d="M33.1443 30.2468C32.6409 29.7433 31.8246 29.7433 31.3212 30.2468L12.7331 48.835C16.0849 50.7142 19.9156 51.8396 23.9967 51.9825L38.5267 37.4523C39.0302 36.9489 39.0302 36.1326 38.5267 35.6292L33.1443 30.2468ZM12.6886 33.8206C12.6866 33.9161 12.704 34.011 12.7397 34.0996C12.7754 34.1882 12.8286 34.2687 12.8962 34.3362L14.5929 36.0329C14.6589 36.0989 14.7113 36.1773 14.747 36.2635C14.7827 36.3497 14.8011 36.4421 14.8011 36.5355C14.8011 36.6288 14.7827 36.7212 14.747 36.8075C14.7113 36.8937 14.6589 36.9721 14.5929 37.0381L12.703 38.9279C12.637 38.9939 12.5587 39.0463 12.4725 39.082C12.3862 39.1177 12.2938 39.1361 12.2005 39.1361C12.1071 39.1361 12.0147 39.1177 11.9285 39.082C11.8422 39.0463 11.7639 38.9939 11.6979 38.9279L10.0012 37.2312C9.93517 37.1652 9.85682 37.1129 9.77058 37.0772C9.68435 37.0414 9.59193 37.0231 9.49859 37.0231C9.40525 37.0231 9.31282 37.0414 9.22659 37.0772C9.14036 37.1129 9.062 37.1652 8.996 37.2312L7.2993 38.9278C7.2333 38.9938 7.15495 39.0462 7.06872 39.0819C6.98248 39.1176 6.89006 39.136 6.79672 39.136C6.70338 39.136 6.61095 39.1176 6.52472 39.0819C6.43849 39.0462 6.36014 38.9938 6.29414 38.9278L4.40426 37.038C4.33826 36.972 4.2859 36.8936 4.25018 36.8074C4.21446 36.7211 4.19608 36.6287 4.19608 36.5354C4.19608 36.442 4.21446 36.3496 4.25018 36.2634C4.2859 36.1772 4.33826 36.0988 4.40426 36.0328L6.10096 34.3361C6.16697 34.2701 6.21932 34.1917 6.25505 34.1055C6.29077 34.0193 6.30915 33.9269 6.30915 33.8335C6.30915 33.7402 6.29077 33.6478 6.25505 33.5615C6.21932 33.4753 6.16697 33.3969 6.10096 33.3309L4.40426 31.6342C4.33826 31.5682 4.2859 31.4899 4.25018 31.4036C4.21446 31.3174 4.19608 31.225 4.19608 31.1316C4.19608 31.0383 4.21446 30.9459 4.25018 30.8597C4.2859 30.7734 4.33826 30.6951 4.40426 30.6291L6.29414 28.7392C6.36014 28.6732 6.43849 28.6208 6.52472 28.5851C6.61095 28.5494 6.70338 28.531 6.79672 28.531C6.89006 28.531 6.98248 28.5494 7.06872 28.5851C7.15495 28.6208 7.2333 28.6732 7.2993 28.7392L8.996 30.4359C9.06351 30.5035 9.14399 30.5567 9.2326 30.5924C9.32122 30.628 9.41614 30.6454 9.51164 30.6434L10.348 32.5446L12.6886 33.8206Z" fill="#FC51A3"/>
<path d="M11.6978 28.7394L10.0011 30.4361C9.87108 30.5663 9.69548 30.6407 9.51153 30.6436C8.96482 31.5344 9.07481 32.7144 9.84628 33.4858C10.6177 34.2573 11.7977 34.3673 12.6885 33.8206C12.6915 33.6366 12.7659 33.461 12.8961 33.331L14.5928 31.6343C14.6588 31.5683 14.7112 31.49 14.7469 31.4038C14.7826 31.3175 14.801 31.2251 14.801 31.1318C14.801 31.0384 14.7826 30.946 14.7469 30.8598C14.7112 30.7735 14.6588 30.6952 14.5928 30.6292L12.7029 28.7393C12.5696 28.6061 12.3888 28.5312 12.2003 28.5313C12.0118 28.5313 11.8311 28.6061 11.6978 28.7394Z" fill="#FF6EAE"/>
<path d="M14.5458 19.1475C14.1694 18.8168 13.5927 18.8589 13.2385 19.2131L11.3895 21.0621C11.2173 21.2393 11.1217 21.4772 11.1235 21.7244C11.1253 21.9716 11.2242 22.2081 11.399 22.3829C11.5738 22.5576 11.8103 22.6566 12.0574 22.6584C12.3046 22.6602 12.5425 22.5647 12.7198 22.3924L14.5915 20.5207C14.6826 20.4296 14.754 20.3208 14.8013 20.201C14.8486 20.0812 14.8708 19.9529 14.8665 19.8242C14.8622 19.6955 14.8316 19.569 14.7764 19.4526C14.7212 19.3362 14.6427 19.2323 14.5458 19.1475Z" fill="#FD8D3E"/>
</g>
<defs>
<clipPath id="clip0_37_2609">
<rect width="52" height="52" fill="white"/>
</clipPath>
</defs>
</svg>
