<svg width="52" height="52" viewBox="0 0 52 52" fill="none" xmlns="http://www.w3.org/2000/svg">
<g clip-path="url(#clip0_37_2392)">
<path d="M0.46993 27.012C0.348494 27.0119 0.231903 26.9643 0.145156 26.8794C0.0584099 26.7944 0.00841463 26.6788 0.0058908 26.5574C0.00194224 26.3716 -2.14162e-05 26.1858 1.76135e-07 26C1.76135e-07 11.6406 11.6406 0 26 0C40.3594 0 52 11.6406 52 26C52 26.1516 51.9987 26.303 51.9961 26.4541C51.9909 26.764 51.7369 27.012 51.4269 27.012H0.46993Z" fill="#20B7A1"/>
<path d="M2.09433 27.0119C1.99947 27.0119 1.90839 26.9747 1.84063 26.9083C1.77287 26.8419 1.73382 26.7516 1.73185 26.6568C1.7288 26.5117 1.72728 26.3666 1.72728 26.2215C1.72728 15.0058 10.8195 5.91357 22.0352 5.91357C33.251 5.91357 42.3431 15.0058 42.3431 26.2215C42.3431 26.3399 42.3421 26.4581 42.3401 26.5762C42.3379 26.6926 42.29 26.8035 42.2069 26.885C42.1237 26.9665 42.0119 27.0121 41.8955 27.012H2.09433V27.0119Z" fill="#24D3B5"/>
<path d="M51.9968 26.4062C51.7798 40.5783 40.2237 52 26 52C11.7763 52 0.220182 40.5783 0.00314331 26.4062H51.9968Z" fill="#3D4EC6"/>
<path d="M27.1077 35.8455H10.4458V16.572H27.1077V35.8455Z" fill="#FFC14F"/>
<path d="M13.9032 35.8455H10.4457V16.572H13.9032V35.8455Z" fill="#FFA90B"/>
<path d="M26.0921 17.2416H11.4614C10.9005 17.2416 10.4458 16.7869 10.4458 16.226V13.4429C10.4458 12.8819 10.9005 12.4272 11.4614 12.4272H26.0921C26.653 12.4272 27.1077 12.8819 27.1077 13.4429V16.226C27.1077 16.7869 26.653 17.2416 26.0921 17.2416Z" fill="#A7D0FC"/>
<path d="M29.5496 17.2416H14.9188C14.3579 17.2416 13.9032 16.7869 13.9032 16.226V13.4429C13.9032 12.8819 14.3579 12.4272 14.9188 12.4272H29.5496C30.1105 12.4272 30.5652 12.8819 30.5652 13.4429V16.226C30.5652 16.7869 30.1105 17.2416 29.5496 17.2416Z" fill="#C8E2FD"/>
<path d="M26.0921 17.3708H9.72086C9.15993 17.3708 8.70523 16.9162 8.70523 16.3552C8.70523 15.7943 9.15993 15.3396 9.72086 15.3396H26.0921C26.6531 15.3396 27.1077 15.7943 27.1077 16.3552C27.1077 16.9162 26.6531 17.3708 26.0921 17.3708Z" fill="#C8E2FD"/>
<path d="M29.776 17.3708H13.4046C12.8437 17.3708 12.389 16.9162 12.389 16.3552C12.389 15.7943 12.8437 15.3396 13.4046 15.3396H29.7759C30.3368 15.3396 30.7915 15.7943 30.7915 16.3552C30.7916 16.9162 30.3369 17.3708 29.776 17.3708Z" fill="#E9F3FE"/>
<path d="M47.1758 30.3672V40.625C47.1758 42.3077 45.8117 43.6719 44.1289 43.6719H26.8633C25.1805 43.6719 23.8164 42.3077 23.8164 40.625V12.3906C23.8164 10.7079 25.1805 9.34375 26.8633 9.34375H28.2852C29.1265 9.34375 29.8086 8.66166 29.8086 7.82031V3.04688H36.918V27.3203H44.1289C45.8117 27.3203 47.1758 28.6845 47.1758 30.3672Z" fill="#F44545"/>
<path d="M46.2617 14.8343V26.4062C46.2617 26.4062 47.0924 29.6428 46.9359 30.2314C46.1222 33.2919 43.3322 35.5469 40.0156 35.5469C36.0612 35.5469 32.8555 32.3412 32.8555 28.3867V3.04688H41.1836V7.82031C41.1836 8.66166 41.8657 9.34375 42.707 9.34375H44.1289C45.8117 9.34375 47.1758 10.7079 47.1758 12.3906V13.2031L46.2617 14.8343Z" fill="#FB5858"/>
<path d="M40.168 1.01562V6.09375C40.168 6.65468 39.7133 7.10938 39.1523 7.10938H29.8086C29.2477 7.10938 28.793 6.65468 28.793 6.09375V1.01562C28.793 0.454695 29.2477 0 29.8086 0H39.1523C39.7133 0 40.168 0.454695 40.168 1.01562Z" fill="#A7D0FC"/>
<path d="M42.1992 1.01562V6.09375C42.1992 6.65468 41.7445 7.10938 41.1836 7.10938H31.8398C31.2789 7.10938 30.8242 6.65468 30.8242 6.09375V1.01562C30.8242 0.454695 31.2789 0 31.8398 0H41.1836C41.7445 0 42.1992 0.454695 42.1992 1.01562Z" fill="#C8E2FD"/>
<path d="M34.9883 1.52344V5.58594C34.9883 5.72062 34.9348 5.84978 34.8395 5.94501C34.7443 6.04025 34.6151 6.09375 34.4805 6.09375C34.3458 6.09375 34.2166 6.04025 34.1214 5.94501C34.0262 5.84978 33.9727 5.72062 33.9727 5.58594V1.52344C33.9727 1.38876 34.0262 1.25959 34.1214 1.16436C34.2166 1.06913 34.3458 1.01562 34.4805 1.01562C34.6151 1.01562 34.7443 1.06913 34.8395 1.16436C34.9348 1.25959 34.9883 1.38876 34.9883 1.52344ZM32.4492 1.01562C32.3145 1.01563 32.1854 1.06913 32.0901 1.16436C31.9949 1.25959 31.9414 1.38876 31.9414 1.52344V5.58594C31.9414 5.72062 31.9949 5.84978 32.0901 5.94501C32.1854 6.04025 32.3145 6.09375 32.4492 6.09375C32.5839 6.09375 32.7131 6.04025 32.8083 5.94501C32.9035 5.84978 32.957 5.72062 32.957 5.58594V1.52344C32.957 1.38876 32.9035 1.25959 32.8083 1.16436C32.7131 1.06913 32.5839 1.01563 32.4492 1.01562ZM30.418 1.01562C30.2833 1.01563 30.1541 1.06913 30.0589 1.16436C29.9637 1.25959 29.9102 1.38876 29.9102 1.52344V5.58594C29.9102 5.72062 29.9637 5.84978 30.0589 5.94501C30.1541 6.04025 30.2833 6.09375 30.418 6.09375C30.5526 6.09375 30.6818 6.04025 30.777 5.94501C30.8723 5.84978 30.9258 5.72062 30.9258 5.58594V1.52344C30.9258 1.38876 30.8723 1.25959 30.777 1.16436C30.6818 1.06913 30.5526 1.01563 30.418 1.01562ZM40.5742 1.01562C40.4395 1.01563 40.3104 1.06913 40.2151 1.16436C40.1199 1.25959 40.0664 1.38876 40.0664 1.52344V5.58594C40.0664 5.72062 40.1199 5.84978 40.2151 5.94501C40.3104 6.04025 40.4395 6.09375 40.5742 6.09375C40.7089 6.09375 40.8381 6.04025 40.9333 5.94501C41.0285 5.84978 41.082 5.72062 41.082 5.58594V1.52344C41.082 1.38876 41.0285 1.25959 40.9333 1.16436C40.8381 1.06913 40.7089 1.01563 40.5742 1.01562ZM38.543 1.01562C38.4083 1.01563 38.2791 1.06913 38.1839 1.16436C38.0887 1.25959 38.0352 1.38876 38.0352 1.52344V5.58594C38.0352 5.72062 38.0887 5.84978 38.1839 5.94501C38.2791 6.04025 38.4083 6.09375 38.543 6.09375C38.6776 6.09375 38.8068 6.04025 38.902 5.94501C38.9973 5.84978 39.0508 5.72062 39.0508 5.58594V1.52344C39.0508 1.38876 38.9973 1.25959 38.902 1.16436C38.8068 1.06913 38.6776 1.01563 38.543 1.01562ZM36.5117 1.01562C36.377 1.01563 36.2479 1.06913 36.1526 1.16436C36.0574 1.25959 36.0039 1.38876 36.0039 1.52344V5.58594C36.0039 5.72062 36.0574 5.84978 36.1526 5.94501C36.2479 6.04025 36.377 6.09375 36.5117 6.09375C36.6464 6.09375 36.7756 6.04025 36.8708 5.94501C36.966 5.84978 37.0195 5.72062 37.0195 5.58594V1.52344C37.0195 1.38876 36.966 1.25959 36.8708 1.16436C36.7756 1.06913 36.6464 1.01563 36.5117 1.01562Z" fill="#86BEFB"/>
<path d="M46.2617 14.7266V28.9453C46.2617 29.7867 45.5796 30.4688 44.7383 30.4688H33.5664C32.7251 30.4688 32.043 29.7867 32.043 28.9453V14.7266C32.043 13.8852 32.7251 13.2031 33.5664 13.2031H44.7383C45.5796 13.2031 46.2617 13.8852 46.2617 14.7266Z" fill="#C8E2FD"/>
<path d="M47.1758 13.2031V30.4688H36.918C36.0766 30.4688 35.3945 29.7867 35.3945 28.9453V14.7266C35.3945 13.8852 36.0766 13.2031 36.918 13.2031H47.1758Z" fill="#E9F3FE"/>
<path d="M39.1523 23.9688C39.1523 23.8341 39.2058 23.7049 39.3011 23.6097C39.3963 23.5144 39.5255 23.4609 39.6602 23.4609H43.7227C43.8573 23.4609 43.9865 23.5144 44.0817 23.6097C44.177 23.7049 44.2305 23.8341 44.2305 23.9688C44.2305 24.1034 44.177 24.2326 44.0817 24.3278C43.9865 24.4231 43.8573 24.4766 43.7227 24.4766H39.6602C39.5255 24.4766 39.3963 24.4231 39.3011 24.3278C39.2058 24.2326 39.1523 24.1034 39.1523 23.9688ZM43.7227 25.4922H39.6602C39.5255 25.4922 39.3963 25.5457 39.3011 25.6409C39.2058 25.7362 39.1523 25.8653 39.1523 26C39.1523 26.1347 39.2058 26.2638 39.3011 26.3591C39.3963 26.4543 39.5255 26.5078 39.6602 26.5078H43.7227C43.8573 26.5078 43.9865 26.4543 44.0817 26.3591C44.177 26.2638 44.2305 26.1347 44.2305 26C44.2305 25.8653 44.177 25.7362 44.0817 25.6409C43.9865 25.5457 43.8573 25.4922 43.7227 25.4922ZM43.7227 27.5234H39.6602C39.5255 27.5234 39.3963 27.5769 39.3011 27.6722C39.2058 27.7674 39.1523 27.8966 39.1523 28.0312C39.1523 28.1659 39.2058 28.2951 39.3011 28.3903C39.3963 28.4856 39.5255 28.5391 39.6602 28.5391H43.7227C43.8573 28.5391 43.9865 28.4856 44.0817 28.3903C44.177 28.2951 44.2305 28.1659 44.2305 28.0312C44.2305 27.8966 44.177 27.7674 44.0817 27.6722C43.9865 27.5769 43.8573 27.5234 43.7227 27.5234Z" fill="#A7D0FC"/>
<path d="M37.2648 24.5781V44.5859C37.2648 45.4273 36.5827 46.1094 35.7414 46.1094H3.24136C2.40002 46.1094 1.71793 45.4273 1.71793 44.5859V24.5781C1.71793 23.7368 2.40002 23.0547 3.24136 23.0547H35.7414C36.5827 23.0547 37.2648 23.7368 37.2648 24.5781Z" fill="#8C96DD"/>
<path d="M37.2648 24.5781V44.5859C37.2648 45.4273 36.5827 46.1094 35.7414 46.1094H26.4484C20.0821 46.1094 14.9211 40.9485 14.9211 34.582C14.9211 28.2156 20.0821 23.0547 26.4484 23.0547H35.7414C36.5827 23.0547 37.2648 23.7368 37.2648 24.5781Z" fill="#A6AEE5"/>
<path d="M34.1164 34.582C34.1164 34.7841 34.0361 34.9778 33.8933 35.1206C33.7504 35.2635 33.5567 35.3438 33.3546 35.3438H5.42496C5.22294 35.3438 5.02919 35.2635 4.88634 35.1206C4.74349 34.9778 4.66324 34.7841 4.66324 34.582C4.66324 34.38 4.74349 34.1863 4.88634 34.0434C5.02919 33.9006 5.22294 33.8203 5.42496 33.8203H33.3546C33.5567 33.8203 33.7504 33.9006 33.8933 34.0434C34.0361 34.1863 34.1164 34.38 34.1164 34.582ZM23.6216 31.4844C25.3044 31.4844 26.6685 30.1202 26.6685 28.4375C26.6685 26.7548 25.3044 25.3906 23.6216 25.3906C21.9388 25.3906 20.5747 26.7548 20.5747 28.4375C20.5747 30.1202 21.9388 31.4844 23.6216 31.4844ZM31.882 31.4844C33.5648 31.4844 34.9289 30.1202 34.9289 28.4375C34.9289 26.7548 33.5648 25.3906 31.882 25.3906C30.1992 25.3906 28.8351 26.7548 28.8351 28.4375C28.8351 30.1202 30.1992 31.4844 31.882 31.4844ZM7.10074 31.4844C8.78353 31.4844 10.1476 30.1202 10.1476 28.4375C10.1476 26.7548 8.78353 25.3906 7.10074 25.3906C5.41795 25.3906 4.05386 26.7548 4.05386 28.4375C4.05386 30.1202 5.41795 31.4844 7.10074 31.4844ZM15.3611 31.4844C17.0439 31.4844 18.408 30.1202 18.408 28.4375C18.408 26.7548 17.0439 25.3906 15.3611 25.3906C13.6783 25.3906 12.3142 26.7548 12.3142 28.4375C12.3142 30.1202 13.6784 31.4844 15.3611 31.4844ZM23.6216 37.5781C21.9388 37.5781 20.5747 38.9423 20.5747 40.625C20.5747 42.3077 21.9388 43.6719 23.6216 43.6719C25.3044 43.6719 26.6685 42.3077 26.6685 40.625C26.6685 38.9423 25.3043 37.5781 23.6216 37.5781ZM31.882 37.5781C30.1992 37.5781 28.8351 38.9423 28.8351 40.625C28.8351 42.3077 30.1992 43.6719 31.882 43.6719C33.5648 43.6719 34.9289 42.3077 34.9289 40.625C34.9289 38.9423 33.5647 37.5781 31.882 37.5781ZM7.10074 37.5781C5.41795 37.5781 4.05386 38.9423 4.05386 40.625C4.05386 42.3077 5.41795 43.6719 7.10074 43.6719C8.78353 43.6719 10.1476 42.3077 10.1476 40.625C10.1476 38.9423 8.78343 37.5781 7.10074 37.5781ZM15.3611 37.5781C13.6783 37.5781 12.3142 38.9423 12.3142 40.625C12.3142 42.3077 13.6783 43.6719 15.3611 43.6719C17.0439 43.6719 18.408 42.3077 18.408 40.625C18.408 38.9423 17.0439 37.5781 15.3611 37.5781Z" fill="#717ED6"/>
<path d="M42.2035 16.0427C43.0126 16.8518 42.5753 18.6009 41.2268 19.9495C39.8782 21.298 38.1291 21.7352 37.32 20.9262C36.5108 20.117 36.9481 18.3679 38.2967 17.0194C39.6452 15.6708 41.3943 15.2336 42.2035 16.0427ZM33.1644 44.3786C32.3553 43.5695 30.6062 44.0068 29.2576 45.3553C27.9091 46.7039 27.4718 48.453 28.281 49.262C29.0901 50.0712 30.8393 49.6339 32.1878 48.2853C33.5363 46.9368 33.9735 45.1877 33.1644 44.3786Z" fill="#FFA90B"/>
<path d="M42.2035 16.0426C42.9082 16.7474 42.6673 18.1651 41.7025 19.4102C40.9026 19.9632 39.7927 19.8778 39.0904 19.1805L39.078 19.1681L39.0656 19.1556C38.3683 18.4533 38.2829 17.3435 38.8358 16.5436C40.0809 15.5788 41.4987 15.338 42.2035 16.0426ZM33.1644 44.3786C32.4598 43.6738 31.042 43.9146 29.7968 44.8796C29.2439 45.6795 29.3293 46.7894 30.0266 47.4916L30.039 47.504L30.0515 47.5164C30.7538 48.2138 31.8636 48.2993 32.6636 47.7462C33.6283 46.5011 33.8691 45.0833 33.1644 44.3786Z" fill="#FFC14F"/>
<path d="M25.6529 28.4375C25.6529 29.5594 24.7435 30.4688 23.6216 30.4688C22.4997 30.4688 21.5904 29.5594 21.5904 28.4375C21.5904 27.3156 22.4997 26.4062 23.6216 26.4062C24.7435 26.4062 25.6529 27.3156 25.6529 28.4375ZM31.882 30.4688C33.0038 30.4688 33.9132 29.5594 33.9132 28.4375C33.9132 27.3156 33.0038 26.4062 31.882 26.4062C30.7601 26.4062 29.8507 27.3156 29.8507 28.4375C29.8507 29.5594 30.7601 30.4688 31.882 30.4688ZM7.10074 26.4062C5.97888 26.4062 5.06949 27.3156 5.06949 28.4375C5.06949 29.5594 5.97888 30.4688 7.10074 30.4688C8.2226 30.4688 9.13199 29.5594 9.13199 28.4375C9.13199 27.3156 8.2226 26.4062 7.10074 26.4062ZM15.3611 26.4062C14.2393 26.4062 13.3299 27.3156 13.3299 28.4375C13.3299 29.5594 14.2393 30.4688 15.3611 30.4688C16.483 30.4688 17.3924 29.5594 17.3924 28.4375C17.3924 27.3156 16.483 26.4062 15.3611 26.4062ZM23.6216 38.5938C22.4997 38.5938 21.5904 39.5031 21.5904 40.625C21.5904 41.7469 22.4997 42.6562 23.6216 42.6562C24.7435 42.6562 25.6529 41.7469 25.6529 40.625C25.6529 39.5031 24.7434 38.5938 23.6216 38.5938ZM31.882 38.5938C30.7601 38.5938 29.8507 39.5031 29.8507 40.625C29.8507 41.7469 30.7601 42.6562 31.882 42.6562C33.0038 42.6562 33.9132 41.7469 33.9132 40.625C33.9132 39.5031 33.0038 38.5938 31.882 38.5938ZM7.10074 38.5938C5.97888 38.5938 5.06949 39.5031 5.06949 40.625C5.06949 41.7469 5.97888 42.6562 7.10074 42.6562C8.2226 42.6562 9.13199 41.7469 9.13199 40.625C9.13199 39.5031 8.2226 38.5938 7.10074 38.5938ZM15.3611 38.5938C14.2393 38.5938 13.3299 39.5031 13.3299 40.625C13.3299 41.7469 14.2393 42.6562 15.3611 42.6562C16.483 42.6562 17.3924 41.7469 17.3924 40.625C17.3924 39.5031 16.483 38.5938 15.3611 38.5938ZM36.7148 47.125C36.7148 48.2469 35.8054 49.1562 34.6836 49.1562C33.5617 49.1562 32.6523 48.2469 32.6523 47.125C32.6523 46.0031 33.5617 45.0938 34.6836 45.0938C35.8054 45.0938 36.7148 46.0031 36.7148 47.125Z" fill="#C8E2FD"/>
<path d="M25.6529 28.4375C25.6529 28.6804 25.6102 28.9133 25.532 29.1292C25.3102 29.2094 25.0762 29.2503 24.8404 29.25C23.7185 29.25 22.8091 28.3406 22.8091 27.2188C22.8091 26.9758 22.8518 26.7429 22.93 26.527C23.1517 26.4468 23.3858 26.406 23.6216 26.4063C24.7434 26.4063 25.6529 27.3156 25.6529 28.4375ZM33.1007 29.25C33.3436 29.25 33.5766 29.2073 33.7924 29.1292C33.8726 28.9074 33.9135 28.6734 33.9132 28.4375C33.9132 27.3156 33.0038 26.4063 31.882 26.4063C31.6392 26.4063 31.4062 26.4489 31.1903 26.527C31.1101 26.7488 31.0692 26.9829 31.0695 27.2188C31.0695 28.3406 31.9789 29.25 33.1007 29.25ZM7.10074 26.4063C6.8579 26.4063 6.62492 26.4489 6.4091 26.527C6.32888 26.7488 6.28798 26.9829 6.28824 27.2188C6.28824 28.3406 7.19763 29.25 8.31949 29.25C8.56233 29.25 8.79531 29.2073 9.01113 29.1292C9.09135 28.9074 9.13225 28.6734 9.13199 28.4375C9.13199 27.3156 8.2226 26.4063 7.10074 26.4063ZM15.3611 26.4063C15.1183 26.4063 14.8853 26.4489 14.6695 26.527C14.5893 26.7488 14.5484 26.9829 14.5486 27.2188C14.5486 28.3406 15.458 29.25 16.5799 29.25C16.8227 29.25 17.0557 29.2073 17.2715 29.1292C17.3517 28.9074 17.3926 28.6734 17.3924 28.4375C17.3924 27.3156 16.483 26.4063 15.3611 26.4063ZM23.6216 38.5938C23.3788 38.5938 23.1458 38.6364 22.93 38.7145C22.8497 38.9363 22.8088 39.1704 22.8091 39.4063C22.8091 40.5281 23.7185 41.4375 24.8404 41.4375C25.0832 41.4375 25.3162 41.3948 25.532 41.3167C25.6122 41.0949 25.6531 40.8609 25.6529 40.625C25.6529 39.5031 24.7434 38.5938 23.6216 38.5938ZM31.882 38.5938C31.6392 38.5938 31.4062 38.6364 31.1903 38.7145C31.1101 38.9363 31.0692 39.1704 31.0695 39.4063C31.0695 40.5281 31.9789 41.4375 33.1007 41.4375C33.3436 41.4375 33.5766 41.3948 33.7924 41.3167C33.8726 41.0949 33.9135 40.8609 33.9132 40.625C33.9132 39.5031 33.0038 38.5938 31.882 38.5938ZM7.10074 38.5938C6.8579 38.5938 6.62492 38.6364 6.4091 38.7145C6.32888 38.9363 6.28798 39.1704 6.28824 39.4063C6.28824 40.5281 7.19763 41.4375 8.31949 41.4375C8.56233 41.4375 8.79531 41.3948 9.01113 41.3167C9.09135 41.0949 9.13225 40.8609 9.13199 40.625C9.13199 39.5031 8.2226 38.5938 7.10074 38.5938ZM15.3611 38.5938C15.1183 38.5938 14.8853 38.6364 14.6695 38.7145C14.5893 38.9363 14.5484 39.1704 14.5486 39.4063C14.5486 40.5281 15.458 41.4375 16.5799 41.4375C16.8227 41.4375 17.0557 41.3948 17.2715 41.3167C17.3517 41.0949 17.3926 40.8609 17.3924 40.625C17.3924 39.5031 16.483 38.5938 15.3611 38.5938ZM36.7148 47.125C36.7148 47.3679 36.6722 47.6008 36.594 47.8167C36.3722 47.8969 36.1382 47.9378 35.9023 47.9375C34.7805 47.9375 33.8711 47.0281 33.8711 45.9063C33.8711 45.6633 33.9137 45.4304 33.992 45.2145C34.2137 45.1343 34.4478 45.0935 34.6836 45.0938C35.8055 45.0938 36.7148 46.0031 36.7148 47.125Z" fill="#E9F3FE"/>
</g>
<defs>
<clipPath id="clip0_37_2392">
<rect width="52" height="52" fill="white"/>
</clipPath>
</defs>
</svg>
