<svg width="52" height="52" viewBox="0 0 52 52" fill="none" xmlns="http://www.w3.org/2000/svg">
<g clip-path="url(#clip0_37_2477)">
<path d="M32.8271 0.948486L13.9914 6.97653L1.55116 20.2407C1.26221 21.7712 1.11686 23.3254 1.11698 24.883C1.11698 38.6255 12.2575 49.766 26 49.766C39.7425 49.766 50.883 38.6255 50.883 24.883C50.883 13.508 43.2503 3.91594 32.8271 0.948486Z" fill="#7D62EE"/>
<path d="M20.9855 7.20636L11.5085 4.6543C6.41408 8.31034 2.75854 13.8428 1.55106 20.2408C2.02582 21.5975 2.82285 22.8187 3.8737 23.7994C7.47236 27.1652 13.1182 26.9763 16.484 23.3775L23.5032 15.8725L20.9855 7.20636Z" fill="#27A6FF"/>
<path d="M24.1067 0.0720215C19.4271 0.424342 15.1088 2.07057 11.5085 4.65442L23.5033 15.8727L28.0839 10.9752L28.3894 3.27561L24.1067 0.0720215Z" fill="#3ECD8D"/>
<path d="M32.8272 0.948492C30.6578 0.330789 28.3675 0 26 0C25.3629 0 24.7317 0.0247813 24.1067 0.0719063C23.619 0.779391 20.774 5.40546 26.3834 9.82556C26.9661 10.2847 27.5336 10.6639 28.0838 10.975L30.5225 8.36753C32.4588 6.29728 33.2161 3.54981 32.8272 0.948492Z" fill="#95DB76"/>
<path d="M13.0954 38.0787C11.8234 37.6955 10.6174 37.0229 9.58151 36.0541C5.98274 32.6883 5.79394 27.0425 9.15972 23.4438L16.1789 15.9387L26 20.998L13.0954 38.0787Z" fill="#FF6EAE"/>
<path d="M28.6393 22.042H22.7046C19.812 25.1063 16.9238 28.0669 15.1727 29.848C12.9871 32.0712 12.2639 35.2495 13.0955 38.0789C16.2422 39.027 19.795 38.1952 22.1919 35.6324L29.2111 28.1273L28.6393 22.042Z" fill="#FF8BBC"/>
<path d="M35.8084 8.01175C32.2096 4.64597 26.5639 4.83487 23.1981 8.43354L16.1789 15.9387L22.7046 22.0419L30.9792 19.0175L37.9378 11.0689C37.4519 9.91084 36.7262 8.8689 35.8084 8.01175Z" fill="#FFC242"/>
<path d="M37.9378 11.0689C35.7647 10.4936 32.7446 10.5567 30.1497 13.7532C28.3723 15.9429 25.5363 19.0421 22.7046 22.0419L29.2111 28.1272L34.6954 22.2634L34.6416 17.1049L38.6141 15.1278C38.7054 13.7503 38.4789 12.3576 37.9378 11.0689Z" fill="#FEF156"/>
<path d="M38.614 15.1277C38.5903 15.1112 38.5672 15.0941 38.543 15.0783C37.0467 14.1059 34.8316 14.8598 33.5953 16.7622C32.3591 18.6645 32.5699 20.9949 34.0661 21.9672C34.2615 22.0939 34.4732 22.1935 34.6954 22.2634L36.2303 20.6222C37.6925 19.0586 38.4824 17.1089 38.614 15.1277Z" fill="#FFFBB3"/>
<path d="M36.98 23.1501C31.8934 23.1501 27.7698 27.2737 27.7698 32.3603C27.7698 37.447 31.8934 41.5705 36.98 41.5705L41.6645 32.3603L36.98 23.1501Z" fill="#27A6FF"/>
<path d="M42.4303 28.3867L42.7789 25.2054C41.1956 23.9206 39.1779 23.1501 36.98 23.1501V41.5705C41.9466 41.5705 45.9943 37.6392 46.1827 32.7188L42.4303 28.3867Z" fill="#02C0FC"/>
<path d="M38.6337 39.8378L28.6393 36.2771C25.0425 39.8739 25.0425 45.7055 28.6393 49.3023C32.2361 52.8991 38.0676 52.8991 41.6645 49.3023L38.6337 39.8378Z" fill="#FC51A3"/>
<path d="M44.0542 40.4324L39.6119 38.4921L38.0185 34.0377C34.8259 32.9948 31.1767 33.7396 28.6392 36.2771L41.6644 49.3023C44.068 46.8989 44.8629 43.4979 44.0542 40.4324Z" fill="#FF6EAE"/>
<path d="M42.7789 25.2053C40.6931 25.6328 39.7266 28.0637 40.3181 30.2867C41.1372 33.3649 44.3037 34.6233 46.1826 32.7188C46.2961 29.7512 44.9984 27.0063 42.7789 25.2053Z" fill="#2FD0E2"/>
<path d="M44.0542 40.4324C43.6527 38.9103 42.8577 37.4706 41.6644 36.2772C40.6428 35.2536 39.3934 34.4862 38.0185 34.0378C36.0221 35.3241 36.0263 38.2688 37.8466 40.219C39.7011 42.206 42.6632 42.3563 44.0542 40.4324Z" fill="#FF8BBC"/>
</g>
<defs>
<clipPath id="clip0_37_2477">
<rect width="52" height="52" fill="white"/>
</clipPath>
</defs>
</svg>
