<svg width="52" height="52" viewBox="0 0 52 52" fill="none" xmlns="http://www.w3.org/2000/svg">
<path d="M24.883 2.23389C18.1427 2.23389 12.0297 4.91504 7.54863 9.2675V26.638L49.766 27.1169C49.766 13.3744 38.6255 2.23389 24.883 2.23389Z" fill="#02C0FC"/>
<path d="M7.54863 26.6382L26.7477 51.9307C39.6192 50.977 49.766 40.2322 49.766 27.1171L7.54863 26.6382Z" fill="#4A3279"/>
<path d="M24.883 0H18.7326C15.5733 0 13.0029 2.57034 13.0029 5.72965V10.5255L14.6619 12.1367L17.0654 10.5255V5.72965C17.0654 4.8103 17.8134 4.0625 18.7326 4.0625H24.883L26.443 1.67578L24.883 0Z" fill="#FFC242"/>
<path d="M30.7681 0H24.883C24.883 0 22.3328 2.05664 24.883 4.0625H30.7681C31.6873 4.0625 32.4352 4.8103 32.4352 5.72965V10.5255L34.6358 12.1367L36.4977 10.5255V5.72965C36.4977 2.57034 33.9275 0 30.7681 0Z" fill="#FEF156"/>
<path d="M17.0654 10.5256H7.43427L7.04458 14.8114L2.57583 16.0836L2.57573 16.0834C0.927367 19.4084 0 23.1542 0 27.1171C0 33.0765 2.09655 38.5452 5.5903 42.8294L21.169 46.25L24.8829 27.117L17.0654 10.5256Z" fill="#E2338F"/>
<path d="M43.8208 10.5256H17.0654C17.0654 10.5256 13.383 17.5272 18.9736 21.8398V26.4258C18.9736 26.4258 16.4706 31.7152 21.1691 34.8245V46.2501H43.0707L49.5093 30.7022L43.8208 10.5256Z" fill="#FC51A3"/>
<path d="M21.1691 34.8245H16.8865C16.6466 34.8245 16.4166 34.9197 16.247 35.0894C16.0774 35.259 15.9821 35.489 15.9821 35.7289V38.722C15.9821 38.9619 16.0774 39.1919 16.247 39.3615C16.4166 39.5312 16.6466 39.6264 16.8865 39.6264L18.0133 40.3712H22.042L21.1691 34.8245Z" fill="#27A6FF"/>
<path d="M23.6428 34.8245H21.1691C20.9292 34.8245 20.6992 34.9197 20.5296 35.0894C20.36 35.259 20.2647 35.489 20.2647 35.7289V38.722C20.2647 38.9619 20.36 39.1919 20.5296 39.3615C20.6992 39.5312 20.9292 39.6264 21.1691 39.6264L22.042 40.3712L23.6428 39.6264C23.8827 39.6264 24.1127 39.5312 24.2824 39.3615C24.452 39.1919 24.5473 38.9619 24.5473 38.722V35.7288C24.5472 35.4889 24.4519 35.2589 24.2823 35.0893C24.1127 34.9197 23.8827 34.8245 23.6428 34.8245Z" fill="#02C0FC"/>
<path d="M48.1651 46.25C50.2744 46.25 52 44.5243 52 42.4151V14.3605C52 12.2513 50.2742 10.5256 48.1651 10.5256H43.8208L41.0342 17.5599C41.0342 17.5599 36.3051 24.3467 43.0707 30.0907V46.2501H48.1651V46.25Z" fill="#FF6EAE"/>
<path d="M45.7061 17.5597H41.0342C40.3639 17.5597 39.8154 17.0113 39.8154 16.341V10.4863C39.8154 9.81602 40.3639 9.26758 41.0342 9.26758H45.7061C46.3764 9.26758 46.9248 9.81602 46.9248 10.4863V16.341C46.9248 17.0113 46.3764 17.5597 45.7061 17.5597Z" fill="#FF8BBC"/>
<path d="M2.57583 16.0834V16.341C2.57583 17.0113 3.12427 17.5597 3.79458 17.5597H8.46645C9.13677 17.5597 9.6852 17.0113 9.6852 16.341V10.4863C9.6852 9.81602 9.13677 9.26758 8.46645 9.26758H7.54863C5.5162 11.2408 3.83457 13.5457 2.57583 16.0834Z" fill="#FF6EAE"/>
<path d="M30.5272 21.8396H27.8395C27.4017 21.8396 27.0434 21.483 27.0434 21.0435V18.3557C27.0433 18.1446 26.9594 17.9421 26.8101 17.7928C26.6608 17.6435 26.4583 17.5596 26.2472 17.5596H23.2534C23.0423 17.5596 22.8398 17.6435 22.6905 17.7928C22.5412 17.9421 22.4573 18.1446 22.4573 18.3557V21.0435C22.4573 21.2546 22.3734 21.4571 22.2241 21.6064C22.0748 21.7557 21.8723 21.8396 21.6611 21.8396H18.9735C18.7624 21.8396 18.5599 21.9235 18.4106 22.0728C18.2613 22.2221 18.1774 22.4246 18.1774 22.6358V25.6294C18.1774 25.8406 18.2613 26.0431 18.4106 26.1924C18.5599 26.3417 18.7624 26.4255 18.9735 26.4256H21.6611C21.8723 26.4256 22.0748 26.5095 22.2241 26.6588C22.3734 26.8081 22.4573 27.0106 22.4573 27.2217V29.9094C22.4573 30.1205 22.5412 30.323 22.6905 30.4723C22.8398 30.6216 23.0423 30.7055 23.2534 30.7055H26.2472C26.4584 30.7055 26.6609 30.6216 26.8102 30.4723C26.9595 30.323 27.0434 30.1205 27.0434 29.9094V27.2217C27.0434 26.7822 27.4017 26.4256 27.8395 26.4256H30.5272C30.7383 26.4255 30.9408 26.3417 31.0901 26.1924C31.2394 26.0431 31.3233 25.8406 31.3233 25.6294V22.6358C31.3233 22.4246 31.2394 22.2221 31.0901 22.0728C30.9408 21.9235 30.7383 21.8396 30.5272 21.8396Z" fill="#E8F8FC"/>
<path d="M9.6852 34.2266L5.58888 35.6059V42.8292C6.7975 44.3105 8.1719 45.6484 9.6852 46.8168L11.4372 39.6263L13.7815 37.8742V35.606L9.6852 34.2266Z" fill="#7D62EE"/>
<path d="M13.7815 42.3445V37.874H11.5562C10.5229 37.874 9.6852 38.7117 9.6852 39.745V46.8167C10.9639 47.8055 12.3358 48.6675 13.7815 49.3904L15.4404 46.2278L13.7815 42.3445Z" fill="#A188F6"/>
<path d="M37.8792 30.0906H32.6876C31.5762 30.0906 30.6669 30.9999 30.6669 32.1113V49.9794C30.6669 51.0908 31.5762 52 32.6876 52H37.8792L41.3645 41.2114L37.8792 30.0906Z" fill="#BBF0F9"/>
<path d="M43.0707 30.0906H37.8792C37.8792 30.0906 35.9048 32.051 37.8792 34.0254V37.1059C37.8792 37.1059 36.561 38.353 37.8792 39.6711V42.7516C37.8792 42.7516 36.5358 43.9735 37.8792 45.3167V48.3972C37.8792 48.3972 36.0054 50.1262 37.8792 52H43.0707C44.182 52 45.0913 51.0908 45.0913 49.9794V32.1112C45.0913 30.9999 44.182 30.0906 43.0707 30.0906Z" fill="#E8F8FC"/>
<path d="M10.5896 35.6058H5.30837C5.0685 35.6058 4.83846 35.5105 4.66885 35.3409C4.49924 35.1713 4.40395 34.9413 4.40395 34.7014V31.0094C4.40395 30.7695 4.49924 30.5395 4.66885 30.3699C4.83846 30.2003 5.0685 30.105 5.30837 30.105H10.5896L12.0465 32.6523L10.5896 35.6058Z" fill="#BBF0F9"/>
<path d="M14.9665 34.7014V31.0094C14.9665 30.7695 14.8712 30.5395 14.7016 30.3699C14.5319 30.2003 14.3019 30.105 14.062 30.105H10.5895C10.3496 30.105 10.1196 30.2003 9.95 30.3699C9.78039 30.5395 9.6851 30.7695 9.6851 31.0094V34.7014C9.6851 34.9413 9.78039 35.1713 9.95 35.3409C10.1196 35.5105 10.3496 35.6058 10.5895 35.6058H14.062C14.3019 35.6058 14.5319 35.5105 14.7016 35.3409C14.8712 35.1713 14.9665 34.9413 14.9665 34.7014Z" fill="#E8F8FC"/>
<path d="M37.8792 45.3169H35.934C35.0869 45.3169 34.3938 46.01 34.3938 46.8571C34.3938 47.7042 35.0869 48.3973 35.934 48.3973H37.8792L38.9734 46.9474L37.8792 45.3169Z" fill="#FC51A3"/>
<path d="M37.8792 39.6711H35.934C35.0869 39.6711 34.3938 40.3642 34.3938 41.2113C34.3938 42.0585 35.0869 42.7515 35.934 42.7515H37.8792L39.1723 41.2113L37.8792 39.6711Z" fill="#02C0FC"/>
<path d="M37.8792 34.0254H35.934C35.0869 34.0254 34.3938 34.7185 34.3938 35.5656C34.3938 36.4127 35.0869 37.1058 35.934 37.1058H37.8792L39.1723 35.5656L37.8792 34.0254Z" fill="#FC51A3"/>
<path d="M39.8242 45.3169H37.8791V48.3974H39.8242C40.6713 48.3974 41.3644 47.7043 41.3644 46.8572C41.3645 46.01 40.6713 45.3169 39.8242 45.3169Z" fill="#02C0FC"/>
<path d="M39.8242 39.6711H37.8791V42.7516H39.8242C40.6713 42.7516 41.3644 42.0586 41.3644 41.2114C41.3645 40.3642 40.6713 39.6711 39.8242 39.6711Z" fill="#FC51A3"/>
<path d="M39.8242 34.0254H37.8791V37.1059H39.8242C40.6713 37.1059 41.3644 36.4128 41.3644 35.5657C41.3645 34.7185 40.6713 34.0254 39.8242 34.0254Z" fill="#02C0FC"/>
<path d="M21.1691 39.6262H16.4998C15.0048 39.6262 13.7816 40.8494 13.7816 42.3444V49.3903C14.8236 49.9106 15.901 50.3567 17.0057 50.7254L22.4059 45.1758L21.1691 39.6262ZM22.4059 47.5396L23.5236 51.9617C23.9738 51.986 24.4268 51.9998 24.883 51.9998C25.5104 51.9998 26.132 51.976 26.7477 51.9304V48.369L22.4059 47.5396Z" fill="#FFC242"/>
<path d="M24.0295 39.6262H21.1691C21.1691 39.6262 19.1612 41.6018 21.1691 43.6097L22.7529 44.3728L23.5236 48.369C23.5236 48.369 25.0592 50.0575 26.7477 48.369V42.3444C26.7477 40.8494 25.5245 39.6262 24.0295 39.6262Z" fill="#FEF156"/>
<path d="M23.5236 51.962V44.2009C23.5236 43.8758 23.2576 43.6099 22.9326 43.6099H17.5967C17.2716 43.6099 17.0057 43.8759 17.0057 44.2009V50.7255C19.071 51.4148 21.257 51.8397 23.5236 51.962Z" fill="#FD8D3E"/>
<path d="M21.8958 46.6679C21.8958 46.4367 21.8039 46.2149 21.6404 46.0515C21.477 45.888 21.2552 45.7961 21.024 45.7961H19.5053C19.2741 45.7961 19.0524 45.888 18.8889 46.0515C18.7254 46.2149 18.6336 46.4367 18.6336 46.6679C18.6336 46.899 18.7254 47.1208 18.8889 47.2842C19.0524 47.4477 19.2741 47.5396 19.5053 47.5396H21.024C21.2552 47.5396 21.477 47.4477 21.6404 47.2842C21.8039 47.1208 21.8958 46.899 21.8958 46.6679Z" fill="#FFC242"/>
</svg>
