<svg width="52" height="52" viewBox="0 0 52 52" fill="none" xmlns="http://www.w3.org/2000/svg">
<path d="M24.883 2.23389C21.0708 2.23389 17.4594 3.09239 14.2299 4.62477L42.2931 44.8923L42.293 44.8926C46.9038 40.376 49.7661 34.0812 49.7661 27.1169C49.766 13.3744 38.6255 2.23389 24.883 2.23389Z" fill="#7D62EE"/>
<path d="M36.2504 11.9406L28.8972 8.98511L24.0067 22.9979L29.7684 30.4498C29.7683 30.4498 37.5125 19.5092 36.2504 11.9406Z" fill="#6AD9FB"/>
<path d="M47.346 16.4003L36.2503 11.9407C36.2503 11.9407 32.1568 13.9339 33.1593 17.884L32.0552 21.9023C32.0552 21.9023 29.3883 23.2514 30.4547 26.0001L28.8972 26.6133L24.5817 42.3523L28.8797 51.6787C34.0609 50.8418 38.7065 48.4061 42.2931 44.8923L46.1068 35.4034L48.5837 22.6465L47.346 16.4003Z" fill="#BBF0F9"/>
<path d="M50.2211 17.5557L47.346 16.4001C47.3456 16.4003 42.6557 18.4476 44.4179 22.409L43.5733 25.7611C43.5733 25.7611 39.9095 27.7923 41.8091 31.2454L41.7451 33.2767C41.7451 33.2767 42.6005 36.5618 46.1068 35.4034L51.7963 21.248C52.3784 19.7994 51.6696 18.138 50.2211 17.5557Z" fill="#E8F8FC"/>
<path d="M31.3328 17.1499L29.5063 16.4158C29.3117 16.3375 29.1063 16.2891 28.8972 16.2722L27.2047 18.2457L28.8972 20.6925L29.7683 21.0427L32.0552 19.7012L31.3328 17.1499Z" fill="#FC51A3"/>
<path d="M33.1593 17.884L31.3328 17.1499L29.7683 21.0425L31.5948 21.7766C32.6652 22.2068 33.893 21.683 34.3234 20.6126C34.7537 19.5421 34.2298 18.3143 33.1593 17.884Z" fill="#FEF156"/>
<path d="M39.5402 10.3208L37.9501 11.4813C37.0182 12.1614 36.8122 13.4803 37.4924 14.4121C38.1726 15.3441 39.4915 15.5501 40.4233 14.8699L42.0134 13.7094L42.0866 11.0591L39.5402 10.3208Z" fill="#FC51A3"/>
<path d="M41.1304 9.16031L39.5403 10.3208L42.0135 13.7095L43.6035 12.549C44.5354 11.8689 44.7414 10.55 44.0613 9.61815C43.3811 8.68622 42.0622 8.48025 41.1304 9.16031ZM30.1126 25.4644L28.8972 24.9759L27.4756 26.7766L28.8972 29.4609C29.8731 29.6663 30.8925 29.1485 31.2766 28.193C31.7068 27.1226 31.183 25.8948 30.1126 25.4644Z" fill="#FEF156"/>
<path d="M39.5446 29.2555L37.7181 28.5214C36.6476 28.0912 35.4198 28.6149 34.9895 29.6854C34.5593 30.7559 35.083 31.9837 36.1535 32.414L37.98 33.1481L40.2669 31.8065L39.5446 29.2555Z" fill="#FC51A3"/>
<path d="M41.3711 29.9895L39.5446 29.2554L37.98 33.148L39.8065 33.8821C40.877 34.3123 42.1048 33.7885 42.5351 32.718C42.9653 31.6476 42.4415 30.4198 41.3711 29.9895Z" fill="#FEF156"/>
<path d="M36.4977 36.8361L34.6712 36.102C33.6007 35.6718 32.3729 36.1955 31.9426 37.266C31.5124 38.3364 32.0362 39.5642 33.1066 39.9946L34.9331 40.7287L37.22 39.3871L36.4977 36.8361Z" fill="#FC51A3"/>
<path d="M38.3242 37.57L36.4977 36.8359L34.9331 40.7285L36.7596 41.4626C37.8301 41.8928 39.0579 41.3691 39.4882 40.2986C39.9185 39.2281 39.3947 38.0004 38.3242 37.57Z" fill="#FEF156"/>
<path d="M33.4509 44.4164L31.6244 43.6823C30.554 43.2521 29.3261 43.7758 28.8959 44.8463C28.4656 45.9168 28.9894 47.1447 30.0599 47.5749L31.8864 48.309L34.1732 46.9674L33.4509 44.4164Z" fill="#FC51A3"/>
<path d="M35.2774 45.1506L33.4509 44.4165L31.8864 48.3091L33.7129 49.0432C34.7833 49.4734 36.0111 48.9496 36.4414 47.8792C36.8717 46.8086 36.3479 45.5808 35.2774 45.1506Z" fill="#FEF156"/>
<path d="M10.8108 6.59399C8.81653 7.96462 7.03157 9.61725 5.5117 11.5003V12.8289L4.34251 13.0709L4.3421 13.0706C1.60296 17.0679 0 21.905 0 27.117C0 33.6224 2.49874 39.5425 6.58613 43.9757L10.7046 46.21C16.2451 44.2743 18.5469 31.8274 18.5469 31.8274L10.8108 6.59399Z" fill="#BBF0F9"/>
<path d="M26.0587 4.62476H14.2299L14.0567 4.70682C12.9287 5.25309 11.8437 5.88394 10.8109 6.59395C10.3152 7.84449 9.74827 10.167 11.2427 12.1517V14.3522C11.2427 14.3522 8.51744 17.5514 11.2427 20.2767V22.6464C11.2427 22.6464 8.4497 25.7779 11.2427 28.5709V30.8391C11.2427 30.8391 8.27623 33.9071 11.2427 36.8736V38.9556C11.2427 38.9556 8.55969 41.6724 11.2427 44.6939L11.2723 47.9483C15.1834 50.5095 19.8588 51.9999 24.883 51.9999C26.2437 51.9999 27.5783 51.889 28.8797 51.6789C28.891 51.5767 28.8972 51.4731 28.8972 51.3681V7.46312C28.8972 5.90201 27.6198 4.62476 26.0587 4.62476Z" fill="#E8F8FC"/>
<path d="M10.0033 13.3898L8.38175 11.2922H6.41316C6.0905 11.2922 5.78551 11.3682 5.5118 11.4998C5.10169 12.008 4.71166 12.5321 4.34261 13.0709C4.32539 13.1763 4.31632 13.283 4.31549 13.3898C4.31549 14.5435 5.25941 15.4874 6.41306 15.4874H8.38165L10.0033 13.3898Z" fill="#27A6FF"/>
<path d="M10.3502 11.292H8.38165V15.4872H10.3501C11.5038 15.4872 12.4477 14.5433 12.4477 13.3896C12.4478 12.2359 11.5039 11.292 10.3502 11.292Z" fill="#BAEE63"/>
<path d="M44.4179 22.4089L40.7649 20.9407C39.6944 20.5105 38.4666 21.0343 38.0363 22.1047C37.6061 23.1752 38.1298 24.4031 39.2003 24.8333L42.8533 26.3015C43.9237 26.7317 45.1515 26.208 45.5819 25.1375C46.0122 24.067 45.4883 22.8391 44.4179 22.4089ZM22.484 11.292H18.5469C17.3933 11.292 16.4494 12.2359 16.4494 13.3897C16.4494 14.5433 17.3933 15.4872 18.5469 15.4872H22.484C23.6377 15.4872 24.5816 14.5433 24.5816 13.3897C24.5817 12.2359 23.6378 11.292 22.484 11.292Z" fill="#6AD9FB"/>
<path d="M8.38165 19.4622H6.41317C5.25952 19.4622 4.3156 20.4061 4.3156 21.5597C4.3156 22.7135 5.25952 23.6574 6.41317 23.6574H8.38165L10.0033 21.5597L8.38165 19.4622Z" fill="#27A6FF"/>
<path d="M10.3502 19.4622H8.38165V23.6574H10.3501C11.5038 23.6574 12.4477 22.7135 12.4477 21.5597C12.4478 20.4061 11.5039 19.4622 10.3502 19.4622Z" fill="#BAEE63"/>
<path d="M20.5155 19.4622H18.547C17.3934 19.4622 16.4495 20.4061 16.4495 21.5597C16.4495 22.7135 17.3934 23.6574 18.547 23.6574H20.5155L22.1372 21.5597L20.5155 19.4622Z" fill="#27A6FF"/>
<path d="M22.484 19.4622H20.5155V23.6574H22.484C23.6377 23.6574 24.5816 22.7135 24.5816 21.5597C24.5817 20.4061 23.6378 19.4622 22.484 19.4622Z" fill="#BAEE63"/>
<path d="M34.9166 4.97089L36.32 6.35133C37.1424 7.16028 38.4774 7.14931 39.2863 6.32675C40.0954 5.5042 40.0843 4.16936 39.2618 3.36042L37.8584 1.97998L35.2314 2.33829L34.9166 4.97089Z" fill="#27A6FF"/>
<path d="M33.5131 3.59051L34.9165 4.97095L37.8583 1.98003L36.4549 0.599596C35.6325 -0.209349 34.2976 -0.19838 33.4886 0.624174C32.6796 1.44663 32.6906 2.78146 33.5131 3.59051Z" fill="#BAEE63"/>
<path d="M8.38165 27.6321H6.41317C5.25952 27.6321 4.3156 28.576 4.3156 29.7296C4.3156 30.8833 5.25952 31.8272 6.41317 31.8272H8.38165L10.0033 29.7296L8.38165 27.6321Z" fill="#27A6FF"/>
<path d="M10.3502 27.6321H8.38165V31.8273H10.3501C11.5038 31.8273 12.4477 30.8834 12.4477 29.7298C12.4477 28.5761 11.5039 27.6321 10.3502 27.6321Z" fill="#BAEE63"/>
<path d="M20.5155 27.6321H18.547C17.3934 27.6321 16.4495 28.576 16.4495 29.7296C16.4495 30.8833 17.3934 31.8272 18.547 31.8272H20.5155L22.1372 29.7296L20.5155 27.6321Z" fill="#27A6FF"/>
<path d="M22.484 27.6321H20.5155V31.8273H22.484C23.6377 31.8273 24.5816 30.8834 24.5816 29.7298C24.5816 28.5761 23.6378 27.6321 22.484 27.6321Z" fill="#BAEE63"/>
<path d="M8.38165 35.8018H6.41317C5.25952 35.8018 4.3156 36.7457 4.3156 37.8993C4.3156 39.053 5.25952 39.9969 6.41317 39.9969H8.38165L10.0033 37.8993L8.38165 35.8018Z" fill="#27A6FF"/>
<path d="M10.3502 35.8018H8.38165V39.997H10.3501C11.5038 39.997 12.4477 39.0531 12.4477 37.8994C12.4478 36.7457 11.5039 35.8018 10.3502 35.8018Z" fill="#BAEE63"/>
<path d="M20.5155 35.8018H18.547C17.3934 35.8018 16.4495 36.7457 16.4495 37.8993C16.4495 39.053 17.3934 39.9969 18.547 39.9969H20.5155L22.1372 37.8993L20.5155 35.8018Z" fill="#27A6FF"/>
<path d="M22.484 35.8018H20.5155V39.997H22.484C23.6377 39.997 24.5816 39.0531 24.5816 37.8994C24.5817 36.7457 23.6378 35.8018 22.484 35.8018Z" fill="#BAEE63"/>
<path d="M9.29662 45.1552L8.38165 43.9717H6.57922C7.14995 44.591 7.75163 45.181 8.38195 45.7396L9.29662 45.1552Z" fill="#27A6FF"/>
<path d="M11.2727 47.9493C11.9665 47.6062 12.4477 46.8923 12.4477 46.0695C12.4477 44.9158 11.5038 43.9719 10.3501 43.9719H8.38165V45.74C9.29041 46.5457 10.2567 47.2841 11.2727 47.9493Z" fill="#BAEE63"/>
<path d="M20.5155 43.9719H18.547C17.3934 43.9719 16.4495 44.9158 16.4495 46.0695C16.4495 47.2231 17.3934 48.1672 18.547 48.1672H20.5155L22.1372 46.0695L20.5155 43.9719Z" fill="#27A6FF"/>
<path d="M22.484 43.9719H20.5155V48.1672H22.484C23.6377 48.1672 24.5816 47.2232 24.5816 46.0695C24.5817 44.9158 23.6378 43.9719 22.484 43.9719Z" fill="#BAEE63"/>
</svg>
