<svg width="25" height="52" viewBox="0 0 25 52" fill="none" xmlns="http://www.w3.org/2000/svg">
<g clip-path="url(#clip0_484_9422)">
<path d="M18.3992 21.5102L28.9205 35.1703C32.7346 30.5461 37.2154 22.559 42.4595 17.7307C44.3849 15.9581 46.3585 14.2386 48.378 12.574L39.4261 3.62207C37.7478 5.68794 36.0081 7.70317 34.2094 9.66504C29.3957 14.9154 22.9863 17.7807 18.3992 21.5102Z" fill="#C17D4F"/>
<path d="M30.0837 8.71439C30.2535 8.76203 30.4082 8.85256 30.5329 8.97726C30.6576 9.10196 30.7481 9.25664 30.7958 9.42644C31.9756 13.6546 30.9035 18.3792 27.5784 21.7043C24.1092 25.1735 19.1169 26.1902 14.7543 24.7559C13.3199 20.3933 14.3367 15.401 17.8057 11.9318C21.131 8.60653 25.8556 7.53443 30.0837 8.71439Z" fill="#B3E59F"/>
<path d="M30.7958 9.42638C30.7479 9.25629 30.657 9.10139 30.532 8.97657C30.4069 8.85176 30.2518 8.76124 30.0816 8.71371C28.4687 8.26497 26.7828 8.14131 25.1217 8.34992L25.1458 8.35297C26.6558 8.54451 27.8379 9.75361 28.0248 11.2643C28.4843 14.9765 27.2895 18.8544 24.4396 21.7044C22.3866 23.7574 19.8001 24.9511 17.1265 25.2866C20.8424 25.7502 24.7255 24.5574 27.5785 21.7044C30.9035 18.3791 31.9756 13.6545 30.7958 9.42638Z" fill="#95D6A4"/>
<path d="M14.7545 25.5406C14.5971 25.5406 14.4433 25.4934 14.3132 25.4049C14.183 25.3165 14.0824 25.1909 14.0245 25.0446C13.9666 24.8982 13.954 24.7378 13.9885 24.5843C14.0229 24.4307 14.1027 24.291 14.2175 24.1834L24.0476 14.9672C24.3639 14.6706 24.8604 14.6868 25.1568 15.0029C25.4533 15.3191 25.4372 15.8157 25.1211 16.1121L15.2911 25.3283C15.1458 25.4648 14.9539 25.5408 14.7545 25.5406Z" fill="#78C2A4"/>
<path d="M1.17568 8.71439C1.00588 8.76203 0.851199 8.85256 0.726497 8.97726C0.601796 9.10196 0.511271 9.25664 0.463626 9.42644C-0.716225 13.6546 0.355868 18.3792 3.68102 21.7043C7.1502 25.1735 12.1425 26.1902 16.5051 24.7559C17.9395 20.3933 16.9227 15.401 13.4537 11.9318C10.1284 8.60653 5.40383 7.53443 1.17568 8.71439Z" fill="#B3E59F"/>
<path d="M13.4536 11.9317C10.5999 9.07796 6.71561 7.88531 2.99893 8.34985C5.67358 8.68491 8.26109 9.87796 10.3148 11.9317C13.784 15.4007 14.8007 20.3931 13.3662 24.7558C12.5945 25.0088 11.8001 25.1865 10.9941 25.2864C12.8384 25.5179 14.7242 25.3413 16.505 24.7558C17.9395 20.3931 16.9227 15.4008 13.4536 11.9317Z" fill="#95D6A4"/>
<path d="M16.5049 25.5407C16.3056 25.5409 16.1136 25.465 15.9684 25.3284L6.13824 16.1122C5.98866 15.9693 5.90154 15.7732 5.89585 15.5664C5.89016 15.3596 5.96635 15.1589 6.10785 15.008C6.24934 14.8571 6.4447 14.7682 6.65143 14.7605C6.85816 14.7529 7.05954 14.8272 7.21176 14.9673L17.0419 24.1835C17.1567 24.2912 17.2365 24.4308 17.271 24.5844C17.3054 24.738 17.2928 24.8984 17.2349 25.0447C17.177 25.1911 17.0764 25.3166 16.9463 25.4051C16.8161 25.4935 16.6623 25.5408 16.5049 25.5407Z" fill="#78C2A4"/>
<path d="M20.1932 52H31.8068C33.5404 52 34.9456 50.5947 34.9456 48.8612V46.3501H17.0544V48.8611C17.0544 50.5947 18.4596 52 20.1932 52Z" fill="#655E67"/>
<path d="M20.664 47.9197H31.336C41.4483 47.9197 49.6459 39.722 49.6459 29.6098V25.5293H2.35411V29.6098C2.35411 39.722 10.5517 47.9197 20.664 47.9197Z" fill="#C7C2C9"/>
<path d="M46.507 25.5293V29.6098C46.507 39.722 38.3094 47.9197 28.1971 47.9197H31.3359C41.4482 47.9197 49.6458 39.722 49.6458 29.6098V25.5293H46.507ZM20.664 44.5193C13.112 44.5193 6.7471 38.869 5.85853 31.3762C5.83593 31.1705 5.89552 30.9642 6.02433 30.8022C6.15313 30.6402 6.34071 30.5356 6.54624 30.5113C6.75177 30.4869 6.9586 30.5447 7.1217 30.6721C7.28481 30.7995 7.39098 30.9862 7.41711 31.1915C8.21194 37.8949 13.9069 42.9499 20.664 42.9499C20.8721 42.9499 21.0717 43.0326 21.2189 43.1797C21.366 43.3269 21.4487 43.5265 21.4487 43.7346C21.4487 43.9427 21.366 44.1423 21.2189 44.2894C21.0717 44.4366 20.8721 44.5193 20.664 44.5193Z" fill="#A199A4"/>
<path d="M2.40642 27.0987H49.5936C50.9226 27.0987 52 26.0214 52 24.6923C52 23.3633 50.9226 22.2859 49.5936 22.2859H2.40642C1.07737 22.2859 0 23.3633 0 24.6923C0 26.0214 1.07737 27.0987 2.40642 27.0987Z" fill="#655E67"/>
</g>
<defs>
<clipPath id="clip0_484_9422">
<rect width="52" height="52" fill="white"/>
</clipPath>
</defs>
</svg>
