<svg width="52" height="52" viewBox="0 0 52 52" fill="none" xmlns="http://www.w3.org/2000/svg">
<path d="M12.5418 3.23966C8.83365 6.9477 8.83365 12.96 12.5418 16.668L26.0214 30.1477L28.6641 14.3926L26.0214 3.25674C22.3132 -0.451404 16.2499 -0.468582 12.5418 3.23966Z" fill="#FF6C6C"/>
<path d="M39.5009 3.23966C35.7928 -0.468582 29.7296 -0.451404 26.0214 3.25674V30.1477L39.5009 16.6681C43.2092 12.96 43.2092 6.9477 39.5009 3.23966Z" fill="#D84F87"/>
<path d="M51.8593 41.677C51.3519 39.9198 49.596 38.8324 47.7966 39.1613L31.5273 42.1353L0 43.3331V48.516H10.0075L25.4971 51.3188C27.4777 51.6771 29.5137 51.5851 31.4539 51.0494L49.3852 46.0986C51.2971 45.5709 52.4095 43.5828 51.8593 41.677Z" fill="#FFBDA9"/>
<path d="M32.7271 18.6616C30.6633 18.6616 28.9902 20.3347 28.9902 22.3985C28.9902 24.4623 30.6633 26.1354 32.7271 26.1354H37.2038L38.4222 22.3209L37.2038 18.6616H32.7271Z" fill="#FF6C6C"/>
<path d="M41.6801 18.6616H37.2038V26.1354H41.6801C43.7439 26.1354 45.417 24.4623 45.417 22.3985C45.417 20.3347 43.7439 18.6616 41.6801 18.6616Z" fill="#00E6EF"/>
<path d="M28.7221 35.5585H21.9194L21.6468 35.2381C20.9546 34.4246 20.094 33.7713 19.1244 33.3232C18.1548 32.8751 17.0995 32.6431 16.0314 32.6431H13.3102C11.3547 32.6431 9.47935 33.4199 8.0966 34.8026H0V43.3329H28.7221C29.8249 43.3329 30.8197 42.8728 31.5272 42.1351C32.1969 41.4368 32.6092 40.4896 32.6092 39.4456C32.6093 37.2988 30.8689 35.5585 28.7221 35.5585Z" fill="#FFDDCE"/>
<path d="M24.4966 7.98877V10.784H21.7014V13.8334H24.4966V16.6287H26.0213L26.5296 12.0546L26.0213 7.98877H24.4966Z" fill="#FDF1F2"/>
<path d="M27.5461 10.784V7.98877H26.0214V16.6287H27.5461V13.8334H30.3413V10.784H27.5461Z" fill="#EEEEEE"/>
</svg>
