<svg width="45" height="14" viewBox="0 0 45 14" fill="none" xmlns="http://www.w3.org/2000/svg">
<path opacity="0.9" d="M6.144 13.24C5.36533 13.24 4.656 13.112 4.016 12.856C3.376 12.6 2.82667 12.2267 2.368 11.736C1.90933 11.2453 1.552 10.6427 1.296 9.928C1.05067 9.20267 0.928 8.376 0.928 7.448C0.928 6.52 1.06667 5.69867 1.344 4.984C1.632 4.25867 2.016 3.65067 2.496 3.16C2.976 2.66933 3.536 2.296 4.176 2.04C4.816 1.784 5.49867 1.656 6.224 1.656C6.68267 1.656 7.09333 1.688 7.456 1.752C7.82933 1.816 8.14933 1.89067 8.416 1.976C8.69333 2.06133 8.91733 2.14667 9.088 2.232C9.25867 2.31733 9.376 2.38133 9.44 2.424L8.992 3.704C8.896 3.64 8.75733 3.57067 8.576 3.496C8.39467 3.42133 8.18667 3.34667 7.952 3.272C7.728 3.19733 7.47733 3.13867 7.2 3.096C6.93333 3.04267 6.66133 3.016 6.384 3.016C5.79733 3.016 5.26933 3.11733 4.8 3.32C4.33067 3.52267 3.93067 3.816 3.6 4.2C3.26933 4.584 3.01333 5.05333 2.832 5.608C2.66133 6.152 2.576 6.76533 2.576 7.448C2.576 8.10933 2.65067 8.712 2.8 9.256C2.96 9.8 3.19467 10.2693 3.504 10.664C3.81333 11.048 4.19733 11.3467 4.656 11.56C5.12533 11.7733 5.66933 11.88 6.288 11.88C7.00267 11.88 7.59467 11.8053 8.064 11.656C8.53333 11.5067 8.88533 11.3733 9.12 11.256L9.52 12.536C9.44533 12.5893 9.312 12.6587 9.12 12.744C8.928 12.8187 8.688 12.8933 8.4 12.968C8.112 13.0427 7.776 13.1067 7.392 13.16C7.008 13.2133 6.592 13.24 6.144 13.24ZM14.2739 4.504C14.4019 4.504 14.5459 4.51467 14.7059 4.536C14.8765 4.54667 15.0419 4.568 15.2019 4.6C15.3619 4.62133 15.5059 4.648 15.6339 4.68C15.7725 4.70133 15.8739 4.72267 15.9379 4.744L15.6819 6.04C15.5645 5.99733 15.3672 5.94933 15.0899 5.896C14.8232 5.832 14.4765 5.8 14.0499 5.8C13.7725 5.8 13.4952 5.832 13.2179 5.896C12.9512 5.94933 12.7752 5.98667 12.6899 6.008V13H11.2019V5.032C11.5539 4.904 11.9912 4.78667 12.5139 4.68C13.0365 4.56267 13.6232 4.504 14.2739 4.504ZM16.9098 8.856C16.9098 8.12 17.0164 7.48 17.2298 6.936C17.4431 6.38133 17.7258 5.92267 18.0778 5.56C18.4298 5.19733 18.8351 4.92533 19.2938 4.744C19.7524 4.56267 20.2218 4.472 20.7018 4.472C21.8218 4.472 22.6804 4.824 23.2778 5.528C23.8751 6.22133 24.1737 7.28267 24.1737 8.712C24.1737 8.776 24.1737 8.86133 24.1737 8.968C24.1737 9.064 24.1684 9.15467 24.1578 9.24H18.4618C18.5258 10.104 18.7764 10.76 19.2138 11.208C19.6511 11.656 20.3338 11.88 21.2618 11.88C21.7844 11.88 22.2218 11.8373 22.5738 11.752C22.9364 11.656 23.2084 11.5653 23.3898 11.48L23.5978 12.728C23.4164 12.824 23.0964 12.9253 22.6378 13.032C22.1898 13.1387 21.6778 13.192 21.1018 13.192C20.3764 13.192 19.7471 13.0853 19.2138 12.872C18.6911 12.648 18.2591 12.344 17.9178 11.96C17.5764 11.576 17.3204 11.1227 17.1497 10.6C16.9898 10.0667 16.9098 9.48533 16.9098 8.856ZM22.6218 8.04C22.6324 7.368 22.4618 6.81867 22.1098 6.392C21.7684 5.95467 21.2938 5.736 20.6858 5.736C20.3444 5.736 20.0404 5.80533 19.7738 5.944C19.5178 6.072 19.2991 6.24267 19.1178 6.456C18.9364 6.66933 18.7924 6.91467 18.6858 7.192C18.5898 7.46933 18.5258 7.752 18.4938 8.04H22.6218ZM31.6873 6.44C31.5059 6.29067 31.2446 6.14667 30.9033 6.008C30.5619 5.86933 30.1886 5.8 29.7833 5.8C29.3566 5.8 28.9886 5.88 28.6793 6.04C28.3806 6.18933 28.1353 6.40267 27.9433 6.68C27.7513 6.94667 27.6126 7.26667 27.5273 7.64C27.4419 8.01333 27.3993 8.41333 27.3993 8.84C27.3993 9.81067 27.6393 10.5627 28.1193 11.096C28.5993 11.6187 29.2393 11.88 30.0393 11.88C30.4446 11.88 30.7806 11.864 31.0473 11.832C31.3246 11.7893 31.5379 11.7467 31.6873 11.704V6.44ZM31.6873 0.839999L33.1753 0.584V12.76C32.8339 12.856 32.3966 12.952 31.8633 13.048C31.3299 13.144 30.7166 13.192 30.0233 13.192C29.3833 13.192 28.8073 13.0907 28.2953 12.888C27.7833 12.6853 27.3459 12.3973 26.9833 12.024C26.6206 11.6507 26.3379 11.1973 26.1353 10.664C25.9433 10.12 25.8473 9.512 25.8473 8.84C25.8473 8.2 25.9273 7.61333 26.0872 7.08C26.2579 6.54667 26.5033 6.088 26.8233 5.704C27.1433 5.32 27.5326 5.02133 27.9913 4.808C28.4606 4.59467 28.9939 4.488 29.5913 4.488C30.0713 4.488 30.4926 4.552 30.8553 4.68C31.2286 4.808 31.5059 4.93067 31.6873 5.048V0.839999ZM37.2211 13H35.7331V4.68H37.2211V13ZM36.4691 3.176C36.2025 3.176 35.9731 3.09067 35.7811 2.92C35.5998 2.73867 35.5091 2.49867 35.5091 2.2C35.5091 1.90133 35.5998 1.66667 35.7811 1.496C35.9731 1.31467 36.2025 1.224 36.4691 1.224C36.7358 1.224 36.9598 1.31467 37.1411 1.496C37.3331 1.66667 37.4291 1.90133 37.4291 2.2C37.4291 2.49867 37.3331 2.73867 37.1411 2.92C36.9598 3.09067 36.7358 3.176 36.4691 3.176ZM41.172 4.68H44.324V5.928H41.172V9.768C41.172 10.184 41.204 10.5307 41.268 10.808C41.332 11.0747 41.428 11.288 41.556 11.448C41.684 11.5973 41.844 11.704 42.036 11.768C42.228 11.832 42.452 11.864 42.708 11.864C43.156 11.864 43.5133 11.816 43.78 11.72C44.0573 11.6133 44.2493 11.5387 44.356 11.496L44.644 12.728C44.4947 12.8027 44.2333 12.8933 43.86 13C43.4867 13.1173 43.06 13.176 42.58 13.176C42.0147 13.176 41.5453 13.1067 41.172 12.968C40.8093 12.8187 40.516 12.6 40.292 12.312C40.068 12.024 39.908 11.672 39.812 11.256C39.7267 10.8293 39.684 10.3387 39.684 9.784V2.36L41.172 2.104V4.68Z" fill="white"/>
</svg>
