<svg width="137" height="92" viewBox="0 0 137 92" fill="none" xmlns="http://www.w3.org/2000/svg">
<g style="mix-blend-mode:soft-light">
<path d="M-20.6788 -15.0952C-21.1107 -14.9178 -21.5427 -14.7443 -21.9746 -14.5746V-14.4473C-21.4347 -14.6556 -20.8948 -14.8715 -20.3549 -15.0952H-20.6788Z" fill="#052D2E"/>
<path d="M-15.2758 -15.0952H-15.5535C-16.3711 -14.6941 -17.2002 -14.3046 -18.041 -13.9267C-18.3186 -13.8033 -18.5963 -13.6799 -18.874 -13.5565C-19.9075 -13.1091 -20.941 -12.6888 -21.9746 -12.2954V-12.1681C-20.6402 -12.6772 -19.3097 -13.2287 -17.9831 -13.8226C-17.0653 -14.2314 -16.1628 -14.6556 -15.2758 -15.0952Z" fill="#052D2E"/>
<path d="M30.4931 23.3502C38.8463 18.8844 47.0491 14.1178 54.9048 9.13132C62.7489 4.16801 70.3732 -1.08455 77.6041 -6.51064C81.3411 -9.31046 84.9855 -12.1797 88.5489 -15.0952H88.3985C64.0562 4.88532 35.0862 22.3784 4.18406 36.0998C3.01554 36.6089 1.84702 37.1295 0.678501 37.627C-6.72598 40.8433 -14.2924 43.8398 -21.9746 46.5934V46.7553C-13.1933 43.5506 -4.41208 39.9872 4.21877 36.1577C13.162 32.1894 21.9895 27.8855 30.4931 23.3502Z" fill="#052D2E"/>
<path d="M24.986 18.0977C32.4831 14.0599 39.8297 9.74451 46.8524 5.2324C53.8404 0.755005 60.6085 -3.98849 67.0065 -8.89396C69.6559 -10.9186 72.259 -12.9896 74.8159 -15.0952H74.0407C53.0421 2.27061 27.8437 17.8085 1.30325 29.6093C0.238859 30.0798 -0.825535 30.5465 -1.88993 31.0093C-8.51925 33.8785 -15.218 36.551 -21.9746 39.0038V39.0963C-14.1652 36.2502 -6.34419 33.0918 1.33796 29.6788C9.40191 26.0922 17.3386 22.2049 24.986 18.0977Z" fill="#052D2E"/>
<path d="M19.8607 13.2154C26.571 9.58254 33.131 5.68361 39.3785 1.62272C45.5913 -2.41504 51.5843 -6.68419 57.2302 -11.0806C58.9194 -12.3995 60.5854 -13.7377 62.2283 -15.0952H62.0663C43.9253 -0.124278 22.1168 13.1112 -1.38087 23.5585C-2.32957 23.9827 -3.27441 24.3992 -4.2154 24.808C-10.058 27.3302 -15.9816 29.6788 -21.9746 31.8191V31.9695C-15.056 29.4474 -8.13746 26.6591 -1.34616 23.6395C5.89635 20.4232 13.0116 16.9176 19.8607 13.2154Z" fill="#052D2E"/>
<path d="M36.3704 28.9499C45.6376 24.0444 54.7659 18.7919 63.5472 13.3079C72.2937 7.83554 80.8667 2.05079 89.0232 -3.95378C93.9519 -7.56347 98.7763 -11.2888 103.462 -15.0952H103.323C75.2671 7.662 42.2477 27.4921 7.26155 43.0068C5.96577 43.5853 4.68155 44.1522 3.38577 44.7076C-4.88643 48.2941 -13.3553 51.6492 -21.9746 54.7614V54.935C-12.1636 51.3253 -2.35271 47.3454 7.29626 43.0647C17.1766 38.6798 26.9413 33.9479 36.3704 28.9499Z" fill="#052D2E"/>
<path d="M49.1316 41.1094C60.4118 35.2437 71.5764 28.973 82.3823 22.4247C93.2114 15.8763 103.902 8.9115 114.198 1.69213C121.892 -3.71082 129.47 -9.32203 136.84 -15.0952H135.371C97.8739 14.3145 55.7031 39.4897 13.914 57.9778C12.3521 58.6719 10.8018 59.3545 9.23993 60.0256C-0.871815 64.4104 -11.2959 68.5639 -21.9746 72.4628V72.6595C-9.9423 68.1705 2.11312 63.265 13.9372 58.0356C25.8769 52.7484 37.6893 47.0677 49.1316 41.1094Z" fill="#052D2E"/>
<path d="M-1.12635 83.6274C6.27813 80.5962 13.752 77.4262 21.1102 74.1752C28.2139 71.0398 35.3523 67.7657 42.3287 64.4452C49.2241 61.1595 56.1543 57.7465 62.9456 54.2756C69.6906 50.8279 76.4703 47.2414 83.1112 43.6085C89.7405 39.9757 96.4046 36.2041 102.953 32.3746C116.107 24.6693 129.216 16.4781 142 7.95133V6.7134C102.027 33.7976 60.7821 56.6011 21.0871 74.1289C19.236 74.9503 17.3964 75.7602 15.5569 76.5585C3.48988 81.7763 -9.03989 86.7975 -21.9746 91.5873V91.8187C-15.0098 89.1924 -8.0102 86.4388 -1.12635 83.6274Z" fill="#052D2E"/>
<path d="M42.5948 34.885C52.8454 29.5052 62.9571 23.7552 72.7102 17.7506C82.4749 11.746 92.0544 5.38281 101.241 -1.21181C107.488 -5.70078 113.62 -10.3401 119.567 -15.0952H119.439C87.23 10.6354 49.8257 32.9067 10.5126 50.3188C9.08953 50.9551 7.66648 51.5683 6.24343 52.193C-2.93118 56.1614 -12.3488 59.9099 -21.9746 63.4039V63.5774C-11.0761 59.5512 -0.177643 55.1201 10.5357 50.3766C21.4226 45.5521 32.1938 40.3458 42.5948 34.885Z" fill="#052D2E"/>
<path d="M15.1288 8.70325C21.1102 5.44065 26.9528 1.94666 32.5062 -1.7093C38.0017 -5.33055 43.3121 -9.14849 48.2639 -13.0937C49.1046 -13.757 49.9337 -14.4242 50.7513 -15.0952H50.196C34.7623 -2.41504 16.1354 9.07347 -3.86831 17.9704C-4.72446 18.3561 -5.57674 18.734 -6.42517 19.1042C-11.5736 21.3256 -16.7567 23.385 -21.9746 25.2824V25.3749C-15.889 23.1651 -9.80347 20.7124 -3.82204 18.0514C2.65689 15.1706 9.02012 12.0237 15.1288 8.70325Z" fill="#052D2E"/>
<path d="M-4.67818 -15.0952H-4.90957C-8.36885 -12.978 -12.0827 -11.0227 -15.97 -9.27575C-17.9715 -8.3849 -19.9731 -7.57504 -21.9746 -6.83459V-6.69576C-19.9461 -7.45163 -17.9291 -8.27692 -15.9237 -9.17163C-11.967 -10.9418 -8.20688 -12.9201 -4.67818 -15.0952Z" fill="#052D2E"/>
<path d="M6.44011 -14.3085C6.81805 -14.5707 7.19213 -14.833 7.56236 -15.0952H7.24998C1.10658 -10.7451 -5.85827 -6.76517 -13.3669 -3.41002C-16.213 -2.13737 -19.0938 -0.968851 -21.9746 0.0839739V0.199669C-19.0822 -0.864725 -16.1898 -2.03325 -13.3206 -3.31746C-6.22849 -6.47593 0.400833 -10.1666 6.44011 -14.3085Z" fill="#052D2E"/>
<path d="M1.17599 -15.0952H0.886753C-3.86831 -11.9367 -9.13244 -9.02123 -14.7436 -6.51064C-15.1524 -6.32553 -15.5612 -6.14427 -15.97 -5.96688C-17.9715 -5.11073 -19.9731 -4.31244 -21.9746 -3.57199V-3.44472C-19.5373 -4.34715 -17.1115 -5.33441 -14.6974 -6.40652C-9.03988 -8.94024 -3.71791 -11.8558 1.17599 -15.0952Z" fill="#052D2E"/>
<path d="M-10.1158 -15.0952H-10.3704C-12.5107 -13.9036 -14.7552 -12.7813 -17.0691 -11.7401C-18.7004 -11.0112 -20.3317 -10.3401 -21.9746 -9.72696V-9.5997C-20.3163 -10.2245 -18.6657 -10.9032 -17.0228 -11.6359C-14.628 -12.7003 -12.3256 -13.8573 -10.1158 -15.0952Z" fill="#052D2E"/>
<path d="M3.22379 -2.63486C7.41195 -4.94876 11.4728 -7.4362 15.3024 -10.0278C17.7204 -11.6706 20.069 -13.3598 22.325 -15.0952H21.9432C12.6645 -7.93369 1.73133 -1.38535 -10.1158 3.89034C-14.0379 5.63734 -18.0062 7.23393 -21.9746 8.66854V8.79581C-17.9831 7.34962 -13.9916 5.72989 -10.0811 3.9829C-5.51118 1.95823 -1.04536 -0.274681 3.22379 -2.63486Z" fill="#052D2E"/>
<path d="M6.82191 0.789714C11.5423 -1.81343 16.1354 -4.60168 20.4855 -7.51719C24.0952 -9.94679 27.5892 -12.4921 30.8749 -15.0952H30.4468C19.3517 -6.27925 6.11617 1.76155 -8.23002 8.14792C-8.90105 8.44872 -9.57208 8.74568 -10.2431 9.03877C-14.1189 10.7163 -18.041 12.2667 -21.9746 13.6781V13.8054C-17.3468 12.1278 -12.7306 10.2651 -8.18374 8.24047C-3.04688 5.94971 1.99743 3.4507 6.82191 0.789714Z" fill="#052D2E"/>
<path d="M10.7787 4.56137C16.1122 1.64585 21.2954 -1.48948 26.2124 -4.75208C31.0832 -7.99154 35.7457 -11.4045 40.1074 -14.9217C40.1845 -14.9757 40.2578 -15.0335 40.3272 -15.0952H40.1536C26.895 -4.37029 11.0216 5.19769 -6.1475 12.8451C-6.91109 13.1845 -7.67468 13.52 -8.43827 13.8517C-12.9157 15.7838 -17.4393 17.5771 -21.9746 19.2199V19.3241C-16.6526 17.4035 -11.3306 15.2516 -6.10123 12.9261C-0.328045 10.3461 5.35258 7.5463 10.7787 4.56137Z" fill="#052D2E"/>
<path d="M10.6283 -12.2838C11.9703 -13.2017 13.2854 -14.1388 14.5735 -15.0952H14.3884C6.64837 -9.36831 -2.26015 -4.21988 -11.8281 0.0492659C-15.1833 1.54173 -18.5732 2.9185 -21.9746 4.15644V4.27213C-18.5616 3.02263 -15.137 1.64586 -11.7819 0.141822C-3.75262 -3.44473 3.76756 -7.60975 10.6283 -12.2838Z" fill="#052D2E"/>
<path d="M17.4774 65.9838C24.0142 63.0914 30.5857 60.0718 36.9952 57.0059C43.3353 53.9747 49.7101 50.8046 55.9344 47.5999C68.2907 41.2251 80.5544 34.4222 92.4825 27.3185C104.457 20.1917 116.316 12.6137 127.827 4.74643C132.582 1.48383 137.314 -1.84819 142 -5.23805V-5.33061C103.404 22.6213 61.0366 46.6743 17.4543 65.9375C15.742 66.7011 14.0528 67.4416 12.3521 68.1704C1.28011 72.9718 -10.1853 77.5533 -21.9746 81.8803V82.0886C-15.6461 79.7168 -9.27128 77.2294 -3.01218 74.6841C3.81383 71.9074 10.6977 68.9803 17.4774 65.9838Z" fill="#052D2E"/>
</g>
</svg>
