<svg width="90" height="90" viewBox="0 0 90 90" fill="none" xmlns="http://www.w3.org/2000/svg">
<path fill-rule="evenodd" clip-rule="evenodd" d="M73.125 50.0864H16.875V76.1189C16.8749 76.7238 17.0698 77.3126 17.4307 77.798C17.7917 78.2833 18.2996 78.6394 18.8789 78.8133L44.1914 86.4071C44.719 86.5645 45.281 86.5645 45.8086 86.4071L71.1211 78.8133C71.7004 78.6394 72.2083 78.2833 72.5693 77.798C72.9302 77.3126 73.1251 76.7238 73.125 76.1189V50.0864Z" fill="#CADCF0"/>
<path fill-rule="evenodd" clip-rule="evenodd" d="M73.1252 50.0864H45.0002C45.0002 50.0864 44.7273 86.5252 45.0002 86.5252C45.273 86.5252 45.5444 86.4858 45.8088 86.4071L71.1213 78.8133C71.7006 78.6394 72.2084 78.2833 72.5694 77.798C72.9304 77.3126 73.1253 76.7238 73.1252 76.1189V50.0864Z" fill="#A4BBDB"/>
<path fill-rule="evenodd" clip-rule="evenodd" d="M44.9998 59.2116L16.8748 50.0864L9.73808 60.667C9.61609 60.8476 9.53773 61.0541 9.50919 61.2701C9.48064 61.4861 9.5027 61.7058 9.57361 61.9119C9.64452 62.118 9.76235 62.3047 9.91779 62.4574C10.0732 62.6101 10.2621 62.7246 10.4693 62.7919L35.7748 71.0128C36.0647 71.1071 36.3775 71.1046 36.6658 71.0057C36.9542 70.9067 37.2027 70.7168 37.3737 70.4644L44.9998 59.2116ZM73.1248 50.0864L44.9998 59.2116L52.6259 70.4644C52.7969 70.7168 53.0454 70.9067 53.3337 71.0057C53.6221 71.1046 53.9349 71.1071 54.2248 71.0128L79.5303 62.7919C79.7375 62.7246 79.9264 62.6101 80.0818 62.4574C80.2372 62.3047 80.3551 62.118 80.426 61.9119C80.4969 61.7058 80.519 61.4861 80.4904 61.2701C80.4619 61.0541 80.3835 60.8476 80.2615 60.667L73.1248 50.0864Z" fill="#E9F3FC"/>
<path fill-rule="evenodd" clip-rule="evenodd" d="M38.1924 30.9179C38.0211 30.6663 37.7727 30.4771 37.4846 30.3787C37.1966 30.2803 36.8844 30.2781 36.5949 30.3723L11.288 38.5946C11.0806 38.6614 10.8916 38.7756 10.736 38.9282C10.5803 39.0807 10.4624 39.2674 10.3914 39.4735C10.3205 39.6795 10.2985 39.8993 10.3272 40.1153C10.3559 40.3313 10.4345 40.5377 10.5568 40.718L16.8751 50.0865L45.0001 40.9304L38.1924 30.9179Z" fill="#CADCF0"/>
<path fill-rule="evenodd" clip-rule="evenodd" d="M79.4433 40.718C79.565 40.5375 79.6431 40.3312 79.6715 40.1153C79.6999 39.8994 79.6778 39.6799 79.6069 39.4741C79.536 39.2682 79.4183 39.0816 79.263 38.929C79.1077 38.7764 78.9191 38.6619 78.712 38.5946L53.4052 30.3723C53.1157 30.2781 52.8035 30.2803 52.5154 30.3787C52.2274 30.4771 51.979 30.6663 51.8077 30.9179L45 40.9304L73.125 50.0865L79.4433 40.718Z" fill="#E9F3FC"/>
<path fill-rule="evenodd" clip-rule="evenodd" d="M73.125 50.0863L45 40.9302L16.875 50.0863L45 59.2114L73.125 50.0863Z" fill="#CADCF0"/>
<path fill-rule="evenodd" clip-rule="evenodd" d="M45 59.2114V40.9302L16.875 50.0863L45 59.2114Z" fill="#A4BBDB"/>
<path fill-rule="evenodd" clip-rule="evenodd" d="M39.3499 44.969C38.7908 44.6056 38.2622 44.1974 37.7692 43.7484C37.4929 43.5068 37.133 43.3829 36.7666 43.4031C36.4001 43.4233 36.056 43.5859 35.8078 43.8563C35.5596 44.1267 35.427 44.4834 35.4382 44.8503C35.4495 45.2172 35.6037 45.5651 35.868 45.8198C36.4432 46.3485 37.0914 46.852 37.8114 47.3231C38.1236 47.5205 38.5009 47.5872 38.8618 47.5087C39.2227 47.4303 39.5382 47.213 39.7403 46.9039C39.9423 46.5947 40.0146 46.2185 39.9416 45.8564C39.8685 45.4944 39.656 45.1756 39.3499 44.969ZM34.968 40.649C34.5683 40.1105 34.2137 39.54 33.9077 38.9432C33.7385 38.6107 33.4443 38.359 33.0895 38.2435C32.7348 38.128 32.3488 38.1581 32.0163 38.3273C31.6838 38.4964 31.4321 38.7907 31.3166 39.1454C31.2011 39.5001 31.2312 39.8862 31.4003 40.2187C31.7575 40.919 32.1907 41.6207 32.7039 42.3168C32.9279 42.6096 33.2577 42.8027 33.6226 42.8547C33.9875 42.9066 34.3582 42.8133 34.655 42.5947C34.9517 42.3761 35.1508 42.0497 35.2093 41.6859C35.2678 41.322 35.1812 40.9496 34.968 40.649ZM32.9121 34.9101C32.9261 34.3434 33.0091 33.7935 33.161 33.2662C33.2118 33.0886 33.2273 32.9028 33.2063 32.7193C33.1854 32.5358 33.1285 32.3582 33.0389 32.1966C32.9493 32.0351 32.8288 31.8928 32.6842 31.7778C32.5396 31.6629 32.3738 31.5775 32.1963 31.5267C32.0187 31.4758 31.8329 31.4604 31.6494 31.4813C31.4658 31.5023 31.2883 31.5592 31.1267 31.6487C30.9652 31.7383 30.8229 31.8588 30.7079 32.0034C30.593 32.148 30.5076 32.3138 30.4568 32.4913C30.2392 33.256 30.1192 34.0451 30.0996 34.8398C30.0902 35.2127 30.2295 35.5741 30.4866 35.8445C30.7437 36.1148 31.0977 36.2719 31.4707 36.2812C31.8436 36.2905 32.205 36.1513 32.4753 35.8942C32.7456 35.637 32.9027 35.2831 32.9121 34.9101ZM35.0749 30.2132C35.4363 29.8785 35.8413 29.5692 36.2842 29.2893C36.4405 29.1908 36.5758 29.0625 36.6824 28.9117C36.7891 28.7608 36.8649 28.5905 36.9057 28.4104C36.9466 28.2302 36.9515 28.0438 36.9202 27.8618C36.889 27.6797 36.8222 27.5056 36.7237 27.3494C36.6252 27.1932 36.4968 27.0579 36.346 26.9512C36.1952 26.8446 36.0249 26.7687 35.8448 26.7279C35.6646 26.6871 35.4782 26.6822 35.2962 26.7134C35.1141 26.7446 34.94 26.8114 34.7838 26.9099C34.2067 27.2725 33.6644 27.6877 33.1638 28.1503C32.8971 28.4054 32.7414 28.7551 32.7303 29.124C32.7191 29.4929 32.8535 29.8513 33.1043 30.1221C33.3551 30.3928 33.7022 30.5541 34.0709 30.5712C34.4396 30.5882 34.8001 30.4597 35.0749 30.2132ZM40.3047 27.7874C41.047 27.6519 41.7979 27.5692 42.5519 27.5399C42.9157 27.5119 43.2545 27.3436 43.4966 27.0706C43.7388 26.7976 43.8655 26.4413 43.85 26.0767C43.8345 25.7121 43.678 25.3678 43.4135 25.1163C43.1491 24.8649 42.7973 24.7259 42.4324 24.7288C41.5042 24.7682 40.6239 24.8681 39.7928 25.0213C39.426 25.0892 39.1012 25.3 38.8898 25.6074C38.6785 25.9148 38.5979 26.2935 38.6657 26.6603C38.7336 27.0271 38.9444 27.352 39.2518 27.5633C39.5592 27.7747 39.9379 27.8553 40.3047 27.7874ZM47.6341 27.7045C48.8336 27.7185 49.9502 27.6763 50.9866 27.5849C51.3547 27.5477 51.6932 27.3668 51.9289 27.0817C52.1646 26.7965 52.2784 26.4299 52.2456 26.0614C52.2129 25.6929 52.0362 25.3521 51.754 25.113C51.4717 24.8738 51.1066 24.7555 50.7377 24.7837C49.7885 24.8667 48.7661 24.906 47.6664 24.892C47.2935 24.8877 46.9341 25.0317 46.6673 25.2924C46.4006 25.5531 46.2483 25.9091 46.244 26.2821C46.2397 26.655 46.3838 27.0144 46.6445 27.2812C46.9052 27.5479 47.2611 27.7002 47.6341 27.7045ZM55.6089 26.7229C57.0011 26.2968 58.1767 25.7512 59.1611 25.1254C59.3169 25.0262 59.4516 24.8972 59.5575 24.7459C59.6634 24.5945 59.7385 24.4239 59.7785 24.2435C59.8184 24.0632 59.8225 23.8767 59.7904 23.6948C59.7583 23.5129 59.6907 23.3392 59.5914 23.1834C59.4922 23.0276 59.3632 22.8929 59.2119 22.787C59.0606 22.6811 58.8899 22.606 58.7095 22.566C58.5292 22.5261 58.3428 22.522 58.1609 22.5541C57.979 22.5862 57.8052 22.6538 57.6494 22.7531C56.7569 23.3065 55.7939 23.7369 54.7863 24.0328C54.4295 24.1418 54.1308 24.3882 53.9556 24.7176C53.7805 25.047 53.7434 25.4324 53.8525 25.7892C53.9616 26.1459 54.208 26.4447 54.5373 26.6198C54.8667 26.7949 55.2522 26.832 55.6089 26.7229ZM62.7667 21.1893C63.3995 19.875 63.693 18.4232 63.6203 16.9664C63.6118 16.7819 63.5669 16.6009 63.4884 16.4337C63.4098 16.2666 63.2992 16.1165 63.1626 15.9921C63.0261 15.8677 62.8664 15.7715 62.6927 15.7088C62.519 15.6461 62.3346 15.6183 62.1501 15.6269C61.9656 15.6355 61.7846 15.6803 61.6175 15.7589C61.4503 15.8374 61.3003 15.9481 61.1759 16.0846C61.0515 16.2211 60.9552 16.3808 60.8926 16.5545C60.8299 16.7283 60.8021 16.9126 60.8107 17.0971C60.8612 18.0865 60.663 19.0728 60.2341 19.9659C60.0906 20.2991 60.0812 20.6748 60.208 21.0147C60.3348 21.3546 60.588 21.6325 60.9146 21.7903C61.2413 21.9481 61.6163 21.9737 61.9614 21.8617C62.3064 21.7497 62.595 21.5089 62.7667 21.1893ZM61.871 11.9939C60.8458 10.6087 59.455 9.64401 57.9391 9.33323C57.5793 9.27232 57.2099 9.35351 56.9089 9.55967C56.6078 9.76583 56.3985 10.0809 56.3252 10.4383C56.2519 10.7958 56.3202 11.1677 56.5159 11.4758C56.7115 11.7838 57.0191 12.0038 57.3738 12.0895C58.2485 12.2681 59.0191 12.8685 59.6111 13.6687C59.7211 13.8171 59.8592 13.9423 60.0176 14.0374C60.176 14.1324 60.3515 14.1952 60.5342 14.2224C60.7169 14.2496 60.9031 14.2405 61.0823 14.1957C61.2615 14.1508 61.4301 14.0712 61.5785 13.9612C61.7269 13.8512 61.8521 13.7131 61.9471 13.5547C62.0421 13.3963 62.105 13.2208 62.1322 13.0381C62.1593 12.8554 62.1502 12.6692 62.1054 12.49C62.0606 12.3108 61.9809 12.1422 61.871 11.9939Z" fill="#347BFA"/>
<path fill-rule="evenodd" clip-rule="evenodd" d="M43.4995 9.60606C45.0211 0.989965 58.2075 1.54684 50.5308 9.60606H43.4995ZM43.4995 11.7886C45.0211 20.4032 58.2075 19.8478 50.5308 11.7886H43.4995Z" fill="#CADCF0"/>
<path fill-rule="evenodd" clip-rule="evenodd" d="M43.3731 12.1177H52.7893C53.1623 12.1177 53.52 11.9695 53.7837 11.7058C54.0474 11.4421 54.1956 11.0844 54.1956 10.7114C54.1956 10.3385 54.0474 9.98078 53.7837 9.71706C53.52 9.45333 53.1623 9.30518 52.7893 9.30518H43.3731C43.011 9.32137 42.6691 9.47661 42.4186 9.73856C42.1681 10.0005 42.0283 10.349 42.0283 10.7114C42.0283 11.0739 42.1681 11.4223 42.4186 11.6843C42.6691 11.9462 43.011 12.1015 43.3731 12.1177Z" fill="#347BFA"/>
</svg>
