<svg width="164" height="41" viewBox="0 0 164 41" fill="none" xmlns="http://www.w3.org/2000/svg">
<g clip-path="url(#clip0_2_12133)">
<path fill-rule="evenodd" clip-rule="evenodd" d="M8.65417 3.89151C7.22351 4.89187 5.92981 6.07462 4.80676 7.40604C9.39606 6.97997 15.2266 7.67568 21.9958 11.0603C29.2244 14.6745 35.0452 14.7967 39.0962 14.0153C38.7286 12.9024 38.2658 11.8328 37.7177 10.816C33.0804 11.3051 27.1354 10.6577 20.207 7.19362C15.8074 4.99382 11.9292 4.08765 8.65417 3.89151ZM35.0088 6.96029C31.3467 2.86864 26.0248 0.29364 20.1014 0.29364C18.3619 0.29364 16.6741 0.515747 15.0651 0.93312C17.2443 1.52773 19.5593 2.39763 21.9958 3.61591C27.0684 6.15217 31.4478 6.9688 35.0088 6.96029ZM39.9623 17.9217C35.0683 18.8881 28.3102 18.6896 20.207 14.638C12.6314 10.8502 6.60187 10.8979 2.53534 11.8016C2.32544 11.8482 2.12048 11.8972 1.92047 11.9482C1.38806 13.1061 0.963074 14.3237 0.658142 15.5881C0.983826 15.5011 1.32037 15.4184 1.6676 15.3412C6.60101 14.2449 13.5715 14.2925 21.9958 18.5047C29.5715 22.2925 35.601 22.2448 39.6676 21.3411C39.8069 21.3102 39.9442 21.2782 40.0792 21.2452C40.094 20.9299 40.1014 20.6126 40.1014 20.2936C40.1014 19.4911 40.0542 18.6996 39.9623 17.9217ZM39.4262 25.4659C34.5797 26.3132 28.0184 25.988 20.207 22.0824C12.6314 18.2946 6.60187 18.3423 2.53534 19.246C1.63269 19.4465 0.820679 19.6908 0.10437 19.9487C0.102417 20.0634 0.10144 20.1784 0.10144 20.2936C0.10144 31.3393 9.05573 40.2936 20.1014 40.2936C29.3585 40.2936 37.1467 34.0045 39.4262 25.4659Z" fill="#10847E"/>
<path d="M61.8774 13.0849V16.4263H56.8529V28.642H53.1148V16.4263H48.1014V13.0849H61.8774Z" fill="#10847E"/>
<path d="M70.7882 17.0013V17.023C72.2724 17.023 73.3939 17.4786 74.1415 18.3791C74.8891 19.2795 75.2629 20.5054 75.2629 22.0568V28.6528H71.6677V22.762C71.6677 21.1238 70.9861 20.2993 69.6118 20.2993C68.9191 20.2993 68.3804 20.5488 67.9846 21.0479C67.5888 21.5469 67.3909 22.2304 67.3909 23.1091V28.642H63.7847V12.4231H67.3909V18.4876C68.2595 17.5003 69.3919 17.0013 70.7882 17.0013Z" fill="#10847E"/>
<path d="M83.7119 28.9566L83.7009 28.9675C81.8209 28.9675 80.3036 28.4142 79.1382 27.3076C77.9728 26.201 77.3901 24.769 77.3901 23.0006C77.3901 21.2648 77.9508 19.8328 79.0723 18.7045C80.1937 17.5763 81.6559 17.0121 83.47 17.0121C85.3171 17.0121 86.7794 17.5654 87.8568 18.672C88.9343 19.7786 89.473 21.178 89.473 22.8705C89.473 23.3153 89.44 23.7058 89.385 24.0421H80.8973C81.1722 25.344 82.1287 25.9949 83.7669 25.9949C84.8663 25.9949 85.6359 25.6152 86.0647 24.8449L89.3081 25.7779C88.9453 26.5916 88.2746 27.3293 87.2851 27.9802C86.2956 28.6311 85.1082 28.9566 83.7119 28.9566ZM80.9083 21.9158H85.9658C85.9108 21.3842 85.6579 20.9285 85.1962 20.5488C84.7344 20.1691 84.1517 19.9847 83.448 19.9847C82.7444 19.9847 82.1617 20.18 81.7109 20.5597C81.2601 20.9394 80.9963 21.395 80.9083 21.9158Z" fill="#10847E"/>
<path d="M110.549 13.0849H114.111V28.642H110.373V19.529L105.733 25.7779L101.116 19.529V28.642H97.3775V13.0849H100.929L105.755 19.9955L110.549 13.0849Z" fill="#10847E"/>
<path d="M122.67 28.9566L122.659 28.9675C120.779 28.9675 119.262 28.4142 118.096 27.3076C116.931 26.201 116.348 24.769 116.348 23.0006C116.348 21.2648 116.909 19.8328 118.03 18.7045C119.152 17.5763 120.614 17.0121 122.428 17.0121C124.275 17.0121 125.737 17.5654 126.815 18.672C127.892 19.7786 128.431 21.178 128.431 22.8705C128.431 23.3153 128.398 23.7058 128.343 24.0421H119.855C120.13 25.344 121.087 25.9949 122.725 25.9949C123.824 25.9949 124.594 25.6152 125.023 24.8449L128.266 25.7779C127.903 26.5916 127.233 27.3293 126.243 27.9802C125.254 28.6311 124.066 28.9566 122.67 28.9566ZM119.866 21.9158H124.924C124.869 21.3842 124.616 20.9285 124.154 20.5488C123.692 20.1691 123.11 19.9847 122.406 19.9847C121.703 19.9847 121.12 20.18 120.669 20.5597C120.218 20.9394 119.954 21.395 119.866 21.9158Z" fill="#10847E"/>
<path d="M138.914 12.4231H142.509V28.642H138.903V27.6005C138.035 28.501 136.935 28.9566 135.605 28.9566C134.044 28.9566 132.724 28.3816 131.647 27.2425C130.569 26.1034 130.031 24.6822 130.031 22.9789C130.031 21.2757 130.569 19.8545 131.647 18.7154C132.724 17.5763 134.044 17.0013 135.605 17.0013C136.968 17.0013 138.067 17.4569 138.914 18.3574V12.4231ZM136.253 25.7996L136.242 25.8105C137.045 25.8105 137.705 25.5501 138.221 25.0185C138.738 24.4869 139.002 23.8034 139.002 22.9681C139.002 22.1327 138.738 21.4601 138.221 20.9394C137.705 20.4186 137.045 20.1583 136.253 20.1583C135.473 20.1583 134.835 20.4186 134.329 20.9394C133.824 21.4601 133.571 22.1327 133.571 22.9681C133.571 23.8143 133.824 24.4978 134.329 25.0185C134.835 25.5392 135.473 25.7996 136.253 25.7996Z" fill="#10847E"/>
<path d="M147.209 16.0032L147.187 15.9923C146.615 15.9923 146.132 15.7971 145.725 15.4065C145.318 15.016 145.12 14.5386 145.12 13.9745C145.12 13.4212 145.329 12.9547 145.736 12.575C146.143 12.1953 146.626 12 147.198 12C147.77 12 148.254 12.1953 148.66 12.5858C149.067 12.9764 149.276 13.4429 149.276 13.9853C149.276 14.5495 149.078 15.0268 148.671 15.4174C148.265 15.8079 147.781 16.0032 147.209 16.0032ZM145.34 28.6311V17.305H148.935V28.6311H145.34Z" fill="#10847E"/>
<path d="M157.406 28.9566L157.395 29C155.625 29 154.152 28.425 152.987 27.2859C151.821 26.1468 151.238 24.7256 151.238 23.0223C151.238 21.3191 151.821 19.8979 152.976 18.7588C154.13 17.6197 155.581 17.0447 157.329 17.0447C158.858 17.0447 160.144 17.4352 161.177 18.2163C162.211 18.9974 162.849 19.887 163.09 20.8743L159.759 21.8073C159.66 21.3625 159.385 20.9828 158.945 20.6573C158.506 20.3318 157.978 20.1691 157.362 20.1691C156.582 20.1691 155.955 20.4403 155.471 20.9828C154.987 21.5252 154.746 22.187 154.746 22.9681C154.746 23.7492 154.987 24.4218 155.471 24.986C155.955 25.5501 156.582 25.8322 157.362 25.8322C157.978 25.8322 158.506 25.6694 158.945 25.3548C159.385 25.0402 159.66 24.6605 159.77 24.2265L163.101 25.1595C162.86 26.1468 162.233 27.0255 161.21 27.7958C160.188 28.566 158.924 28.9566 157.406 28.9566Z" fill="#10847E"/>
</g>
<defs>
<clipPath id="clip0_2_12133">
<rect width="164" height="41" fill="white"/>
</clipPath>
</defs>
</svg>
