<svg width="87" height="87" viewBox="0 0 87 87" fill="none" xmlns="http://www.w3.org/2000/svg">
<path d="M75.7835 71.6527C81.6259 64.4852 85.1309 55.3371 85.1309 45.3691C85.1309 22.377 66.4921 3.73828 43.5 3.73828C20.5079 3.73828 1.86914 22.377 1.86914 45.3691C1.86914 55.3371 5.37412 64.4852 11.2165 71.6527H75.7835Z" fill="#10847E"/>
<path d="M75.7852 28.5571V71.6527C68.1523 81.0187 56.5245 87 43.5 87C30.4755 87 18.8477 81.0187 11.2148 71.6527V5.09766C11.2148 2.28205 13.4969 0 16.3125 0H47.2281C55.1142 0 62.2526 3.19623 67.4216 8.36355C69.5865 10.5275 71.3902 13.0248 72.7639 15.7603C74.6977 19.609 75.7852 23.9556 75.7852 28.5571Z" fill="#EEFAFD"/>
<path d="M29.9062 0C27.0906 0 24.8086 2.28205 24.8086 5.09766V82.5786C19.5376 79.9262 14.9089 76.1862 11.2148 71.6527V5.09766C11.2148 2.28205 13.4969 0 16.3125 0H29.9062Z" fill="#B0E1F1"/>
<path d="M65.5898 38.322H21.4102C20.7063 38.322 20.1357 37.7516 20.1357 37.0476C20.1357 36.3436 20.7063 35.7732 21.4102 35.7732H65.5898C66.2937 35.7732 66.8643 36.3436 66.8643 37.0476C66.8643 37.7516 66.2937 38.322 65.5898 38.322ZM65.5898 46.8181H21.4102C20.7063 46.8181 20.1357 46.2477 20.1357 45.5437C20.1357 44.8397 20.7063 44.2693 21.4102 44.2693H65.5898C66.2937 44.2693 66.8643 44.8397 66.8643 45.5437C66.8643 46.2477 66.2937 46.8181 65.5898 46.8181ZM65.5898 55.3142H21.4102C20.7063 55.3142 20.1357 54.7438 20.1357 54.0398C20.1357 53.3358 20.7063 52.7654 21.4102 52.7654H65.5898C66.2937 52.7654 66.8643 53.3358 66.8643 54.0398C66.8643 54.7438 66.2937 55.3142 65.5898 55.3142ZM65.5898 63.8103H21.4102C20.7063 63.8103 20.1357 63.2399 20.1357 62.5359C20.1357 61.8319 20.7063 61.2615 21.4102 61.2615H65.5898C66.2937 61.2615 66.8643 61.8319 66.8643 62.5359C66.8643 63.2399 66.2937 63.8103 65.5898 63.8103ZM43.5 72.3064H21.4102C20.7063 72.3064 20.1357 71.736 20.1357 71.032C20.1357 70.328 20.7063 69.7576 21.4102 69.7576H43.5C44.2038 69.7576 44.7744 70.328 44.7744 71.032C44.7744 71.736 44.2038 72.3064 43.5 72.3064ZM65.5898 29.8259H43.5C42.7962 29.8259 42.2256 29.2555 42.2256 28.5515C42.2256 27.8475 42.7962 27.2771 43.5 27.2771H65.5898C66.2937 27.2771 66.8643 27.8475 66.8643 28.5515C66.8643 29.2555 66.2937 29.8259 65.5898 29.8259Z" fill="#B0E1F1"/>
<path d="M67.2836 20.0554H61.3975C58.2674 20.0554 55.7298 17.5179 55.7298 14.3876V8.50153C55.7298 3.80625 51.9236 0 47.2283 0C62.9999 0 75.7852 12.7853 75.7852 28.5569C75.7852 23.8616 71.9789 20.0554 67.2836 20.0554Z" fill="#B0E1F1"/>
<path d="M32.9864 28.4619C32.8053 28.4622 32.6261 28.4237 32.4611 28.3491C32.296 28.2746 32.1488 28.1655 32.0292 28.0294L24.8915 19.9194C24.7801 19.7939 24.6945 19.6476 24.6398 19.489C24.585 19.3303 24.5622 19.1624 24.5725 18.9949C24.5828 18.8274 24.6261 18.6636 24.6999 18.5129C24.7737 18.3621 24.8765 18.2275 25.0025 18.1166C25.1285 18.0057 25.2751 17.9208 25.434 17.8667C25.5929 17.8127 25.7609 17.7905 25.9284 17.8016C26.0958 17.8126 26.2595 17.8567 26.4099 17.9311C26.5603 18.0056 26.6945 18.109 26.8048 18.2355L33.9426 26.3455C34.0531 26.4711 34.1379 26.6173 34.192 26.7757C34.2461 26.9341 34.2684 27.1015 34.2578 27.2686C34.2471 27.4356 34.2037 27.5989 34.1299 27.7491C34.0562 27.8993 33.9535 28.0336 33.8279 28.1441C33.5956 28.3492 33.2963 28.4622 32.9864 28.4619Z" fill="#218EB9"/>
<path d="M27.4646 28.4619C27.2195 28.4618 26.9797 28.391 26.7738 28.2581C26.5679 28.1251 26.4047 27.9356 26.3038 27.7122C26.2029 27.4888 26.1685 27.2411 26.2048 26.9987C26.2411 26.7563 26.3466 26.5295 26.5085 26.3455L32.0293 20.0727C32.1396 19.9462 32.2738 19.8428 32.4242 19.7683C32.5746 19.6939 32.7382 19.6499 32.9057 19.6388C33.0732 19.6278 33.2412 19.6499 33.4001 19.704C33.5589 19.758 33.7056 19.8429 33.8316 19.9538C33.9575 20.0647 34.0604 20.1994 34.1342 20.3501C34.208 20.5008 34.2513 20.6646 34.2616 20.8322C34.2719 20.9997 34.249 21.1676 34.1943 21.3262C34.1395 21.4849 34.054 21.6311 33.9426 21.7566L28.4218 28.0295C28.3023 28.1656 28.1551 28.2746 27.99 28.3492C27.8249 28.4238 27.6458 28.4622 27.4646 28.4619ZM21.4102 28.4619C21.0722 28.4619 20.748 28.3276 20.509 28.0886C20.27 27.8496 20.1357 27.5255 20.1357 27.1875V10.1953C20.1357 9.49133 20.7063 8.9209 21.4102 8.9209C22.114 8.9209 22.6846 9.49133 22.6846 10.1953V27.1875C22.6846 27.5255 22.5503 27.8496 22.3113 28.0886C22.0723 28.3276 21.7482 28.4619 21.4102 28.4619Z" fill="#218EB9"/>
<path d="M26.1714 20.3215H21.5857C20.8819 20.3215 20.3113 19.751 20.3113 19.0471C20.3113 18.3431 20.8819 17.7726 21.5857 17.7726H26.1714C27.909 17.7726 29.3227 16.3589 29.3227 14.6211C29.3227 12.8833 27.909 11.4697 26.1714 11.4697H21.5857C20.8819 11.4697 20.3113 10.8993 20.3113 10.1953C20.3113 9.49133 20.8819 8.9209 21.5857 8.9209H26.1714C29.3144 8.9209 31.8716 11.4781 31.8716 14.6211C31.8714 17.7643 29.3144 20.3215 26.1714 20.3215Z" fill="#218EB9"/>
<path d="M64.1077 72.7312C67.8615 72.7312 70.9045 69.6881 70.9045 65.9343C70.9045 62.1805 67.8615 59.1375 64.1077 59.1375C60.3539 59.1375 57.3108 62.1805 57.3108 65.9343C57.3108 69.6881 60.3539 72.7312 64.1077 72.7312Z" fill="#73C3F9"/>
<path d="M62.6325 65.9343C62.6325 63.1248 64.3372 60.714 66.7684 59.6785C65.927 59.3204 65.0218 59.1364 64.1074 59.1375C60.3537 59.1375 57.3105 62.1806 57.3105 65.9343C57.3105 69.6881 60.3537 72.7312 64.1074 72.7312C65.0518 72.7312 65.9511 72.5382 66.7684 72.1902C64.3372 71.1547 62.6325 68.7437 62.6325 65.9343Z" fill="#4FABF7"/>
<path d="M57.3108 65.9343C57.3108 66.2808 57.3371 66.6213 57.3871 66.9539H70.8281C70.93 66.278 70.93 65.5907 70.8281 64.9148H57.3871C57.3362 65.2523 57.3107 65.5931 57.3108 65.9343Z" fill="#2E8BE6"/>
<path d="M71.3457 52.3406C75.0995 52.3406 78.1426 49.2975 78.1426 45.5437C78.1426 41.7899 75.0995 38.7468 71.3457 38.7468C67.5919 38.7468 64.5488 41.7899 64.5488 45.5437C64.5488 49.2975 67.5919 52.3406 71.3457 52.3406Z" fill="#F75418"/>
<path d="M69.8705 45.5437C69.8705 42.7342 71.5752 40.3234 74.0064 39.2879C73.165 38.9298 72.2599 38.7458 71.3455 38.7468C67.5917 38.7468 64.5486 41.79 64.5486 45.5437C64.5486 49.2975 67.5917 52.3406 71.3455 52.3406C72.2899 52.3406 73.1891 52.1475 74.0064 51.7995C71.5752 50.764 69.8705 48.353 69.8705 45.5437Z" fill="#FA814A"/>
<path d="M64.5488 45.5437C64.5488 45.8902 64.5752 46.2307 64.6251 46.5632H78.0661C78.168 45.8874 78.168 45.2 78.0661 44.5242H64.6251C64.5744 44.8616 64.5489 45.2024 64.5488 45.5437Z" fill="#FCA775"/>
</svg>
