<svg width="36" height="36" viewBox="0 0 36 36" fill="none" xmlns="http://www.w3.org/2000/svg">
<g clip-path="url(#clip0_133_2428)">
<path d="M30.7213 30.7252C37.7522 23.6942 37.7547 12.2972 30.7268 5.26934C23.6989 -1.75855 12.302 -1.75606 5.27099 5.27491C-1.75999 12.3059 -1.76248 23.7029 5.26542 30.7308C12.2933 37.7587 23.6903 37.7562 30.7213 30.7252Z" fill="#FFE7D5"/>
<path d="M7.49451 28.0464L15.2387 35.7906C16.1512 35.9305 17.073 36.0005 17.9961 36.0001C27.9372 35.9979 35.9978 27.9373 36 17.9962C35.9996 17.7469 35.9941 17.4976 35.9836 17.2485L25.0634 6.32837L7.49451 28.0464Z" fill="#FDCCAB"/>
<path d="M7.49451 6.32837H25.0634V28.0464H7.49451V6.32837Z" fill="#EEF4FF"/>
<path d="M16.3199 6.32837H25.0634V28.0464H16.3199V6.32837Z" fill="#D6E9F8"/>
<path d="M10.6811 13.2038H9.52393V8.31519H11.549C12.5179 8.31519 13.306 9.10342 13.306 10.0722C13.306 11.041 12.5179 11.8292 11.549 11.8292H10.6811V13.2038ZM10.6811 10.672H11.549C11.8798 10.672 12.1488 10.403 12.1488 10.0723C12.1488 9.7415 11.8798 9.4725 11.549 9.4725H10.6811V10.672Z" fill="#2681FF"/>
<path d="M14.4303 15.6299L10.7809 11.2671L12.0374 10.8936L15.9284 15.6308L14.4303 15.6299Z" fill="#2681FF"/>
<path d="M12.4907 15.6307H10.9797L14.3593 11.6055H15.8702L12.4907 15.6307Z" fill="#2681FF"/>
<path d="M27.2961 20.7754V18.418H22.8305V20.7754L21.5199 21.7728V28.7234L22.1841 29.7208H27.9425L28.6067 28.7234V21.7728L27.2961 20.7754Z" fill="#FFE377"/>
<path d="M21.7527 17.0288H28.3741V19.8068H21.7527V17.0288Z" fill="#FF6379"/>
<path d="M27.2962 18.418H25.0634V29.7208H27.9425L28.6068 28.7234V21.7728L27.2962 20.7754V18.418Z" fill="#EDBE00"/>
<path d="M22.469 22.6072H27.5407V27.6789H22.469V22.6072Z" fill="#00DDC1"/>
<path d="M25.0634 22.6072H27.5407V27.6789H25.0634V22.6072Z" fill="#00BAA0"/>
<path d="M25.0435 26.8017C25.952 26.8017 26.6885 26.0652 26.6885 25.1567C26.6885 24.2482 25.952 23.5117 25.0435 23.5117C24.135 23.5117 23.3986 24.2482 23.3986 25.1567C23.3986 26.0652 24.135 26.8017 25.0435 26.8017Z" fill="#EEF4FF"/>
<path d="M25.0436 26.8017C25.9521 26.8017 26.6885 26.0652 26.6885 25.1567C26.6885 24.2482 25.9521 23.5117 25.0436 23.5117V26.8017Z" fill="#D6E9F8"/>
<path d="M23.3986 25.1569C23.3986 25.3414 23.4294 25.5187 23.4855 25.6843H26.6015C26.7175 25.3422 26.7175 24.9715 26.6015 24.6294H23.4855C23.4279 24.7993 23.3985 24.9775 23.3986 25.1569Z" fill="#D6E9F8"/>
<path d="M26.6833 25.032C26.6828 25.0251 26.6823 25.0181 26.6817 25.0112C26.6781 24.9702 26.673 24.9294 26.6663 24.8888L26.665 24.8812C26.6505 24.7957 26.6293 24.7115 26.6015 24.6294H25.0435V25.6843H26.6015C26.629 25.603 26.6502 25.5189 26.665 25.4325L26.6663 25.4249C26.673 25.3846 26.678 25.3437 26.6817 25.3024C26.6823 25.2955 26.6827 25.2885 26.6833 25.2816C26.6865 25.2404 26.6885 25.1989 26.6885 25.1569C26.6883 25.1152 26.6866 25.0736 26.6833 25.032Z" fill="#B2D7F3"/>
<path d="M25.0634 17.0288H28.374V19.8068H25.0634V17.0288Z" fill="#FF415B"/>
<path d="M9.52393 18.1523H20.1198V19.2073H9.52393V18.1523ZM9.52393 21.1271H20.1198V22.182H9.52393V21.1271ZM9.52393 24.1019H20.1198V25.1568H9.52393V24.1019Z" fill="#2681FF"/>
<path d="M16.3199 18.1523H20.1199V19.2073H16.3199V18.1523ZM16.3199 21.1271H20.1199V22.182H16.3199V21.1271ZM16.3199 24.1019H20.1199V25.1568H16.3199V24.1019Z" fill="#005FE0"/>
</g>
<defs>
<clipPath id="clip0_133_2428">
<rect width="36" height="36" fill="white"/>
</clipPath>
</defs>
</svg>
