<svg width="42" height="14" viewBox="0 0 42 14" fill="none" xmlns="http://www.w3.org/2000/svg">
<path d="M6.10864 6.4317C6.13048 6.17648 6.10537 5.91848 6.12393 5.65103C6.1665 5.64492 6.20307 5.63491 6.24018 5.63491C6.83891 5.6338 7.43819 5.63435 8.03693 5.63491C8.0664 5.63491 8.09587 5.64158 8.12043 5.64436C8.12807 5.6527 8.13135 5.65604 8.13353 5.65937C8.13626 5.66271 8.13953 5.6666 8.14008 5.67049C8.14336 5.68773 8.14772 5.70497 8.14772 5.7222C8.14827 8.28161 8.14772 10.8416 8.14772 13.401C8.14772 13.4182 8.14336 13.4355 8.13844 13.4666C8.10351 13.4716 8.06749 13.4816 8.03092 13.4816C7.43219 13.4827 6.83291 13.4822 6.23418 13.4816C6.2047 13.4816 6.17523 13.4749 6.13157 13.4699C6.12666 13.4227 6.11847 13.3765 6.11792 13.3304C6.11629 13.133 6.11792 12.935 6.11683 12.7376C6.11629 12.692 6.10864 12.6464 6.10155 12.5742C6.03878 12.6214 5.99785 12.6503 5.9591 12.682C5.60324 12.9745 5.20754 13.1925 4.77146 13.3331C4.52039 13.4143 4.26278 13.4577 3.99971 13.4827C3.48557 13.5316 2.98344 13.4699 2.49769 13.3048C1.47924 12.9589 0.779535 12.2633 0.384382 11.248C0.235927 10.866 0.146962 10.469 0.120764 10.0592C0.106028 9.83182 0.0907459 9.60329 0.0994786 9.37588C0.133318 8.50458 0.39366 7.71224 0.936177 7.03054C1.54692 6.26322 2.34268 5.81506 3.29782 5.67161C3.92875 5.57652 4.55259 5.62101 5.14969 5.87511C5.42913 5.9941 5.69275 6.14145 5.93181 6.33273C5.97875 6.37054 6.02678 6.40612 6.07426 6.44282C6.08572 6.44004 6.09718 6.43615 6.10864 6.4317ZM3.93421 7.51874C3.84907 7.5293 3.72354 7.53597 3.60182 7.561C2.561 7.77896 1.89459 8.77759 2.00429 9.84795C2.06487 10.4412 2.32413 10.9389 2.79351 11.3042C3.30491 11.7023 3.87909 11.8246 4.49965 11.6345C5.47007 11.337 6.04861 10.3406 5.90616 9.31138C5.83848 8.82207 5.62453 8.40449 5.26922 8.06309C4.90517 7.71335 4.47072 7.54209 3.93421 7.51874Z" fill="#A01975"/>
<path d="M36.2015 10.3391C35.5875 10.3391 34.9887 10.3391 34.39 10.3391C33.7913 10.3391 33.192 10.3391 32.5932 10.3391C31.9956 10.3391 31.3985 10.3391 30.7867 10.3391C30.7954 10.3942 30.796 10.4281 30.8058 10.4592C30.8876 10.7161 31.0306 10.9319 31.2348 11.1048C31.5388 11.3628 31.8941 11.4923 32.2832 11.5452C32.7935 11.6141 33.2886 11.5507 33.77 11.3739C34.0603 11.2671 34.33 11.1231 34.5384 10.8818C34.5466 10.8724 34.5597 10.8685 34.5859 10.8529C35.0193 11.2788 35.4428 11.7192 35.886 12.1624C35.773 12.2914 35.6628 12.4059 35.54 12.5082C35.0471 12.918 34.4839 13.1821 33.8709 13.3406C33.532 13.4279 33.1876 13.4724 32.8372 13.4857C32.233 13.5085 31.6441 13.4334 31.0727 13.2299C30.5482 13.0431 30.0848 12.7551 29.6956 12.3481C29.3665 12.0039 29.1209 11.6052 28.9495 11.1576C28.717 10.5499 28.6477 9.91821 28.6717 9.27099C28.693 8.70218 28.812 8.15727 29.0576 7.64572C29.4779 6.76997 30.1525 6.1828 31.0508 5.85808C31.4018 5.73131 31.7647 5.66625 32.1353 5.63233C32.6593 5.58451 33.1761 5.62232 33.6865 5.74576C34.5019 5.94371 35.1705 6.37074 35.6404 7.09024C35.934 7.53952 36.0989 8.04161 36.1856 8.57095C36.249 8.95684 36.2741 9.34606 36.2615 9.7375C36.2566 9.89097 36.2451 10.0439 36.2337 10.1968C36.2293 10.2402 36.2146 10.2813 36.2015 10.3391ZM30.8369 8.56261C30.8778 8.57318 30.898 8.58152 30.9188 8.58318C30.9531 8.58596 30.9875 8.58541 31.0219 8.58541C32.0338 8.58541 33.0452 8.58596 34.0571 8.58485C34.1149 8.58485 34.1728 8.57596 34.2361 8.57095C34.2344 8.53314 34.2372 8.5109 34.2317 8.49088C34.1531 8.21843 34.0145 7.98656 33.7885 7.81364C33.621 7.6852 33.4332 7.59957 33.2307 7.5473C32.8405 7.44666 32.447 7.43832 32.0551 7.53062C31.5573 7.64739 31.1638 7.91484 30.9155 8.38135C30.8871 8.43472 30.8669 8.492 30.8369 8.56261Z" fill="#A01975"/>
<path d="M27.233 10.8448C27.692 11.3001 28.1445 11.7483 28.6079 12.2076C28.4916 12.3166 28.3868 12.4194 28.2777 12.5173C27.8268 12.921 27.316 13.2118 26.7309 13.3586C26.297 13.4675 25.8543 13.4992 25.4101 13.4731C24.9221 13.4442 24.444 13.3547 23.9905 13.1601C22.9775 12.7258 22.3176 11.9679 21.9989 10.8981C21.8368 10.3538 21.7931 9.79497 21.8253 9.23116C21.8624 8.57893 22.0174 7.95673 22.3444 7.38792C22.6849 6.79574 23.1598 6.35036 23.7656 6.04955C24.1924 5.83826 24.6427 5.71649 25.1132 5.66144C25.4357 5.62363 25.7594 5.62141 26.0808 5.64365C26.7969 5.69425 27.4382 5.95169 27.9938 6.41931C28.1134 6.51995 28.2253 6.63005 28.3393 6.7368C28.3672 6.76294 28.3906 6.79408 28.4147 6.82132C28.3071 6.9809 27.221 8.12577 27.1211 8.18193C27.0889 8.15413 27.0534 8.12354 27.0185 8.09296C26.6305 7.75434 26.1829 7.56807 25.6699 7.57863C25.2125 7.58809 24.7971 7.73488 24.4506 8.04792C24.1853 8.28702 24.0134 8.58672 23.9206 8.93479C23.7912 9.42354 23.8038 9.90729 23.979 10.3816C24.1602 10.8726 24.5019 11.2084 24.9865 11.3702C25.6508 11.5921 26.2948 11.542 26.8924 11.1445C26.9749 11.09 27.0447 11.016 27.1195 10.9498C27.1544 10.9193 27.1877 10.8865 27.233 10.8448Z" fill="#A01975"/>
<path d="M9.63662 13.4573C9.63662 11.4706 9.63662 9.48783 9.63662 7.49279C9.57712 7.485 9.53182 7.475 9.48652 7.47444C9.3528 7.47222 9.21963 7.47444 9.08591 7.47333C9.04389 7.47277 9.00241 7.46721 8.96475 7.46443C8.93637 7.34266 8.93582 5.77132 8.96366 5.64399C9.1787 5.61452 9.40302 5.65511 9.63771 5.61786C9.63771 5.51277 9.63935 5.42158 9.63716 5.33039C9.63061 5.05237 9.65463 4.77769 9.71958 4.50802C9.8975 3.77184 10.3134 3.21136 10.9405 2.81213C11.352 2.55024 11.8023 2.39399 12.2848 2.34173C12.4469 2.32393 12.6112 2.32227 12.7744 2.31504C12.8033 2.31392 12.8328 2.32282 12.859 2.32616C12.889 2.43069 12.8934 3.96978 12.8633 4.11435C12.8126 4.11657 12.758 4.11991 12.7034 4.12158C12.1047 4.14048 11.6959 4.56307 11.6659 5.133C11.6599 5.24698 11.6517 5.36041 11.6479 5.4744C11.6462 5.51721 11.655 5.56003 11.6599 5.61674C11.7215 5.62342 11.775 5.63342 11.8291 5.63342C12.2772 5.63454 12.7253 5.63398 13.1733 5.63398C13.2241 5.63398 13.2749 5.63398 13.3196 5.63398C13.3562 5.74241 13.3644 7.29151 13.3322 7.45943C13.2858 7.46221 13.2361 7.46777 13.1859 7.46777C12.7334 7.46832 12.281 7.46832 11.8285 7.46832C11.7778 7.46832 11.727 7.46832 11.662 7.46832C11.656 7.54339 11.6473 7.60288 11.6473 7.66238C11.6462 8.67658 11.6468 9.69078 11.6468 10.705C11.6468 11.5657 11.6468 12.4259 11.6468 13.2866C11.6468 13.3428 11.6468 13.3984 11.6468 13.4484C11.5365 13.4851 9.80417 13.4918 9.63662 13.4573Z" fill="#A01975"/>
<path d="M39.0608 13.4705C38.3807 13.4705 37.728 13.4705 37.0774 13.4705C37.0506 13.366 37.0414 2.54288 37.0665 2.3377C37.0916 2.33214 37.1194 2.32047 37.1472 2.32047C37.7553 2.31935 38.3627 2.31991 38.9707 2.32047C38.9915 2.32047 39.0128 2.32603 39.0482 2.33103C39.0526 2.38608 39.0608 2.44112 39.0608 2.49617C39.0619 3.08056 39.0613 3.66439 39.0613 4.24878C39.0613 7.25301 39.0613 10.2572 39.0613 13.2615C39.0608 13.3254 39.0608 13.3905 39.0608 13.4705Z" fill="#A01975"/>
<path d="M41.9021 13.46C41.7498 13.4883 40.0191 13.485 39.9182 13.4611C39.8936 13.3649 39.8849 2.53343 39.9105 2.33548C39.9394 2.33047 39.9716 2.32102 40.0039 2.32047C40.6031 2.31935 41.2019 2.31991 41.8011 2.32047C41.8262 2.32047 41.8519 2.32603 41.8841 2.32992C41.8901 2.3605 41.8988 2.38886 41.901 2.41833C41.9038 2.45781 41.9021 2.49728 41.9021 2.53676C41.9021 6.11148 41.9021 9.68675 41.9021 13.2615C41.9021 13.3254 41.9021 13.3905 41.9021 13.46Z" fill="#A01975"/>
<path d="M14.1863 5.61475C14.8522 5.61475 15.5137 5.61475 16.1927 5.61475C16.1927 5.8544 16.1927 6.07625 16.1927 6.32702C16.2445 6.29366 16.2751 6.28143 16.2964 6.25974C16.6315 5.91389 17.0463 5.73596 17.5113 5.6748C17.7029 5.64978 17.8977 5.65033 18.0909 5.64088C18.1155 5.63977 18.1406 5.64755 18.1624 5.65144C18.187 5.75431 18.1941 7.48634 18.1701 7.67039C18.1286 7.67428 18.0833 7.67984 18.038 7.68207C17.7531 7.69541 17.472 7.73266 17.204 7.83887C16.8192 7.99122 16.5196 8.24032 16.3417 8.62732C16.2511 8.82471 16.2085 9.03433 16.1954 9.25063C16.1916 9.32069 16.1927 9.3913 16.1927 9.46136C16.1927 10.7347 16.1927 12.008 16.1927 13.2813C16.1927 13.338 16.1927 13.3947 16.1927 13.4609C16.1512 13.4681 16.119 13.4787 16.0868 13.4787C15.4793 13.4798 14.8719 13.4792 14.2644 13.4787C14.2393 13.4787 14.2142 13.472 14.1945 13.4692C14.1869 13.4609 14.1836 13.4576 14.1809 13.4542C14.1782 13.4509 14.1754 13.447 14.1749 13.4431C14.1721 13.4081 14.1672 13.3736 14.1672 13.3386C14.1678 10.783 14.1683 8.22809 14.1694 5.67257C14.17 5.66034 14.1765 5.64811 14.1863 5.61475Z" fill="#A01975"/>
<path d="M20.9919 13.4702C20.3222 13.4702 19.6613 13.4702 19.0019 13.4702C18.973 13.3718 18.9632 5.8398 18.9916 5.65075C19.0205 5.64574 19.0527 5.63518 19.0849 5.63462C19.688 5.63351 20.2911 5.63351 20.8942 5.63462C20.9237 5.63462 20.9526 5.64185 20.9755 5.64519C20.9843 5.65464 20.9875 5.65742 20.9903 5.66131C20.993 5.66465 20.9957 5.66854 20.9963 5.67243C20.9995 5.69857 21.005 5.72414 21.005 5.75028C21.005 8.30079 21.0044 10.8513 21.0039 13.4018C21.0044 13.4185 20.9984 13.4357 20.9919 13.4702Z" fill="#A01975"/>
<path d="M32.5364 0.799525C31.7335 0.799525 31.0508 0.939089 30.404 1.24769C30.0383 1.42228 29.7065 1.64803 29.4216 1.94161C29.3976 1.96663 29.3735 1.99165 29.3484 2.01612C29.176 2.18515 28.9298 2.18849 28.7677 2.02668C28.6411 1.89991 28.6012 1.63524 28.7857 1.44619C28.9991 1.22767 29.2278 1.02805 29.4816 0.860133C30.1202 0.436994 30.8215 0.185112 31.5731 0.0705697C31.8973 0.021083 32.2237 -0.00727451 32.5511 0.00162197C33.7721 0.0338717 34.8795 0.397515 35.8384 1.18597C35.9421 1.27104 36.0415 1.36334 36.1354 1.45953C36.2996 1.62801 36.3078 1.8532 36.1616 2.0139C36.0126 2.17848 35.7779 2.19405 35.6016 2.05115C35.5879 2.04003 35.5754 2.02835 35.5634 2.01612C34.9886 1.44563 34.2982 1.09811 33.5221 0.915736C33.1684 0.832887 32.8093 0.792297 32.5364 0.799525Z" fill="#EF7F07"/>
<path d="M32.48 2.40795C31.8234 2.39738 31.246 2.59422 30.7095 2.92672C30.5294 3.03848 30.358 3.16415 30.1861 3.2887C30.0747 3.36932 29.9563 3.41047 29.822 3.37711C29.6719 3.33985 29.5677 3.24366 29.5317 3.08964C29.494 2.92728 29.5328 2.77993 29.6703 2.67984C29.8804 2.52694 30.0906 2.37292 30.3111 2.23613C30.7712 1.94978 31.2667 1.75239 31.8 1.66287C32.6274 1.52441 33.4204 1.64118 34.1774 2.00872C34.548 2.18887 34.8935 2.41184 35.2226 2.66094C35.3869 2.78493 35.4453 2.9384 35.4006 3.10465C35.3285 3.37266 35.0196 3.48553 34.7849 3.32762C34.6594 3.2431 34.5382 3.1508 34.4132 3.06517C34.1731 2.90114 33.9215 2.75824 33.6535 2.64593C33.2709 2.48635 32.8752 2.3946 32.48 2.40795Z" fill="#EF7F07"/>
<path d="M34.481 4.11628C34.4805 4.44044 34.1639 4.62949 33.8938 4.4877C33.7524 4.4132 33.6203 4.32145 33.4801 4.24416C32.8306 3.88664 32.1712 3.88775 31.5087 4.20135C31.3531 4.2753 31.2085 4.37261 31.0589 4.45935C30.917 4.54164 30.7724 4.5522 30.6294 4.4688C30.4023 4.33591 30.3701 4.02175 30.5628 3.84104C30.5786 3.82603 30.5955 3.81213 30.613 3.79989C31.2368 3.36786 31.9169 3.13155 32.6794 3.18659C33.1111 3.21773 33.5155 3.34451 33.8932 3.55913C34.0248 3.63364 34.153 3.71482 34.2813 3.79489C34.409 3.8744 34.4761 3.99061 34.481 4.11628Z" fill="#EF7F07"/>
</svg>
