<svg width="22" height="22" viewBox="0 0 22 22" fill="none" xmlns="http://www.w3.org/2000/svg">
<g clip-path="url(#clip0_204_5175)">
<path d="M0.198816 11.4281C0.14744 11.4281 0.0981127 11.408 0.0614123 11.372C0.0247119 11.3361 0.00356003 11.2872 0.00249226 11.2358C0.000821716 11.1572 -9.06068e-06 11.0786 7.45185e-08 11C7.45185e-08 4.92486 4.92486 0 11 0C17.0751 0 22 4.92486 22 11C22 11.0642 21.9994 11.1282 21.9984 11.1921C21.9961 11.3232 21.8887 11.4281 21.7575 11.4281H0.198816Z" fill="#20B7A1"/>
<path d="M0.886063 11.4282C0.845932 11.4281 0.807399 11.4124 0.77873 11.3843C0.750062 11.3563 0.733539 11.3181 0.732708 11.2779C0.731417 11.2166 0.730772 11.1552 0.730774 11.0938C0.730774 6.34864 4.57747 2.50195 9.32259 2.50195C14.0677 2.50195 17.9144 6.34864 17.9144 11.0938C17.9144 11.1439 17.914 11.1939 17.9131 11.2438C17.9122 11.2931 17.8919 11.34 17.8568 11.3745C17.8216 11.4089 17.7743 11.4282 17.725 11.4282H0.886063V11.4282Z" fill="#24D3B5"/>
<path d="M21.9987 11.1719C21.9069 17.1677 17.0177 22 11 22C4.98228 22 0.093167 17.1677 0.00134277 11.1719H21.9987Z" fill="#3D4EC6"/>
<path d="M11.4687 15.1654H4.41937V7.01123H11.4687V15.1654Z" fill="#FFC14F"/>
<path d="M5.88213 15.1654H4.41934V7.01123H5.88213V15.1654Z" fill="#FFA90B"/>
<path d="M11.039 7.29442H4.84906C4.61174 7.29442 4.41937 7.10204 4.41937 6.86473V5.68726C4.41937 5.44994 4.61174 5.25757 4.84906 5.25757H11.039C11.2763 5.25757 11.4687 5.44994 11.4687 5.68726V6.86473C11.4687 7.10204 11.2763 7.29442 11.039 7.29442Z" fill="#A7D0FC"/>
<path d="M12.5017 7.29442H6.3118C6.07448 7.29442 5.88211 7.10204 5.88211 6.86473V5.68726C5.88211 5.44994 6.07448 5.25757 6.3118 5.25757H12.5017C12.7391 5.25757 12.9314 5.44994 12.9314 5.68726V6.86473C12.9314 7.10204 12.7391 7.29442 12.5017 7.29442Z" fill="#C8E2FD"/>
<path d="M11.039 7.34937H4.11267C3.87535 7.34937 3.68298 7.15699 3.68298 6.91968C3.68298 6.68236 3.87535 6.48999 4.11267 6.48999H11.039C11.2763 6.48999 11.4687 6.68236 11.4687 6.91968C11.4687 7.15699 11.2763 7.34937 11.039 7.34937Z" fill="#C8E2FD"/>
<path d="M12.5975 7.34937H5.67117C5.43386 7.34937 5.24149 7.15699 5.24149 6.91968C5.24149 6.68236 5.43386 6.48999 5.67117 6.48999H12.5975C12.8348 6.48999 13.0272 6.68236 13.0272 6.91968C13.0272 7.15699 12.8348 7.34937 12.5975 7.34937Z" fill="#E9F3FE"/>
<path d="M19.959 12.8477V17.1875C19.959 17.8994 19.3819 18.4766 18.6699 18.4766H11.3652C10.6533 18.4766 10.0762 17.8994 10.0762 17.1875V5.24219C10.0762 4.53028 10.6533 3.95312 11.3652 3.95312H11.9668C12.3228 3.95312 12.6113 3.66455 12.6113 3.30859V1.28906H15.6191V11.5586H18.6699C19.3819 11.5586 19.959 12.1357 19.959 12.8477Z" fill="#F44545"/>
<path d="M19.5723 6.27606V11.1719C19.5723 11.1719 19.9237 12.5412 19.8575 12.7902C19.5132 14.085 18.3329 15.0391 16.9297 15.0391C15.2567 15.0391 13.9004 13.6828 13.9004 12.0098V1.28906H17.4238V3.30859C17.4238 3.66455 17.7124 3.95312 18.0684 3.95312H18.6699C19.3819 3.95312 19.959 4.53028 19.959 5.24219V5.58594L19.5723 6.27606Z" fill="#FB5858"/>
<path d="M16.9941 0.429688V2.57812C16.9941 2.81544 16.8018 3.00781 16.5645 3.00781H12.6113C12.374 3.00781 12.1816 2.81544 12.1816 2.57812V0.429688C12.1816 0.192371 12.374 0 12.6113 0H16.5645C16.8018 0 16.9941 0.192371 16.9941 0.429688Z" fill="#A7D0FC"/>
<path d="M17.8535 0.429688V2.57812C17.8535 2.81544 17.6611 3.00781 17.4238 3.00781H13.4707C13.2334 3.00781 13.041 2.81544 13.041 2.57812V0.429688C13.041 0.192371 13.2334 0 13.4707 0H17.4238C17.6611 0 17.8535 0.192371 17.8535 0.429688Z" fill="#C8E2FD"/>
<path d="M14.8027 0.644531V2.36328C14.8027 2.42026 14.7801 2.47491 14.7398 2.5152C14.6995 2.55549 14.6449 2.57812 14.5879 2.57812C14.5309 2.57812 14.4763 2.55549 14.436 2.5152C14.3957 2.47491 14.373 2.42026 14.373 2.36328V0.644531C14.373 0.587551 14.3957 0.532905 14.436 0.492614C14.4763 0.452323 14.5309 0.429688 14.5879 0.429688C14.6449 0.429688 14.6995 0.452323 14.7398 0.492614C14.7801 0.532905 14.8027 0.587551 14.8027 0.644531ZM13.7285 0.429688C13.6715 0.429688 13.6169 0.452323 13.5766 0.492614C13.5363 0.532905 13.5137 0.587551 13.5137 0.644531V2.36328C13.5137 2.42026 13.5363 2.47491 13.5766 2.5152C13.6169 2.55549 13.6715 2.57812 13.7285 2.57812C13.7855 2.57812 13.8401 2.55549 13.8804 2.5152C13.9207 2.47491 13.9434 2.42026 13.9434 2.36328V0.644531C13.9434 0.587551 13.9207 0.532905 13.8804 0.492614C13.8401 0.452323 13.7855 0.429688 13.7285 0.429688ZM12.8691 0.429688C12.8122 0.429688 12.7575 0.452323 12.7172 0.492614C12.6769 0.532905 12.6543 0.587551 12.6543 0.644531V2.36328C12.6543 2.42026 12.6769 2.47491 12.7172 2.5152C12.7575 2.55549 12.8122 2.57812 12.8691 2.57812C12.9261 2.57812 12.9808 2.55549 13.0211 2.5152C13.0613 2.47491 13.084 2.42026 13.084 2.36328V0.644531C13.084 0.587551 13.0613 0.532905 13.0211 0.492614C12.9808 0.452323 12.9261 0.429688 12.8691 0.429688ZM17.166 0.429688C17.109 0.429688 17.0544 0.452323 17.0141 0.492614C16.9738 0.532905 16.9512 0.587551 16.9512 0.644531V2.36328C16.9512 2.42026 16.9738 2.47491 17.0141 2.5152C17.0544 2.55549 17.109 2.57812 17.166 2.57812C17.223 2.57812 17.2776 2.55549 17.3179 2.5152C17.3582 2.47491 17.3809 2.42026 17.3809 2.36328V0.644531C17.3809 0.587551 17.3582 0.532905 17.3179 0.492614C17.2776 0.452323 17.223 0.429688 17.166 0.429688ZM16.3066 0.429688C16.2497 0.429688 16.195 0.452323 16.1547 0.492614C16.1144 0.532905 16.0918 0.587551 16.0918 0.644531V2.36328C16.0918 2.42026 16.1144 2.47491 16.1547 2.5152C16.195 2.55549 16.2497 2.57812 16.3066 2.57812C16.3636 2.57812 16.4183 2.55549 16.4586 2.5152C16.4988 2.47491 16.5215 2.42026 16.5215 2.36328V0.644531C16.5215 0.587551 16.4988 0.532905 16.4586 0.492614C16.4183 0.452323 16.3636 0.429688 16.3066 0.429688ZM15.4473 0.429688C15.3903 0.429688 15.3356 0.452323 15.2953 0.492614C15.2551 0.532905 15.2324 0.587551 15.2324 0.644531V2.36328C15.2324 2.42026 15.2551 2.47491 15.2953 2.5152C15.3356 2.55549 15.3903 2.57812 15.4473 2.57812C15.5042 2.57812 15.5589 2.55549 15.5992 2.5152C15.6395 2.47491 15.6621 2.42026 15.6621 2.36328V0.644531C15.6621 0.587551 15.6395 0.532905 15.5992 0.492614C15.5589 0.452323 15.5042 0.429688 15.4473 0.429688Z" fill="#86BEFB"/>
<path d="M19.5723 6.23047V12.2461C19.5723 12.602 19.2837 12.8906 18.9277 12.8906H14.2012C13.8452 12.8906 13.5566 12.602 13.5566 12.2461V6.23047C13.5566 5.87452 13.8452 5.58594 14.2012 5.58594H18.9277C19.2837 5.58594 19.5723 5.87452 19.5723 6.23047Z" fill="#C8E2FD"/>
<path d="M19.959 5.58594V12.8906H15.6191C15.2632 12.8906 14.9746 12.602 14.9746 12.2461V6.23047C14.9746 5.87452 15.2632 5.58594 15.6191 5.58594H19.959Z" fill="#E9F3FE"/>
<path d="M16.5645 10.1406C16.5645 10.0836 16.5871 10.029 16.6274 9.98871C16.6677 9.94842 16.7223 9.92578 16.7793 9.92578H18.498C18.555 9.92578 18.6097 9.94842 18.65 9.98871C18.6903 10.029 18.7129 10.0836 18.7129 10.1406C18.7129 10.1976 18.6903 10.2523 18.65 10.2925C18.6097 10.3328 18.555 10.3555 18.498 10.3555H16.7793C16.7223 10.3555 16.6677 10.3328 16.6274 10.2925C16.5871 10.2523 16.5645 10.1976 16.5645 10.1406ZM18.498 10.7852H16.7793C16.7223 10.7852 16.6677 10.8078 16.6274 10.8481C16.5871 10.8884 16.5645 10.943 16.5645 11C16.5645 11.057 16.5871 11.1116 16.6274 11.1519C16.6677 11.1922 16.7223 11.2148 16.7793 11.2148H18.498C18.555 11.2148 18.6097 11.1922 18.65 11.1519C18.6903 11.1116 18.7129 11.057 18.7129 11C18.7129 10.943 18.6903 10.8884 18.65 10.8481C18.6097 10.8078 18.555 10.7852 18.498 10.7852ZM18.498 11.6445H16.7793C16.7223 11.6445 16.6677 11.6672 16.6274 11.7075C16.5871 11.7477 16.5645 11.8024 16.5645 11.8594C16.5645 11.9164 16.5871 11.971 16.6274 12.0113C16.6677 12.0516 16.7223 12.0742 16.7793 12.0742H18.498C18.555 12.0742 18.6097 12.0516 18.65 12.0113C18.6903 11.971 18.7129 11.9164 18.7129 11.8594C18.7129 11.8024 18.6903 11.7477 18.65 11.7075C18.6097 11.6672 18.555 11.6445 18.498 11.6445Z" fill="#A7D0FC"/>
<path d="M15.7659 10.3984V18.8633C15.7659 19.2192 15.4773 19.5078 15.1213 19.5078H1.37134C1.01538 19.5078 0.726807 19.2192 0.726807 18.8633V10.3984C0.726807 10.0425 1.01538 9.75391 1.37134 9.75391H15.1213C15.4773 9.75391 15.7659 10.0425 15.7659 10.3984Z" fill="#8C96DD"/>
<path d="M15.7659 10.3984V18.8633C15.7659 19.2192 15.4773 19.5078 15.1213 19.5078H11.1897C8.49624 19.5078 6.31274 17.3244 6.31274 14.6309C6.31274 11.9374 8.49624 9.75391 11.1897 9.75391H15.1213C15.4773 9.75391 15.7659 10.0425 15.7659 10.3984Z" fill="#A6AEE5"/>
<path d="M14.4338 14.6309C14.4338 14.7163 14.3999 14.7983 14.3394 14.8587C14.279 14.9192 14.197 14.9531 14.1116 14.9531H2.29517C2.2097 14.9531 2.12773 14.9192 2.06729 14.8587C2.00685 14.7983 1.9729 14.7163 1.9729 14.6309C1.9729 14.5454 2.00685 14.4634 2.06729 14.403C2.12773 14.3425 2.2097 14.3086 2.29517 14.3086H14.1116C14.197 14.3086 14.279 14.3425 14.3394 14.403C14.3999 14.4634 14.4338 14.5454 14.4338 14.6309ZM9.99375 13.3203C10.7057 13.3203 11.2828 12.7432 11.2828 12.0312C11.2828 11.3193 10.7057 10.7422 9.99375 10.7422C9.2818 10.7422 8.70469 11.3193 8.70469 12.0312C8.70469 12.7432 9.2818 13.3203 9.99375 13.3203ZM13.4885 13.3203C14.2005 13.3203 14.7776 12.7432 14.7776 12.0312C14.7776 11.3193 14.2005 10.7422 13.4885 10.7422C12.7766 10.7422 12.1995 11.3193 12.1995 12.0312C12.1995 12.7432 12.7766 13.3203 13.4885 13.3203ZM3.00415 13.3203C3.7161 13.3203 4.29321 12.7432 4.29321 12.0312C4.29321 11.3193 3.7161 10.7422 3.00415 10.7422C2.2922 10.7422 1.71509 11.3193 1.71509 12.0312C1.71509 12.7432 2.2922 13.3203 3.00415 13.3203ZM6.49893 13.3203C7.21088 13.3203 7.78799 12.7432 7.78799 12.0312C7.78799 11.3193 7.21088 10.7422 6.49893 10.7422C5.78698 10.7422 5.20987 11.3193 5.20987 12.0312C5.20987 12.7432 5.78702 13.3203 6.49893 13.3203ZM9.99375 15.8984C9.2818 15.8984 8.70469 16.4756 8.70469 17.1875C8.70469 17.8994 9.2818 18.4766 9.99375 18.4766C10.7057 18.4766 11.2828 17.8994 11.2828 17.1875C11.2828 16.4756 10.7057 15.8984 9.99375 15.8984ZM13.4885 15.8984C12.7766 15.8984 12.1995 16.4756 12.1995 17.1875C12.1995 17.8994 12.7766 18.4766 13.4885 18.4766C14.2005 18.4766 14.7776 17.8994 14.7776 17.1875C14.7776 16.4756 14.2004 15.8984 13.4885 15.8984ZM3.00415 15.8984C2.2922 15.8984 1.71509 16.4756 1.71509 17.1875C1.71509 17.8994 2.2922 18.4766 3.00415 18.4766C3.7161 18.4766 4.29321 17.8994 4.29321 17.1875C4.29321 16.4756 3.71606 15.8984 3.00415 15.8984ZM6.49893 15.8984C5.78698 15.8984 5.20987 16.4756 5.20987 17.1875C5.20987 17.8994 5.78698 18.4766 6.49893 18.4766C7.21088 18.4766 7.78799 17.8994 7.78799 17.1875C7.78799 16.4756 7.21088 15.8984 6.49893 15.8984Z" fill="#717ED6"/>
<path d="M17.8553 6.78733C18.1976 7.12966 18.0126 7.86967 17.4421 8.44021C16.8715 9.01074 16.1315 9.19572 15.7892 8.85344C15.4469 8.5111 15.6319 7.7711 16.2024 7.20056C16.773 6.63002 17.513 6.44504 17.8553 6.78733ZM14.0311 18.7756C13.6888 18.4333 12.9488 18.6183 12.3782 19.1888C11.8077 19.7594 11.6227 20.4994 11.965 20.8417C12.3074 21.184 13.0474 20.999 13.6179 20.4284C14.1884 19.8579 14.3734 19.1179 14.0311 18.7756Z" fill="#FFA90B"/>
<path d="M17.8553 6.78731C18.1535 7.08547 18.0516 7.68528 17.6434 8.21207C17.3049 8.44604 16.8354 8.4099 16.5382 8.11488L16.533 8.10963L16.5278 8.10435C16.2327 7.80722 16.1966 7.3377 16.4305 6.99928C16.9573 6.59108 17.5572 6.4892 17.8553 6.78731ZM14.0311 18.7756C13.733 18.4774 13.1331 18.5793 12.6063 18.9876C12.3724 19.326 12.4086 19.7955 12.7036 20.0926L12.7088 20.0979L12.7141 20.1032C13.0112 20.3982 13.4808 20.4344 13.8192 20.2004C14.2273 19.6736 14.3292 19.0738 14.0311 18.7756Z" fill="#FFC14F"/>
<path d="M10.8531 12.0312C10.8531 12.5059 10.4684 12.8906 9.99375 12.8906C9.51911 12.8906 9.13437 12.5059 9.13437 12.0312C9.13437 11.5566 9.51911 11.1719 9.99375 11.1719C10.4684 11.1719 10.8531 11.5566 10.8531 12.0312ZM13.4885 12.8906C13.9632 12.8906 14.3479 12.5059 14.3479 12.0312C14.3479 11.5566 13.9632 11.1719 13.4885 11.1719C13.0139 11.1719 12.6292 11.5566 12.6292 12.0312C12.6292 12.5059 13.0139 12.8906 13.4885 12.8906ZM3.00415 11.1719C2.52952 11.1719 2.14478 11.5566 2.14478 12.0312C2.14478 12.5059 2.52952 12.8906 3.00415 12.8906C3.47878 12.8906 3.86353 12.5059 3.86353 12.0312C3.86353 11.5566 3.47878 11.1719 3.00415 11.1719ZM6.49893 11.1719C6.02429 11.1719 5.63955 11.5566 5.63955 12.0312C5.63955 12.5059 6.02429 12.8906 6.49893 12.8906C6.97356 12.8906 7.3583 12.5059 7.3583 12.0312C7.3583 11.5566 6.97356 11.1719 6.49893 11.1719ZM9.99375 16.3281C9.51911 16.3281 9.13437 16.7129 9.13437 17.1875C9.13437 17.6621 9.51911 18.0469 9.99375 18.0469C10.4684 18.0469 10.8531 17.6621 10.8531 17.1875C10.8531 16.7129 10.4683 16.3281 9.99375 16.3281ZM13.4885 16.3281C13.0139 16.3281 12.6292 16.7129 12.6292 17.1875C12.6292 17.6621 13.0139 18.0469 13.4885 18.0469C13.9632 18.0469 14.3479 17.6621 14.3479 17.1875C14.3479 16.7129 13.9632 16.3281 13.4885 16.3281ZM3.00415 16.3281C2.52952 16.3281 2.14478 16.7129 2.14478 17.1875C2.14478 17.6621 2.52952 18.0469 3.00415 18.0469C3.47878 18.0469 3.86353 17.6621 3.86353 17.1875C3.86353 16.7129 3.47878 16.3281 3.00415 16.3281ZM6.49893 16.3281C6.02429 16.3281 5.63955 16.7129 5.63955 17.1875C5.63955 17.6621 6.02429 18.0469 6.49893 18.0469C6.97356 18.0469 7.3583 17.6621 7.3583 17.1875C7.3583 16.7129 6.97356 16.3281 6.49893 16.3281ZM15.5332 19.9375C15.5332 20.4121 15.1485 20.7969 14.6738 20.7969C14.1992 20.7969 13.8144 20.4121 13.8144 19.9375C13.8144 19.4629 14.1992 19.0781 14.6738 19.0781C15.1485 19.0781 15.5332 19.4629 15.5332 19.9375Z" fill="#C8E2FD"/>
<path d="M10.8531 12.0313C10.8531 12.134 10.8351 12.2326 10.802 12.3239C10.7082 12.3578 10.6091 12.3751 10.5094 12.375C10.0347 12.375 9.65 11.9903 9.65 11.5156C9.65 11.4128 9.66804 11.3143 9.70113 11.223C9.79496 11.189 9.89398 11.1718 9.99375 11.1719C10.4683 11.1719 10.8531 11.5566 10.8531 12.0313ZM14.0042 12.375C14.1069 12.375 14.2055 12.357 14.2968 12.3239C14.3307 12.2301 14.348 12.131 14.3479 12.0313C14.3479 11.5566 13.9632 11.1719 13.4885 11.1719C13.3858 11.1719 13.2872 11.1899 13.1959 11.223C13.162 11.3168 13.1447 11.4158 13.1448 11.5156C13.1448 11.9903 13.5295 12.375 14.0042 12.375ZM3.00415 11.1719C2.90141 11.1719 2.80284 11.1899 2.71153 11.223C2.67759 11.3168 2.66029 11.4158 2.6604 11.5156C2.6604 11.9903 3.04514 12.375 3.51978 12.375C3.62251 12.375 3.72108 12.357 3.81239 12.3239C3.84633 12.2301 3.86364 12.131 3.86353 12.0313C3.86353 11.5566 3.47878 11.1719 3.00415 11.1719ZM6.49893 11.1719C6.39619 11.1719 6.29762 11.1899 6.20631 11.223C6.17237 11.3168 6.15507 11.4158 6.15518 11.5156C6.15518 11.9903 6.53992 12.375 7.01455 12.375C7.11729 12.375 7.21586 12.357 7.30717 12.3239C7.34111 12.2301 7.35841 12.131 7.3583 12.0313C7.3583 11.5566 6.97356 11.1719 6.49893 11.1719ZM9.99375 16.3281C9.89101 16.3281 9.79244 16.3462 9.70113 16.3792C9.66719 16.4731 9.64989 16.5721 9.65 16.6719C9.65 17.1465 10.0347 17.5313 10.5094 17.5313C10.6121 17.5313 10.7107 17.5132 10.802 17.4802C10.8359 17.3863 10.8532 17.2873 10.8531 17.1875C10.8531 16.7129 10.4683 16.3281 9.99375 16.3281ZM13.4885 16.3281C13.3858 16.3281 13.2872 16.3462 13.1959 16.3792C13.162 16.4731 13.1447 16.5721 13.1448 16.6719C13.1448 17.1465 13.5295 17.5313 14.0042 17.5313C14.1069 17.5313 14.2055 17.5132 14.2968 17.4802C14.3307 17.3863 14.348 17.2873 14.3479 17.1875C14.3479 16.7129 13.9632 16.3281 13.4885 16.3281ZM3.00415 16.3281C2.90141 16.3281 2.80284 16.3462 2.71153 16.3792C2.67759 16.4731 2.66029 16.5721 2.6604 16.6719C2.6604 17.1465 3.04514 17.5313 3.51978 17.5313C3.62251 17.5313 3.72108 17.5132 3.81239 17.4802C3.84633 17.3863 3.86364 17.2873 3.86353 17.1875C3.86353 16.7129 3.47878 16.3281 3.00415 16.3281ZM6.49893 16.3281C6.39619 16.3281 6.29762 16.3462 6.20631 16.3792C6.17237 16.4731 6.15507 16.5721 6.15518 16.6719C6.15518 17.1465 6.53992 17.5313 7.01455 17.5313C7.11729 17.5313 7.21586 17.5132 7.30717 17.4802C7.34111 17.3863 7.35841 17.2873 7.3583 17.1875C7.3583 16.7129 6.97356 16.3281 6.49893 16.3281ZM15.5332 19.9375C15.5332 20.0403 15.5151 20.1388 15.4821 20.2302C15.3882 20.2641 15.2892 20.2814 15.1894 20.2813C14.7148 20.2813 14.3301 19.8965 14.3301 19.4219C14.3301 19.3191 14.3481 19.2206 14.3812 19.1292C14.475 19.0953 14.574 19.078 14.6738 19.0781C15.1485 19.0781 15.5332 19.4629 15.5332 19.9375Z" fill="#E9F3FE"/>
</g>
<defs>
<clipPath id="clip0_204_5175">
<rect width="22" height="22" fill="white"/>
</clipPath>
</defs>
</svg>
