<svg width="23" height="22" viewBox="0 0 23 22" fill="none" xmlns="http://www.w3.org/2000/svg">
<g clip-path="url(#clip0_204_5178)">
<path d="M8.28427 9.10051L12.7356 14.8798C14.3493 12.9234 16.245 9.54425 18.4637 7.50152C19.2782 6.75157 20.1132 6.02407 20.9676 5.31982L17.1803 1.53247C16.4702 2.40649 15.7342 3.25909 14.9732 4.08911C12.9367 6.31042 10.225 7.52266 8.28427 9.10051Z" fill="#C17D4F"/>
<path d="M17.1803 1.53247C16.9819 1.77644 16.7816 2.01875 16.5792 2.25937L17.261 2.9412C18.5259 4.20612 18.4777 6.26741 17.161 7.47831L17.1357 7.5016C15.2151 9.26981 13.5367 12.0389 12.0736 14.0203L12.7356 14.8799C14.3492 12.9234 16.2449 9.54425 18.4636 7.50156C19.2782 6.75161 20.1132 6.0241 20.9676 5.31982L17.1803 1.53247Z" fill="#B16E3D"/>
<path d="M17.0082 1.3602L21.1398 5.49186C21.451 5.80304 21.9555 5.80304 22.2666 5.49186C22.5778 5.18068 22.5778 4.67618 22.2666 4.36505L18.135 0.233385C17.8238 -0.0777949 17.3193 -0.0777949 17.0082 0.233385C16.697 0.544564 16.697 1.04906 17.0082 1.3602Z" fill="#C17D4F"/>
<path d="M13.2277 3.68688C13.2996 3.70704 13.365 3.74534 13.4178 3.7981C13.4705 3.85086 13.5088 3.9163 13.529 3.98814C14.0281 5.77697 13.5746 7.77583 12.1678 9.18263C10.7 10.6504 8.58791 11.0805 6.74219 10.4737C6.13534 8.62795 6.5655 6.51582 8.03319 5.04809C9.44002 3.64125 11.4389 3.18767 13.2277 3.68688Z" fill="#B3E59F"/>
<path d="M13.529 3.98805C13.5087 3.91609 13.4703 3.85055 13.4174 3.79774C13.3644 3.74494 13.2988 3.70664 13.2268 3.68653C12.5445 3.49668 11.8312 3.44436 11.1284 3.53262L11.1386 3.53391C11.7774 3.61495 12.2776 4.12649 12.3567 4.76561C12.5511 6.33616 12.0456 7.97684 10.8398 9.18258C9.97126 10.0512 8.87697 10.5562 7.74582 10.6981C9.31796 10.8943 10.9608 10.3896 12.1678 9.18258C13.5746 7.77574 14.0282 5.77688 13.529 3.98805Z" fill="#95D6A4"/>
<path d="M6.74228 10.8056C6.6757 10.8056 6.61064 10.7856 6.55556 10.7482C6.50049 10.7108 6.45794 10.6577 6.43344 10.5958C6.40894 10.5338 6.40363 10.466 6.41819 10.401C6.43276 10.336 6.46653 10.2769 6.51511 10.2314L10.674 6.33226C10.8078 6.20679 11.0178 6.21362 11.1433 6.34738C11.2687 6.48114 11.2619 6.69126 11.1281 6.81664L6.96929 10.7158C6.90783 10.7736 6.82663 10.8057 6.74228 10.8056Z" fill="#78C2A4"/>
<path d="M0.997421 3.68688C0.925584 3.70704 0.86014 3.74534 0.807382 3.7981C0.754624 3.85086 0.716325 3.9163 0.696167 3.98814C0.196999 5.77697 0.650577 7.77583 2.05737 9.18263C3.5251 10.6504 5.63723 11.0805 7.48295 10.4737C8.0898 8.62795 7.65964 6.51582 6.19196 5.04809C4.78512 3.64125 2.78625 3.18767 0.997421 3.68688Z" fill="#B3E59F"/>
<path d="M6.19189 5.04815C4.98455 3.84081 3.34121 3.33623 1.76877 3.53277C2.90035 3.67452 3.99506 4.17928 4.86394 5.04815C6.33166 6.51583 6.76182 8.62801 6.15493 10.4737C5.82844 10.5808 5.49235 10.656 5.15135 10.6982C5.93162 10.7962 6.72947 10.7214 7.48288 10.4737C8.08977 8.62801 7.65961 6.51588 6.19189 5.04815Z" fill="#95D6A4"/>
<path d="M7.48284 10.8057C7.3985 10.8058 7.3173 10.7737 7.25584 10.7159L3.09694 6.81673C3.03365 6.75627 2.9968 6.67327 2.99439 6.58578C2.99198 6.4983 3.02421 6.41339 3.08408 6.34955C3.14394 6.2857 3.2266 6.24808 3.31406 6.24485C3.40152 6.24163 3.48672 6.27307 3.55112 6.33234L7.71002 10.2315C7.7586 10.277 7.79237 10.3361 7.80693 10.4011C7.8215 10.4661 7.81619 10.5339 7.79169 10.5958C7.76719 10.6578 7.72464 10.7109 7.66957 10.7483C7.61449 10.7857 7.54943 10.8057 7.48284 10.8057Z" fill="#78C2A4"/>
<path d="M9.04325 22H13.9567C14.6902 22 15.2847 21.4054 15.2847 20.672V19.6096H7.7153V20.672C7.7153 21.4054 8.30982 22 9.04325 22Z" fill="#655E67"/>
<path d="M13.9567 19.6096V20.672C13.9567 21.4054 13.3622 21.9999 12.6288 21.9999H13.9567C14.6902 21.9999 15.2847 21.4054 15.2847 20.672V19.6096H13.9567Z" fill="#544F56"/>
<path d="M9.24246 20.2736H13.7575C18.0358 20.2736 21.504 16.8054 21.504 12.5271V10.8008H1.49597V12.5271C1.49597 16.8054 4.96419 20.2736 9.24246 20.2736Z" fill="#C7C2C9"/>
<path d="M20.176 10.8008V12.5271C20.176 16.8054 16.7078 20.2736 12.4295 20.2736H13.7575C18.0358 20.2736 21.504 16.8054 21.504 12.5271V10.8008H20.176ZM9.24246 18.835C6.04739 18.835 3.35454 16.4445 2.97861 13.2745C2.96905 13.1875 2.99426 13.1002 3.04875 13.0316C3.10325 12.9631 3.18261 12.9188 3.26956 12.9085C3.35652 12.8982 3.44402 12.9227 3.51303 12.9766C3.58203 13.0305 3.62695 13.1095 3.63801 13.1963C3.97428 16.0324 6.38367 18.171 9.24246 18.171C9.33051 18.171 9.41495 18.206 9.47721 18.2683C9.53946 18.3305 9.57444 18.415 9.57444 18.503C9.57444 18.5911 9.53946 18.6755 9.47721 18.7378C9.41495 18.8 9.33051 18.835 9.24246 18.835Z" fill="#A199A4"/>
<path d="M1.5181 11.4649H21.4819C22.0442 11.4649 22.5 11.0091 22.5 10.4468C22.5 9.88452 22.0442 9.42871 21.4819 9.42871H1.5181C0.955812 9.42871 0.5 9.88452 0.5 10.4468C0.5 11.0091 0.955812 11.4649 1.5181 11.4649Z" fill="#655E67"/>
<path d="M21.4819 9.42871H20.1539C20.7162 9.42871 21.172 9.88452 21.172 10.4468C21.172 11.0091 20.7162 11.4649 20.1539 11.4649H21.4818C22.0441 11.4649 22.5 11.0091 22.5 10.4468C22.5 9.88452 22.0442 9.42871 21.4819 9.42871Z" fill="#544F56"/>
</g>
<defs>
<clipPath id="clip0_204_5178">
<rect width="22" height="22" fill="white" transform="translate(0.5)"/>
</clipPath>
</defs>
</svg>
