<svg width="20" height="22" viewBox="0 0 20 22" fill="none" xmlns="http://www.w3.org/2000/svg">
<path d="M15.9748 11.6932L13.9725 21.6935L10.738 21.2563L9.07824 21.0321L6.33798 20.6617C6.33798 20.6617 7.55216 17.061 7.17621 15.1339C6.80026 13.2068 8.20241 11.0179 8.20241 11.0179C2.50608 8.67311 0.286591 5.95096 0.286591 5.95096L1.74026 3.854L2.75532 2.38919L4.19786 0.306152L13.4838 5.99134C15.4276 7.18046 16.4232 9.45843 15.9748 11.6932Z" fill="#FFC4B0"/>
<path d="M12.3657 8.40157C12.2905 8.52967 12.1944 8.63827 12.0858 8.726C11.8227 8.94043 11.6375 9.23283 11.5567 9.56283C11.5233 9.69929 11.4662 9.83157 11.3827 9.95549C11.0332 10.4735 10.337 10.6392 9.79394 10.3328C9.45837 10.1449 9.24951 9.8246 9.19242 9.4765C9.08102 8.80954 8.70368 8.21777 8.1314 7.85574L1.74026 3.85397L2.75533 2.38916L9.42773 6.58865C9.85242 6.856 10.3801 6.88663 10.8382 6.68334C11.2114 6.51903 11.6625 6.54688 12.0246 6.80308C12.5342 7.16372 12.6832 7.8641 12.3657 8.40157ZM12.8252 14.0171L12.8196 14.0227C12.1541 14.5838 11.7224 15.3733 11.5804 16.2325L10.738 21.2562L9.07824 21.0321L10.0585 15.3162C10.1587 14.7119 9.99862 14.0868 9.60178 13.6203C9.38457 13.3655 9.28292 13.0174 9.35533 12.6609C9.47229 12.0873 10.0167 11.6946 10.5987 11.7656C10.7644 11.7865 10.9176 11.8408 11.0499 11.9216C11.2198 12.0246 11.4119 12.0789 11.6068 12.0803C11.7851 12.0817 11.9563 12.1513 12.0886 12.2711L12.8363 12.9436C13.1566 13.2318 13.1538 13.7373 12.8252 14.0171ZM13.9141 9.61017C14.1382 9.90258 14.4125 10.259 14.659 10.5807C14.9222 10.9232 14.659 11.4175 14.2274 11.3883L12.9129 11.3019C12.53 11.2769 12.3156 10.8508 12.5231 10.5278L13.0912 9.64359C13.2805 9.35258 13.701 9.33448 13.9141 9.61017Z" fill="#FFF4F0"/>
<path d="M17.5287 8.74267C17.4327 8.74267 17.3422 8.6814 17.3101 8.58533C17.2698 8.46419 17.3352 8.33469 17.4549 8.29432L19.2303 7.70254C19.3514 7.66216 19.4809 7.72761 19.5213 7.84875C19.5617 7.96988 19.4962 8.09938 19.3765 8.13976L17.6011 8.73014C17.5775 8.73849 17.5524 8.74267 17.5287 8.74267ZM16.9425 7.44634C16.8757 7.44634 16.8089 7.4171 16.7643 7.3614C16.6849 7.26254 16.7003 7.11773 16.7991 7.03837L18.2542 5.86178C18.353 5.78242 18.4979 5.79773 18.5772 5.89659C18.6566 5.99545 18.6413 6.14026 18.5424 6.21963L17.0873 7.39621C17.0442 7.42963 16.9927 7.44634 16.9425 7.44634ZM19.4837 10.3941C19.4753 10.3941 19.467 10.3941 19.4586 10.3927L17.597 10.1963C17.4703 10.1824 17.3784 10.0696 17.3923 9.94292C17.4062 9.81621 17.519 9.72432 17.6457 9.73824L19.5073 9.93457C19.6341 9.94849 19.726 10.0613 19.712 10.188C19.6995 10.3063 19.6006 10.3941 19.4837 10.3941Z" fill="#FF725C"/>
</svg>
