<svg width="22" height="22" viewBox="0 0 22 22" fill="none" xmlns="http://www.w3.org/2000/svg">
<path d="M15.583 2.75008H19.2497C19.4928 2.75008 19.7259 2.84666 19.8979 3.01857C20.0698 3.19048 20.1663 3.42363 20.1663 3.66675V18.3334C20.1663 18.5765 20.0698 18.8097 19.8979 18.9816C19.7259 19.1535 19.4928 19.2501 19.2497 19.2501H2.74967C2.50656 19.2501 2.2734 19.1535 2.10149 18.9816C1.92958 18.8097 1.83301 18.5765 1.83301 18.3334V3.66675C1.83301 3.42363 1.92958 3.19048 2.10149 3.01857C2.2734 2.84666 2.50656 2.75008 2.74967 2.75008H6.41634V0.916748H8.24967V2.75008H13.7497V0.916748H15.583V2.75008ZM13.7497 4.58341H8.24967V6.41675H6.41634V4.58341H3.66634V8.25008H18.333V4.58341H15.583V6.41675H13.7497V4.58341ZM18.333 10.0834H3.66634V17.4167H18.333V10.0834Z" fill="#656565"/>
</svg>
