<svg width="23" height="22" viewBox="0 0 23 22" fill="none" xmlns="http://www.w3.org/2000/svg">
<path d="M5.80614 1.37079C4.23731 2.93957 4.23731 5.48322 5.80614 7.05201L11.509 12.7549L12.6271 6.08932L11.509 1.37801C9.9402 -0.190819 7.37497 -0.198087 5.80614 1.37079Z" fill="#FF6C6C"/>
<path d="M17.2119 1.37079C15.6431 -0.198087 13.0779 -0.190819 11.509 1.37801V12.7549L17.2119 7.05205C18.7808 5.48322 18.7808 2.93957 17.2119 1.37079Z" fill="#D84F87"/>
<path d="M22.4405 17.6326C22.2258 16.8891 21.4829 16.4291 20.7217 16.5682L13.8385 17.8264L0.5 18.3332V20.526H4.73396L11.2872 21.7118C12.1252 21.8634 12.9866 21.8244 13.8074 21.5978L21.3937 19.5032C22.2026 19.28 22.6733 18.4388 22.4405 17.6326Z" fill="#FFBDA9"/>
<path d="M14.3461 7.89551C13.473 7.89551 12.7651 8.60335 12.7651 9.47651C12.7651 10.3497 13.473 11.0575 14.3461 11.0575H16.2401L16.7555 9.44365L16.2401 7.89551H14.3461Z" fill="#FF6C6C"/>
<path d="M18.1339 7.89551H16.2401V11.0575H18.1339C19.007 11.0575 19.7149 10.3497 19.7149 9.47651C19.7149 8.60335 19.007 7.89551 18.1339 7.89551Z" fill="#00E6EF"/>
<path d="M12.6516 15.044H9.7736L9.65827 14.9084C9.36542 14.5643 9.0013 14.2879 8.5911 14.0983C8.18089 13.9087 7.7344 13.8105 7.28251 13.8105H6.13125C5.30393 13.8106 4.5105 14.1392 3.92549 14.7242H0.5V18.3332H12.6516C13.1182 18.3332 13.5391 18.1385 13.8384 17.8264C14.1218 17.531 14.2962 17.1302 14.2962 16.6885C14.2963 15.7803 13.5599 15.044 12.6516 15.044Z" fill="#FFDDCE"/>
<path d="M10.864 3.37988V4.56249H9.68137V5.85261H10.864V7.03523H11.509L11.7241 5.10004L11.509 3.37988H10.864Z" fill="#FDF1F2"/>
<path d="M12.1541 4.56249V3.37988H11.509V7.03523H12.1541V5.85261H13.3367V4.56249H12.1541Z" fill="#EEEEEE"/>
</svg>
