<svg width="25" height="24" viewBox="0 0 25 24" fill="none" xmlns="http://www.w3.org/2000/svg">
<g clip-path="url(#clip0_341_3806)">
<path d="M12.5 1C13.1566 1 13.8068 1.12933 14.4134 1.3806C15.02 1.63188 15.5712 2.00017 16.0355 2.46447C16.4998 2.92876 16.8681 3.47995 17.1194 4.08658C17.3707 4.69321 17.5 5.34339 17.5 6V8H20.5C20.7652 8 21.0196 8.10536 21.2071 8.29289C21.3946 8.48043 21.5 8.73478 21.5 9V21C21.5 21.2652 21.3946 21.5196 21.2071 21.7071C21.0196 21.8946 20.7652 22 20.5 22H4.5C4.23478 22 3.98043 21.8946 3.79289 21.7071C3.60536 21.5196 3.5 21.2652 3.5 21V9C3.5 8.73478 3.60536 8.48043 3.79289 8.29289C3.98043 8.10536 4.23478 8 4.5 8H7.5V6C7.5 4.67392 8.02678 3.40215 8.96447 2.46447C9.90215 1.52678 11.1739 1 12.5 1ZM17.5 11H15.5V12C15.5003 12.2549 15.5979 12.5 15.7728 12.6854C15.9478 12.8707 16.187 12.9822 16.4414 12.9972C16.6958 13.0121 16.9464 12.9293 17.1418 12.7657C17.3373 12.6021 17.4629 12.3701 17.493 12.117L17.5 12V11ZM9.5 11H7.5V12C7.50028 12.2549 7.59788 12.5 7.77285 12.6854C7.94782 12.8707 8.18695 12.9822 8.44139 12.9972C8.69584 13.0121 8.94638 12.9293 9.14183 12.7657C9.33729 12.6021 9.4629 12.3701 9.493 12.117L9.5 12V11ZM12.5 3C11.7348 2.99996 10.9985 3.29233 10.4417 3.81728C9.88499 4.34224 9.54989 5.06011 9.505 5.824L9.5 6V8H15.5V6C15.5 5.23479 15.2077 4.49849 14.6827 3.94174C14.1578 3.38499 13.4399 3.04989 12.676 3.005L12.5 3Z" fill="#10847E"/>
</g>
<defs>
<clipPath id="clip0_341_3806">
<rect width="24" height="24" fill="white" transform="translate(0.5)"/>
</clipPath>
</defs>
</svg>
