<svg width="25" height="24" viewBox="0 0 25 24" fill="none" xmlns="http://www.w3.org/2000/svg">
<g clip-path="url(#clip0_288_1169)">
<path d="M7.90001 8V6C7.90001 4.67392 8.42679 3.40215 9.36448 2.46447C10.3022 1.52678 11.5739 1 12.9 1C14.2261 1 15.4979 1.52678 16.4355 2.46447C17.3732 3.40215 17.9 4.67392 17.9 6V8H20.9C21.1652 8 21.4196 8.10536 21.6071 8.29289C21.7947 8.48043 21.9 8.73478 21.9 9V21C21.9 21.2652 21.7947 21.5196 21.6071 21.7071C21.4196 21.8946 21.1652 22 20.9 22H4.90001C4.63479 22 4.38044 21.8946 4.1929 21.7071C4.00537 21.5196 3.90001 21.2652 3.90001 21V9C3.90001 8.73478 4.00537 8.48043 4.1929 8.29289C4.38044 8.10536 4.63479 8 4.90001 8H7.90001ZM7.90001 10H5.90001V20H19.9V10H17.9V12H15.9V10H9.90001V12H7.90001V10ZM9.90001 8H15.9V6C15.9 5.20435 15.5839 4.44129 15.0213 3.87868C14.4587 3.31607 13.6957 3 12.9 3C12.1044 3 11.3413 3.31607 10.7787 3.87868C10.2161 4.44129 9.90001 5.20435 9.90001 6V8Z" fill="#656565"/>
</g>
<defs>
<clipPath id="clip0_288_1169">
<rect width="24" height="24" fill="white" transform="translate(0.900009)"/>
</clipPath>
</defs>
</svg>
