<svg width="19" height="22" viewBox="0 0 19 22" fill="none" xmlns="http://www.w3.org/2000/svg">
<path d="M14.7016 18.6547V21.0832H4.29837V18.6547C4.29747 17.9672 4.47718 17.2916 4.81952 16.6954C5.16187 16.0992 5.65482 15.6033 6.24904 15.2576C7.03187 15.6556 7.93433 15.8811 8.88973 15.8811H10.2961C11.1986 15.8811 12.0476 15.6689 12.8174 15.2974C13.9454 15.9877 14.7016 17.2348 14.7016 18.6547Z" fill="#F6CA56"/>
<path d="M11.2385 15.8016C11.2385 16.7705 10.4687 17.5534 9.49999 17.5534C8.53131 17.5534 7.76154 16.7708 7.76154 15.8016V15.7622C8.11995 15.842 8.50472 15.8814 8.88949 15.8814H10.2959C10.6147 15.8814 10.9332 15.8548 11.2385 15.8016Z" fill="#F2B6AD"/>
<path d="M6.12598 19.0542H6.92233V21.0835H6.12598V19.0542ZM12.0779 19.0542H12.8742V21.0835H12.0779V19.0542Z" fill="#E8AC34"/>
<path d="M16.0684 7.89274V10.109C16.0684 10.5999 16.0021 11.0777 15.896 11.5289C15.8163 11.8342 15.7102 12.1126 15.6041 12.3913C15.0468 13.6652 14.0515 14.7001 12.8174 15.2973C12.318 15.5404 11.7863 15.7102 11.2385 15.8015C10.9272 15.855 10.6119 15.8817 10.2961 15.8813H8.88973C8.50496 15.8813 8.11996 15.8418 7.76177 15.7621C7.23524 15.6705 6.72541 15.5004 6.24927 15.2577C5.05022 14.6423 4.10255 13.629 3.56871 12.3915C3.46237 12.1128 3.35627 11.8342 3.29004 11.5292C3.16699 11.0659 3.10451 10.5886 3.10419 10.1092V7.89296H10.4423C11.2786 7.89296 12.0346 7.37551 12.3534 6.60574C12.5525 6.10157 12.7514 5.66363 12.7647 5.76996C12.8312 6.15473 13.0833 6.61903 13.3486 7.00403C13.7201 7.56136 14.357 7.89296 15.047 7.89296L16.0684 7.89274Z" fill="#FFD9CC"/>
<path d="M6.81461 11.031C7.13545 11.031 7.39555 10.7709 7.39555 10.4501C7.39555 10.1292 7.13545 9.86914 6.81461 9.86914C6.49377 9.86914 6.23367 10.1292 6.23367 10.4501C6.23367 10.7709 6.49377 11.031 6.81461 11.031Z" fill="#2F271E"/>
<path d="M12.1854 11.031C12.5062 11.031 12.7663 10.7709 12.7663 10.4501C12.7663 10.1292 12.5062 9.86914 12.1854 9.86914C11.8645 9.86914 11.6044 10.1292 11.6044 10.4501C11.6044 10.7709 11.8645 11.031 12.1854 11.031Z" fill="#2F271E"/>
<path d="M17.0178 4.90241V7.88846H15.0406C14.362 7.88846 13.7233 7.5596 13.3422 6.99814C13.0805 6.61269 12.8307 6.16031 12.7649 5.76637C12.7489 5.65981 12.5543 6.09775 12.3485 6.60306C12.194 6.98279 11.9298 7.30787 11.5898 7.53682C11.2497 7.76576 10.8491 7.88818 10.4391 7.88846H2.15634V4.90241C2.15634 2.70631 4.06209 0.916748 6.42067 0.916748H12.7535C15.1123 0.916748 17.0178 2.70631 17.0178 4.90241Z" fill="#C46F66"/>
<path d="M3.28362 11.5256H2.52829C2.29931 11.5259 2.07251 11.4811 1.8609 11.3936C1.64929 11.3061 1.45702 11.1777 1.2951 11.0158C1.13319 10.8539 1.00481 10.6616 0.917316 10.45C0.829827 10.2384 0.784948 10.0116 0.78525 9.78259C0.784918 9.5536 0.829776 9.32679 0.917255 9.11517C1.00473 8.90354 1.13311 8.71126 1.29503 8.54934C1.45696 8.38741 1.64924 8.25904 1.86087 8.17156C2.07249 8.08408 2.2993 8.03922 2.52829 8.03955H3.10923V10.1078C3.10923 10.5961 3.16744 11.0723 3.28362 11.5256ZM18.2148 9.78282C18.2151 10.0118 18.1702 10.2386 18.0827 10.4502C17.9952 10.6618 17.8668 10.8541 17.7049 11.016C17.543 11.1779 17.3507 11.3063 17.1391 11.3938C16.9275 11.4813 16.7007 11.5262 16.4717 11.5259H15.8908C16.007 11.0726 16.0652 10.5961 16.0652 10.1082V8.04001H16.4719C16.7009 8.03968 16.9277 8.08453 17.1393 8.172C17.3509 8.25947 17.5431 8.38783 17.705 8.54973C17.8669 8.71163 17.9953 8.90389 18.0828 9.11548C18.1702 9.32708 18.2151 9.55386 18.2148 9.78282Z" fill="#FFCBBE"/>
<path d="M9.5 13.0567C9.13224 13.0564 8.77961 12.9103 8.51948 12.6503C8.25934 12.3903 8.11294 12.0378 8.1124 11.6701C8.1124 11.4498 8.29069 11.2722 8.51046 11.2722C8.73046 11.2722 8.90852 11.4498 8.90852 11.6701C8.90852 11.9952 9.1739 12.2611 9.49977 12.2611C9.82565 12.2611 10.091 11.9955 10.091 11.6701C10.091 11.4498 10.2693 11.2722 10.4891 11.2722C10.7089 11.2722 10.8871 11.4498 10.8871 11.6701C10.8876 12.4346 10.2652 13.0567 9.5 13.0567Z" fill="#E8B1A6"/>
</svg>
