<svg width="24" height="24" viewBox="0 0 24 24" fill="none" xmlns="http://www.w3.org/2000/svg">
<g clip-path="url(#clip0_204_5189)">
<path d="M11.4845 1.03101C8.37356 1.03101 5.55215 2.26846 3.48398 4.27729V12.2945L22.9689 12.5155C22.9689 6.17277 17.8272 1.03101 11.4845 1.03101Z" fill="#02C0FC"/>
<path d="M3.48398 12.2944L12.3451 23.9679C18.2858 23.5277 22.9689 18.5686 22.9689 12.5154L3.48398 12.2944Z" fill="#4A3279"/>
<path d="M11.4845 0H8.64583C7.18769 0 6.00137 1.18631 6.00137 2.64445V4.85794L6.76703 5.60156L7.87637 4.85794V2.64445C7.87637 2.22014 8.22156 1.875 8.64583 1.875H11.4845L12.2045 0.773438L11.4845 0Z" fill="#FFC242"/>
<path d="M14.2006 0H11.4845C11.4845 0 10.3074 0.949219 11.4845 1.875H14.2006C14.6249 1.875 14.9701 2.22014 14.9701 2.64445V4.85794L15.9857 5.60156L16.8451 4.85794V2.64445C16.8451 1.18631 15.6588 0 14.2006 0Z" fill="#FEF156"/>
<path d="M7.87636 4.85791H3.4312L3.25134 6.83594L1.18884 7.42314L1.1888 7.42305C0.428016 8.95764 0 10.6865 0 12.5155C0 15.266 0.967641 17.79 2.58014 19.7673L9.7703 21.3461L11.4844 12.5155L7.87636 4.85791Z" fill="#E2338F"/>
<path d="M20.225 4.85791H7.87637C7.87637 4.85791 6.17677 8.08938 8.75706 10.0798V12.1964C8.75706 12.1964 7.60182 14.6377 9.77035 16.0728V21.3461H19.8788L22.8504 14.1702L20.225 4.85791Z" fill="#FC51A3"/>
<path d="M9.77034 16.0728H7.79376C7.68306 16.0728 7.57688 16.1167 7.4986 16.195C7.42032 16.2733 7.37634 16.3795 7.37634 16.4902V17.8716C7.37634 17.9823 7.42032 18.0885 7.4986 18.1668C7.57688 18.2451 7.68306 18.2891 7.79376 18.2891L8.31384 18.6328H10.1732L9.77034 16.0728Z" fill="#27A6FF"/>
<path d="M10.9121 16.0728H9.77036C9.65965 16.0728 9.55348 16.1167 9.4752 16.195C9.39691 16.2733 9.35294 16.3795 9.35294 16.4902V17.8716C9.35294 17.9823 9.39691 18.0885 9.4752 18.1668C9.55348 18.2451 9.65965 18.2891 9.77036 18.2891L10.1732 18.6328L10.9121 18.2891C11.0228 18.2891 11.129 18.2451 11.2073 18.1668C11.2855 18.0885 11.3295 17.9823 11.3295 17.8716V16.4901C11.3295 16.3794 11.2855 16.2733 11.2072 16.195C11.129 16.1167 11.0228 16.0728 10.9121 16.0728Z" fill="#02C0FC"/>
<path d="M22.23 21.3461C23.2035 21.3461 24 20.5496 24 19.5761V6.62786C24 5.65436 23.2035 4.85791 22.23 4.85791H20.225L18.9389 8.10447C18.9389 8.10447 16.7562 11.2368 19.8788 13.888V21.3461H22.23V21.3461Z" fill="#FF6EAE"/>
<path d="M21.0951 8.1045H18.9389C18.6295 8.1045 18.3764 7.85137 18.3764 7.542V4.83984C18.3764 4.53047 18.6295 4.27734 18.9389 4.27734H21.0951C21.4045 4.27734 21.6576 4.53047 21.6576 4.83984V7.542C21.6576 7.85137 21.4045 8.1045 21.0951 8.1045Z" fill="#FF8BBC"/>
<path d="M1.18884 7.42313V7.542C1.18884 7.85137 1.44197 8.1045 1.75134 8.1045H3.90759C4.21697 8.1045 4.47009 7.85137 4.47009 7.542V4.83984C4.47009 4.53047 4.21697 4.27734 3.90759 4.27734H3.48398C2.54594 5.18807 1.7698 6.25187 1.18884 7.42313Z" fill="#FF6EAE"/>
<path d="M14.0895 10.0799H12.849C12.6469 10.0799 12.4816 9.91532 12.4816 9.71245V8.47194C12.4815 8.37449 12.4428 8.28104 12.3739 8.21213C12.305 8.14322 12.2116 8.1045 12.1141 8.10449H10.7324C10.6349 8.1045 10.5415 8.14322 10.4726 8.21213C10.4036 8.28104 10.3649 8.37449 10.3649 8.47194V9.71245C10.3649 9.8099 10.3262 9.90335 10.2573 9.97226C10.1884 10.0412 10.0949 10.0799 9.99746 10.0799H8.75701C8.65956 10.0799 8.5661 10.1186 8.4972 10.1875C8.42829 10.2564 8.38957 10.3499 8.38956 10.4474V11.829C8.38957 11.9265 8.42829 12.0199 8.4972 12.0889C8.5661 12.1578 8.65956 12.1965 8.75701 12.1965H9.99746C10.0949 12.1965 10.1884 12.2352 10.2573 12.3041C10.3262 12.373 10.3649 12.4665 10.3649 12.5639V13.8044C10.3649 13.9018 10.4036 13.9953 10.4726 14.0642C10.5415 14.1331 10.6349 14.1718 10.7324 14.1719H12.1141C12.2116 14.1719 12.305 14.1331 12.3739 14.0642C12.4428 13.9953 12.4816 13.9019 12.4816 13.8044V12.5639C12.4816 12.3611 12.6469 12.1965 12.849 12.1965H14.0895C14.1869 12.1965 14.2804 12.1578 14.3493 12.0889C14.4182 12.0199 14.4569 11.9265 14.4569 11.829V10.4474C14.4569 10.3499 14.4182 10.2564 14.3493 10.1875C14.2804 10.1186 14.1869 10.0799 14.0895 10.0799Z" fill="#E8F8FC"/>
<path d="M4.47011 15.7969L2.5795 16.4335V19.7673C3.13732 20.451 3.77166 21.0685 4.47011 21.6077L5.2787 18.2891L6.36072 17.4804V16.4335L4.47011 15.7969Z" fill="#7D62EE"/>
<path d="M6.3607 19.5435V17.4802H5.33362C4.85672 17.4802 4.47009 17.8668 4.47009 18.3438V21.6076C5.06024 22.064 5.69344 22.4618 6.3607 22.7955L7.12636 21.3358L6.3607 19.5435Z" fill="#A188F6"/>
<path d="M17.4827 13.8879H15.0866C14.5736 13.8879 14.154 14.3076 14.154 14.8206V23.0674C14.154 23.5803 14.5736 24 15.0866 24H17.4827L19.0913 19.0206L17.4827 13.8879Z" fill="#BBF0F9"/>
<path d="M19.8788 13.8879H17.4827C17.4827 13.8879 16.5714 14.7928 17.4827 15.704V17.1258C17.4827 17.1258 16.8743 17.7014 17.4827 18.3097V19.7315C17.4827 19.7315 16.8627 20.2954 17.4827 20.9154V22.3372C17.4827 22.3372 16.6179 23.1352 17.4827 24H19.8788C20.3917 24 20.8114 23.5803 20.8114 23.0674V14.8205C20.8114 14.3076 20.3917 13.8879 19.8788 13.8879Z" fill="#E8F8FC"/>
<path d="M4.88751 16.4334H2.45001C2.33931 16.4334 2.23313 16.3894 2.15485 16.3111C2.07657 16.2328 2.03259 16.1267 2.03259 16.016V14.312C2.03259 14.2012 2.07657 14.0951 2.15485 14.0168C2.23313 13.9385 2.33931 13.8945 2.45001 13.8945H4.88751L5.55994 15.0702L4.88751 16.4334Z" fill="#BBF0F9"/>
<path d="M6.90758 16.016V14.312C6.90758 14.2012 6.8636 14.0951 6.78532 14.0168C6.70704 13.9385 6.60086 13.8945 6.49016 13.8945H4.88745C4.77675 13.8945 4.67057 13.9385 4.59229 14.0168C4.51401 14.0951 4.47003 14.2012 4.47003 14.312V16.016C4.47003 16.1267 4.51401 16.2328 4.59229 16.3111C4.67057 16.3894 4.77675 16.4334 4.88745 16.4334H6.49016C6.60086 16.4334 6.70704 16.3894 6.78532 16.3111C6.8636 16.2328 6.90758 16.1267 6.90758 16.016Z" fill="#E8F8FC"/>
<path d="M17.4827 20.9155H16.5849C16.194 20.9155 15.8741 21.2354 15.8741 21.6264C15.8741 22.0174 16.194 22.3372 16.5849 22.3372H17.4827L17.9877 21.6681L17.4827 20.9155Z" fill="#FC51A3"/>
<path d="M17.4827 18.3098H16.5849C16.194 18.3098 15.8741 18.6297 15.8741 19.0207C15.8741 19.4117 16.194 19.7315 16.5849 19.7315H17.4827L18.0795 19.0207L17.4827 18.3098Z" fill="#02C0FC"/>
<path d="M17.4827 15.7041H16.5849C16.194 15.7041 15.8741 16.024 15.8741 16.415C15.8741 16.8059 16.194 17.1258 16.5849 17.1258H17.4827L18.0795 16.415L17.4827 15.7041Z" fill="#FC51A3"/>
<path d="M18.3804 20.9155H17.4826V22.3373H18.3804C18.7714 22.3373 19.0912 22.0174 19.0912 21.6264C19.0913 21.2354 18.7714 20.9155 18.3804 20.9155Z" fill="#02C0FC"/>
<path d="M18.3804 18.3098H17.4826V19.7316H18.3804C18.7714 19.7316 19.0912 19.4117 19.0912 19.0207C19.0913 18.6297 18.7714 18.3098 18.3804 18.3098Z" fill="#FC51A3"/>
<path d="M18.3804 15.7041H17.4826V17.1259H18.3804C18.7714 17.1259 19.0912 16.806 19.0912 16.415C19.0913 16.024 18.7714 15.7041 18.3804 15.7041Z" fill="#02C0FC"/>
<path d="M9.77034 18.2891H7.61531C6.92531 18.2891 6.36075 18.8536 6.36075 19.5436V22.7956C6.84166 23.0357 7.33891 23.2416 7.8488 23.4117L10.3412 20.8504L9.77034 18.2891ZM10.3412 21.9414L10.857 23.9824C11.0648 23.9936 11.2739 23.9999 11.4845 23.9999C11.774 23.9999 12.0609 23.989 12.3451 23.9679V22.3242L10.3412 21.9414Z" fill="#FFC242"/>
<path d="M11.0905 18.2891H9.77033C9.77033 18.2891 8.84362 19.2009 9.77033 20.1276L10.5014 20.4798L10.857 22.3242C10.857 22.3242 11.5658 23.1035 12.3451 22.3242V19.5436C12.3451 18.8536 11.7805 18.2891 11.0905 18.2891Z" fill="#FEF156"/>
<path d="M10.857 23.9825V20.4005C10.857 20.2504 10.7343 20.1277 10.5843 20.1277H8.12155C7.9715 20.1277 7.84879 20.2505 7.84879 20.4005V23.4118C8.80199 23.73 9.81093 23.9261 10.857 23.9825Z" fill="#FD8D3E"/>
<path d="M10.1057 21.539C10.1057 21.4323 10.0633 21.33 9.98788 21.2546C9.91243 21.1791 9.8101 21.1367 9.70339 21.1367H9.00243C8.89572 21.1367 8.79339 21.1791 8.71794 21.2546C8.64249 21.33 8.6001 21.4323 8.6001 21.539C8.6001 21.6458 8.64249 21.7481 8.71794 21.8235C8.79339 21.899 8.89572 21.9414 9.00243 21.9414H9.70339C9.8101 21.9414 9.91243 21.899 9.98788 21.8235C10.0633 21.7481 10.1057 21.6458 10.1057 21.539Z" fill="#FFC242"/>
</g>
<defs>
<clipPath id="clip0_204_5189">
<rect width="24" height="24" fill="white"/>
</clipPath>
</defs>
</svg>
