<svg width="23" height="20" viewBox="0 0 23 20" fill="none" xmlns="http://www.w3.org/2000/svg">
<path d="M18.4966 16.9186H16.8819C16.6446 16.9186 16.4522 16.7262 16.4522 16.4889V12.062H18.9263V16.4889C18.9263 16.7262 18.7339 16.9186 18.4966 16.9186Z" fill="#DFF6FD"/>
<path d="M17.6893 13.9863C18.1126 13.9863 18.5263 13.9439 18.9263 13.8636V12.062H16.4522V13.8636C16.8595 13.9453 17.2739 13.9864 17.6893 13.9863Z" fill="#C8EFFE"/>
<path d="M5.71495 5.95472C5.79324 5.88602 5.89384 5.84814 5.998 5.84814C6.10216 5.84814 6.20277 5.88602 6.28106 5.95472C7.40555 6.94012 11.496 10.7709 11.496 14.3526C11.496 17.3891 9.03445 19.8506 5.99802 19.8506C2.96159 19.8506 0.5 17.3891 0.5 14.3527C0.5 10.771 4.59045 6.94017 5.71495 5.95472Z" fill="#FD8087"/>
<path d="M9.83839 9.91455C9.9037 10.2501 9.93966 10.5861 9.93966 10.9198C9.93966 13.9563 7.47811 16.4178 4.44168 16.4178C2.9043 16.4178 1.51508 15.7861 0.517303 14.7689C0.730257 17.6108 3.10175 19.8507 5.99801 19.8507C9.03448 19.8507 11.496 17.3892 11.496 14.3527C11.496 12.84 10.7661 11.283 9.83839 9.91455Z" fill="#FE646F"/>
<path d="M9.94689 19.8506H6.46483C6.21179 19.8506 6.00665 19.6454 6.00665 19.3924V15.9103C6.00665 15.6573 6.21179 15.4521 6.46483 15.4521H9.94689C10.1999 15.4521 10.4051 15.6573 10.4051 15.9103V19.3924C10.4051 19.6454 10.1999 19.8506 9.94689 19.8506Z" fill="#DFF6FD"/>
<path d="M9.94689 15.4521H9.66334C9.66334 17.4736 8.02696 19.1126 6.00665 19.1173V19.3924C6.00665 19.6454 6.21179 19.8506 6.46483 19.8506H9.94689C10.1999 19.8506 10.4051 19.6454 10.4051 19.3924V15.9103C10.4051 15.6573 10.1999 15.4521 9.94689 15.4521Z" fill="#C8EFFE"/>
<path d="M14.3453 19.8506H10.8632C10.6102 19.8506 10.405 19.6454 10.405 19.3924V15.9103C10.405 15.6573 10.6102 15.4521 10.8632 15.4521H14.3453C14.5983 15.4521 14.8034 15.6573 14.8034 15.9103V19.3924C14.8034 19.6454 14.5983 19.8506 14.3453 19.8506Z" fill="#DFF6FD"/>
<path d="M14.3453 15.4521H14.0617C14.0617 17.4736 12.4254 19.1126 10.4051 19.1173V19.3924C10.4051 19.6454 10.6102 19.8506 10.8632 19.8506H14.3453C14.5983 19.8506 14.8035 19.6454 14.8035 19.3924V15.9103C14.8034 15.6573 14.5983 15.4521 14.3453 15.4521Z" fill="#C8EFFE"/>
<path d="M12.1461 15.4521H8.66402C8.41097 15.4521 8.20584 15.247 8.20584 14.9939V11.5119C8.20584 11.2588 8.41097 11.0537 8.66402 11.0537H12.1461C12.3991 11.0537 12.6043 11.2588 12.6043 11.5119V14.9939C12.6043 15.247 12.3991 15.4521 12.1461 15.4521Z" fill="#DFF6FD"/>
<path d="M12.1461 11.0537H11.8625C11.8625 13.0751 10.2261 14.7141 8.20584 14.7188V14.9939C8.20584 15.247 8.41097 15.4521 8.66402 15.4521H12.1461C12.3991 15.4521 12.6043 15.247 12.6043 14.9939V11.5119C12.6043 11.2588 12.3991 11.0537 12.1461 11.0537Z" fill="#C8EFFE"/>
<path d="M17.6892 12.5199C15.0323 12.5199 12.8785 10.3661 12.8785 7.70916V1.06577C12.8785 0.55968 13.2888 0.149414 13.7949 0.149414H21.5837C22.0898 0.149414 22.5 0.55968 22.5 1.06577V7.70921C22.5 10.3661 20.3461 12.5199 17.6892 12.5199Z" fill="#528FD8"/>
<path d="M21.5836 0.149414H20.2092C20.7152 0.149414 21.1255 0.55968 21.1255 1.06577V7.70916C21.1255 10.1327 19.3333 12.1373 17.002 12.4708C17.2296 12.5035 17.4593 12.5198 17.6893 12.5199C20.3461 12.5199 22.5 10.3661 22.5 7.70916V1.06577C22.5 0.55968 22.0897 0.149414 21.5836 0.149414Z" fill="#0573CE"/>
<path d="M20.6674 6.56377H14.7112C14.4582 6.56377 14.253 6.35864 14.253 6.1056V1.9821C14.253 1.72906 14.4582 1.52393 14.7112 1.52393H20.6674C20.9204 1.52393 21.1255 1.72906 21.1255 1.9821V6.1056C21.1255 6.35864 20.9204 6.56377 20.6674 6.56377Z" fill="#DFF6FD"/>
<path d="M20.6674 8.39616V8.93293C20.6674 9.17596 20.5708 9.40902 20.399 9.58086L19.5613 10.4186C19.3894 10.5904 19.1563 10.6869 18.9133 10.687H16.4653C16.2222 10.687 15.9892 10.5904 15.8173 10.4186L14.9796 9.58086C14.8078 9.40901 14.7113 9.17595 14.7112 8.93293V8.39616C14.7112 8.14312 14.9164 7.93799 15.1694 7.93799H20.2093C20.4622 7.93799 20.6674 8.14312 20.6674 8.39616Z" fill="#C0D6F2"/>
<path d="M17.5447 3.07621C17.6178 2.98176 17.7607 2.98176 17.8338 3.07621C18.059 3.36732 18.4681 3.9584 18.4681 4.4103C18.4681 4.84046 18.1194 5.18919 17.6892 5.18919C17.2591 5.18919 16.9103 4.84046 16.9103 4.4103C16.9104 3.9584 17.3195 3.36736 17.5447 3.07621Z" fill="#FD8087"/>
<path d="M17.367 7.93848H18.0115V10.6875H17.367V7.93848Z" fill="#B2CAEC"/>
<path d="M17.6892 15.8662C17.8672 15.8662 18.0115 15.7219 18.0115 15.5439C18.0115 15.366 17.8672 15.2217 17.6892 15.2217C17.5112 15.2217 17.3669 15.366 17.3669 15.5439C17.3669 15.7219 17.5112 15.8662 17.6892 15.8662Z" fill="#FD8087"/>
</svg>
