<svg width="23" height="22" viewBox="0 0 23 22" fill="none" xmlns="http://www.w3.org/2000/svg">
<path fill-rule="evenodd" clip-rule="evenodd" d="M11.1095 4.57101C10.5599 4.41018 10.1005 4.03154 9.84157 3.52245C9.52046 2.89558 9.55853 2.19656 9.91264 1.59122C10.2071 1.08719 10.0357 0.43755 9.53061 0.143772C9.02546 -0.150048 8.37436 0.0209245 8.07989 0.524948C7.36279 1.75205 7.30315 3.21471 7.95172 4.48362C8.47589 5.5119 9.40368 6.27808 10.513 6.60228C10.6824 6.65086 10.8544 6.68975 11.0282 6.71876C12.1781 6.54019 12.2784 5.26242 11.6197 4.65583C11.4496 4.64698 11.2783 4.62039 11.1095 4.57101ZM6.72316 12.3124C4.97673 12.2566 3.48035 13.3065 2.56146 14.7273C1.36207 16.5813 1.13868 18.9317 1.41282 21.0757C1.48771 21.6544 2.0195 22.066 2.59953 21.9912C3.17957 21.9178 3.59078 21.3859 3.51717 20.8084C3.31028 19.1812 3.42831 17.2905 4.34342 15.8746C4.84856 15.0945 5.6748 14.3968 6.65591 14.4284C7.03919 14.4398 7.45805 14.6007 7.76137 14.7995C9.07625 14.9109 9.26153 13.8332 8.88968 13.0316C8.25254 12.5998 7.53037 12.3389 6.72316 12.3124Z" fill="#E94444"/>
<path fill-rule="evenodd" clip-rule="evenodd" d="M8.88968 13.0318C8.7466 13.1916 8.60275 13.3507 8.45814 13.5092C8.09643 13.8815 7.86161 14.3234 7.76136 14.7996C7.53543 15.8558 7.96572 17.0727 9.10925 18.0251C12.8737 21.1657 18.3617 17.7946 20.414 13.8042C22.3673 10.0077 22.1033 5.21823 19.4722 3.2161C16.8818 1.24564 13.1047 1.74962 11.6197 4.65599C11.5169 4.83327 11.0283 5.6691 11.0283 6.71891C11.0283 10.076 10.7719 10.9131 8.88968 13.0318Z" fill="#F47C7C"/>
<path fill-rule="evenodd" clip-rule="evenodd" d="M12.2784 11.6663C11.8126 12.6769 11.1019 13.5975 10.1411 14.584C9.88854 14.8436 9.66261 15.1704 9.68547 15.5123C9.74133 16.3936 10.9064 17.2219 12.267 17.3244C14.3295 17.4802 16.9808 16.2126 18.6778 12.9137C18.8542 12.5705 19.0115 12.2108 19.1486 11.841C18.6955 10.5126 13.9881 9.31468 12.2784 11.6663Z" fill="#FFD772"/>
<path fill-rule="evenodd" clip-rule="evenodd" d="M19.7159 7.98908C19.3897 3.8227 14.8587 2.60445 13.3585 5.53991C13.078 6.04393 12.9054 6.90885 12.9435 7.79658C13.0082 9.33521 12.7912 10.556 12.2784 11.6666C13.125 10.8219 14.0565 11.1094 14.964 11.6983C15.3308 11.9364 15.968 12.1339 16.4807 11.8566C17.0544 11.545 17.9746 11.0005 19.1486 11.8414C19.5992 10.6143 19.8162 9.26809 19.7159 7.98908Z" fill="#EE6161"/>
<path fill-rule="evenodd" clip-rule="evenodd" d="M19.3669 13.4557C17.6979 16.7001 13.7571 19.5356 10.3188 18.7934C13.9652 20.4663 18.5724 17.384 20.414 13.8039C22.3672 10.0073 22.1033 5.21789 19.4722 3.21577C18.7932 2.69907 18.0329 2.35209 17.2549 2.1748C17.6624 2.35588 18.0545 2.58636 18.4239 2.86626C21.0562 4.86968 21.3202 9.6591 19.3669 13.4557Z" fill="#EE6161"/>
<path fill-rule="evenodd" clip-rule="evenodd" d="M18.6777 12.914C18.8541 12.5708 19.0115 12.2112 19.1486 11.8414C18.8922 11.1905 18.2982 11.0145 17.8489 11.3944C17.8362 11.4286 17.8235 11.464 17.8108 11.4982C17.6762 11.8655 17.5189 12.2242 17.34 12.5721C15.6519 15.8545 13.0183 17.1247 10.961 16.9841C11.3468 17.1665 11.7961 17.2893 12.267 17.3248C14.3294 17.4806 16.9808 16.213 18.6777 12.914Z" fill="#FBBA58"/>
<path fill-rule="evenodd" clip-rule="evenodd" d="M19.1486 11.841C19.5992 10.6139 19.8162 9.26775 19.7159 7.9887C19.5167 5.44074 17.7449 3.99583 16.0555 3.92871C17.2397 4.50239 18.2322 5.77761 18.3782 7.6468C18.4759 8.88911 18.2741 10.1948 17.8489 11.394C18.236 11.3864 18.6714 11.4991 19.1486 11.841Z" fill="#E94444"/>
</svg>
