<svg width="25" height="24" viewBox="0 0 25 24" fill="none" xmlns="http://www.w3.org/2000/svg">
<g clip-path="url(#clip0_341_3787)">
<path d="M12.9 22C7.37696 22 2.89996 17.523 2.89996 12C2.89996 6.477 7.37696 2 12.9 2C18.423 2 22.9 6.477 22.9 12C22.9 17.523 18.423 22 12.9 22ZM17.4 7.5L10.9 10L8.39996 16.5L14.9 14L17.4 7.5ZM12.9 13C12.6347 13 12.3804 12.8946 12.1929 12.7071C12.0053 12.5196 11.9 12.2652 11.9 12C11.9 11.7348 12.0053 11.4804 12.1929 11.2929C12.3804 11.1054 12.6347 11 12.9 11C13.1652 11 13.4195 11.1054 13.6071 11.2929C13.7946 11.4804 13.9 11.7348 13.9 12C13.9 12.2652 13.7946 12.5196 13.6071 12.7071C13.4195 12.8946 13.1652 13 12.9 13Z" fill="#10847E"/>
</g>
<defs>
<clipPath id="clip0_341_3787">
<rect width="24" height="24" fill="white" transform="translate(0.899963)"/>
</clipPath>
</defs>
</svg>
