<svg width="23" height="18" viewBox="0 0 23 18" fill="none" xmlns="http://www.w3.org/2000/svg">
<path d="M22.4711 8.86407C20.2578 3.94405 16.1802 0.644043 11.5158 0.644043V17.3562C16.1802 17.3562 20.2578 14.0561 22.4711 9.13616C22.4814 9.11321 22.489 9.08916 22.4937 9.06448V8.93575C22.489 8.91106 22.4814 8.88701 22.4711 8.86407Z" fill="#FFAD84"/>
<path d="M20.9641 9.00011C19.0781 4.00496 15.5532 0.644043 11.5158 0.644043C6.80859 0.644043 2.69895 4.00496 0.5 9.00011C2.69895 13.9952 6.80859 17.3562 11.5158 17.3562C15.5532 17.3562 19.0781 13.9952 20.9641 9.00011Z" fill="#FFD4A1"/>
<path d="M22.4938 8.93556C20.2858 5.16854 16.1964 2.63867 11.5158 2.63867V15.3612C16.1964 15.3612 20.2858 12.8313 22.4938 9.06429C22.5021 9.02179 22.5021 8.97806 22.4938 8.93556Z" fill="#FE8566"/>
<path d="M20.9641 8.99992C19.0781 5.19727 15.5532 2.63867 11.5158 2.63867C7.33243 2.63867 3.62118 4.6596 1.30347 7.77852C0.830874 7.98252 0.5 8.4525 0.5 8.99992C0.5 9.54735 0.830874 10.0174 1.30347 10.2213C3.62118 13.3402 7.33243 15.3612 11.5158 15.3612C15.5532 15.3612 19.0781 12.8026 20.9641 8.99992Z" fill="#FFAD84"/>
<path d="M17.2888 5.53903C15.5468 4.51174 13.5506 3.96875 11.5158 3.96875V14.0315C13.5506 14.0315 15.5469 13.4885 17.2888 12.4612C18.7559 11.596 20.0141 10.4089 20.9641 9.00012C20.0142 7.59138 18.7559 6.4042 17.2888 5.53903Z" fill="#FFFBBE"/>
<path d="M19.6342 9.00012C18.818 7.59138 17.7368 6.40416 16.4762 5.53903C14.9794 4.51174 13.2641 3.96875 11.5158 3.96875C9.48111 3.96875 7.48478 4.51174 5.74286 5.53903C4.27578 6.4042 3.01754 7.59138 2.06757 9.00012C3.01754 10.4089 4.27578 11.5961 5.74286 12.4612C7.48483 13.4885 9.48111 14.0315 11.5158 14.0315C13.2642 14.0315 14.9795 13.4885 16.4762 12.4612C17.7368 11.5961 18.818 10.4089 19.6342 9.00012Z" fill="white"/>
<path d="M11.5158 3.96875V14.0315C14.2946 14.0315 16.5472 11.7789 16.5472 9.00012C16.5472 6.22139 14.2946 3.96875 11.5158 3.96875Z" fill="#01B1BC"/>
<path d="M15.2173 9.00012C15.2173 6.22139 13.5601 3.96875 11.5158 3.96875C8.7371 3.96875 6.48447 6.22139 6.48447 9.00012C6.48447 11.7789 8.7371 14.0315 11.5158 14.0315C13.5601 14.0315 15.2173 11.7789 15.2173 9.00012Z" fill="#3AC7CF"/>
<path d="M11.5158 6.62842V11.3717C12.8256 11.3717 13.8875 10.3098 13.8875 9.00003C13.8875 7.69024 12.8256 6.62842 11.5158 6.62842Z" fill="#20335A"/>
<path d="M12.5575 9.00003C12.5575 7.69024 12.0912 6.62842 11.5158 6.62842C10.206 6.62842 9.1442 7.69024 9.1442 9.00003C9.1442 10.3098 10.206 11.3717 11.5158 11.3717C12.0912 11.3717 12.5575 10.3099 12.5575 9.00003Z" fill="#2B4478"/>
</svg>
