<svg width="42" height="42" viewBox="0 0 42 42" fill="none" xmlns="http://www.w3.org/2000/svg">
<rect width="42" height="42" rx="21" fill="#10847E"/>
<g clip-path="url(#clip0_204_6990)">
<path d="M20.25 25.4535C18.737 25.261 17.3541 24.4996 16.3824 23.3241C15.4106 22.1486 14.923 20.6472 15.0185 19.125C15.114 17.6028 15.7855 16.1741 16.8966 15.1293C18.0076 14.0845 19.4748 13.5019 21 13.5C22.527 13.4989 23.997 14.08 25.1105 15.125C26.224 16.17 26.8971 17.6002 26.9927 19.1243C27.0883 20.6483 26.5992 22.1515 25.6251 23.3274C24.651 24.5034 23.2652 25.2638 21.75 25.4535V27.009C24.7095 27.078 27 27.5513 27 28.125C27 28.746 24.3135 29.25 21 29.25C17.6865 29.25 15 28.746 15 28.125C15 27.5513 17.2905 27.078 20.25 27.009V25.4535ZM21 21C21.3978 21 21.7794 20.842 22.0607 20.5607C22.342 20.2794 22.5 19.8978 22.5 19.5C22.5 19.1022 22.342 18.7206 22.0607 18.4393C21.7794 18.158 21.3978 18 21 18C20.6022 18 20.2206 18.158 19.9393 18.4393C19.658 18.7206 19.5 19.1022 19.5 19.5C19.5 19.8978 19.658 20.2794 19.9393 20.5607C20.2206 20.842 20.6022 21 21 21Z" fill="white"/>
</g>
<defs>
<clipPath id="clip0_204_6990">
<rect width="18" height="18" fill="white" transform="translate(12 12)"/>
</clipPath>
</defs>
</svg>
