<svg width="21" height="19" viewBox="0 0 21 19" fill="none" xmlns="http://www.w3.org/2000/svg">
<path d="M3.328 18L3.308 18.02L3.287 18H1.492C1.22881 17.9997 0.976497 17.895 0.790489 17.7088C0.604482 17.5226 0.5 17.2702 0.5 17.007V0.993C0.50183 0.730378 0.6069 0.479017 0.792513 0.293218C0.978126 0.107418 1.22938 0.00209465 1.492 0H19.508C20.056 0 20.5 0.445 20.5 0.993V17.007C20.4982 17.2696 20.3931 17.521 20.2075 17.7068C20.0219 17.8926 19.7706 17.9979 19.508 18H3.328ZM18.5 12V2H2.5V16L12.5 6L18.5 12ZM18.5 14.828L12.5 8.828L5.328 16H18.5V14.828ZM6.5 8C5.96957 8 5.46086 7.78929 5.08579 7.41421C4.71071 7.03914 4.5 6.53043 4.5 6C4.5 5.46957 4.71071 4.96086 5.08579 4.58579C5.46086 4.21071 5.96957 4 6.5 4C7.03043 4 7.53914 4.21071 7.91421 4.58579C8.28929 4.96086 8.5 5.46957 8.5 6C8.5 6.53043 8.28929 7.03914 7.91421 7.41421C7.53914 7.78929 7.03043 8 6.5 8Z" fill="#10847E"/>
</svg>
