<svg width="22" height="22" viewBox="0 0 22 22" fill="none" xmlns="http://www.w3.org/2000/svg">
<g clip-path="url(#clip0_204_5182)">
<path d="M8.76697 3.44189H17.3214V7.38845H8.76697V3.44189Z" fill="#D8E4EF"/>
<path d="M17.3214 5.6055V7.38836H8.76697V5.6055C8.92294 5.58401 9.08219 5.57275 9.24383 5.57275H16.845C17.0067 5.57275 17.1656 5.58401 17.3214 5.6055H17.3214Z" fill="#91B8D8"/>
<path d="M11.6194 7.38827V3.44189H8.76697V7.38827" fill="#91B8D8"/>
<path d="M16.8449 6.11157H9.24366C7.32584 6.11157 5.77127 7.66635 5.77127 9.58418V18.5277C5.77127 20.4455 7.32588 22.0001 9.24366 22.0001H16.8449C18.7627 22.0001 20.3174 20.4455 20.3174 18.5277V9.58401C20.3174 7.66618 18.7627 6.11157 16.8449 6.11157Z" fill="#D8E4EF"/>
<path d="M12.3869 22H9.244C7.32601 22 5.77127 20.4452 5.77127 18.5276V9.58401C5.77127 7.66635 7.32601 6.11157 9.244 6.11157H12.3869C10.469 6.11157 8.91401 7.66635 8.91401 9.58401V18.5275C8.91401 20.4452 10.469 22 12.3869 22Z" fill="#91B8D8"/>
<path d="M18.5328 1.21137V3.50758C18.5328 4.17643 17.9905 4.71891 17.3216 4.71891H8.76715C8.09813 4.71891 7.55582 4.17643 7.55582 3.50758V1.21133C7.55582 0.542309 8.09808 0 8.76715 0H17.3216C17.9905 0 18.5328 0.542352 18.5328 1.21137Z" fill="#55B774"/>
<path d="M18.5328 1.21133V3.50754C18.5328 4.17639 17.9905 4.71887 17.3216 4.71887H11.5509C10.8818 4.71887 10.3395 4.17639 10.3395 3.50754V1.21129C10.3395 0.542309 10.8818 0 11.5509 0H17.3216C17.9905 0 18.5328 0.542309 18.5328 1.21133Z" fill="#9FD179"/>
<path d="M18.6392 11.1053C16.8481 10.5111 14.7955 10.9264 13.3702 12.3517C11.9448 13.7771 12.6207 14.7387 13.2149 16.5298C15.006 17.1239 15.9676 17.7997 17.3929 16.3745C18.8181 14.9492 19.2334 12.8966 18.6392 11.1053Z" fill="#55B774"/>
<path d="M12.0967 16.3182C10.6878 16.0098 9.87244 16.1453 9.06613 14.2978C9.01183 14.1738 8.96105 14.0483 8.91385 13.9215C8.30559 12.294 8.33914 10.6493 8.91518 9.49604C8.95037 9.42528 8.98799 9.35576 9.02798 9.2876C10.4364 9.59654 11.8692 10.8752 12.6755 12.7224C13.4818 14.5699 12.828 15.0754 12.0967 16.3182Z" fill="#9FD179"/>
<path d="M12.5006 17.5809C12.435 17.5809 12.3709 17.5618 12.3161 17.5259C12.2613 17.49 12.2181 17.4389 12.1919 17.3788L9.84807 12.0093C9.81234 11.9274 9.81059 11.8347 9.8432 11.7516C9.8758 11.6685 9.9401 11.6017 10.0219 11.566C10.1038 11.5302 10.1965 11.5285 10.2796 11.5611C10.3627 11.5937 10.4295 11.658 10.4652 11.7398L12.6115 16.6569L16.4054 12.8633C16.4366 12.832 16.4737 12.8071 16.5146 12.7902C16.5554 12.7733 16.5992 12.7646 16.6434 12.7646C16.6877 12.7646 16.7315 12.7733 16.7723 12.7902C16.8132 12.8071 16.8503 12.832 16.8815 12.8633C16.9446 12.9264 16.9801 13.0121 16.9801 13.1013C16.9801 13.1906 16.9446 13.2763 16.8815 13.3394L12.7385 17.4823C12.7073 17.5136 12.6702 17.5384 12.6293 17.5553C12.5885 17.5723 12.5447 17.581 12.5005 17.581L12.5006 17.5809Z" fill="#C18E49"/>
<path d="M2.23557 19.9633C2.23557 20.5259 2.46369 21.035 2.83227 21.4032C3.20051 21.7718 3.70961 21.9999 4.27224 21.9999H8.01087C9.13557 21.9999 10.0478 21.088 10.0478 19.9633C10.0478 19.4008 9.81972 18.8916 9.45114 18.523C9.08255 18.1544 8.57298 17.9263 8.01082 17.9263H4.27228C3.14753 17.9263 2.23557 18.8382 2.23557 19.9633Z" fill="#E08CA4"/>
<path d="M2.23557 19.9634C2.23557 20.5258 2.46369 21.0351 2.83227 21.4032C3.20051 21.7718 3.70961 21.9999 4.27224 21.9999H8.01087C9.13557 21.9999 10.0478 21.088 10.0478 19.9634C10.0478 20.3754 9.13562 20.71 8.01087 20.71H4.27224C3.70961 20.71 3.20051 20.6264 2.83227 20.4913C2.46369 20.3562 2.23557 20.1693 2.23557 19.9634Z" fill="#C9508B"/>
<path d="M2.23557 19.9633C2.23557 20.5259 2.46369 21.035 2.83227 21.4032C3.20051 21.7718 3.70961 21.9999 4.27224 21.9999H6.14173V17.9263H4.27224C3.14749 17.9263 2.23557 18.8382 2.23557 19.9633Z" fill="#D8E4EF"/>
<path d="M2.23557 19.9634C2.23557 20.526 2.46369 21.0351 2.83227 21.4033C3.20051 21.7719 3.70961 22 4.27224 22H6.14173V20.7101H4.27224C3.70961 20.7101 3.20051 20.6265 2.83227 20.4914C2.46369 20.3563 2.23557 20.1695 2.23557 19.9634Z" fill="#91B8D8"/>
<path d="M6.12071 15.8797C6.51852 16.2775 6.71725 16.7986 6.71691 17.3196C6.71725 17.8406 6.51852 18.362 6.12071 18.7598L3.47715 21.4033C2.68188 22.1986 1.39183 22.199 0.596523 21.4037C0.198804 21.0059 3.05176e-05 20.4846 3.05176e-05 19.9632C3.05176e-05 19.442 0.199105 18.9204 0.596566 18.5229L3.2403 15.8794C4.03557 15.0841 5.32515 15.0841 6.12071 15.8797Z" fill="#E08CA4"/>
<path d="M6.12072 15.8797C6.51852 16.2774 6.71725 16.7988 6.71691 17.3196C6.71725 17.8406 6.51852 18.3619 6.12072 18.7597L3.47715 21.4033C2.68189 22.1986 1.39201 22.1989 0.596741 21.4037C0.888112 21.695 1.76979 21.2865 2.56505 20.4913L5.20866 17.8477C5.60647 17.4498 5.90738 17.0308 6.07221 16.6749C6.23721 16.3187 6.26642 16.0253 6.12076 15.8796L6.12072 15.8797Z" fill="#C9508B"/>
<path d="M6.12071 15.8797C6.51851 16.2775 6.71724 16.7987 6.7169 17.3197C6.71724 17.8407 6.51851 18.362 6.12071 18.7598L4.79878 20.0817L1.91837 17.2013L3.2403 15.8792C4.03556 15.0841 5.32514 15.0842 6.12071 15.8797Z" fill="#D8E4EF"/>
<path d="M6.12072 15.8797C6.51852 16.2774 6.71725 16.7986 6.71691 17.3196C6.71725 17.8406 6.51852 18.3619 6.12072 18.7597L4.79879 20.0817L3.88669 19.1696L5.20866 17.8477C5.60647 17.4498 5.90738 17.0308 6.07208 16.6747C6.23721 16.3187 6.26643 16.0254 6.12072 15.8797Z" fill="#91B8D8"/>
<path d="M8.91518 9.49585C8.91432 9.5249 8.91389 9.55459 8.91389 9.58381V13.9213C8.30558 12.2938 8.33914 10.6491 8.91518 9.49585Z" fill="#55B774"/>
</g>
<defs>
<clipPath id="clip0_204_5182">
<rect width="22" height="22" fill="white"/>
</clipPath>
</defs>
</svg>
