<svg width="25" height="24" viewBox="0 0 25 24" fill="none" xmlns="http://www.w3.org/2000/svg">
<g clip-path="url(#clip0_288_1163)">
<path d="M21.3 19.9998C21.3 20.265 21.1947 20.5194 21.0071 20.7069C20.8196 20.8944 20.5652 20.9998 20.3 20.9998H4.30002C4.0348 20.9998 3.78045 20.8944 3.59291 20.7069C3.40538 20.5194 3.30002 20.265 3.30002 19.9998V9.48978C3.29991 9.3374 3.33464 9.187 3.40153 9.05008C3.46843 8.91317 3.56574 8.79335 3.68602 8.69978L11.686 2.47778C11.8616 2.34123 12.0776 2.26709 12.3 2.26709C12.5224 2.26709 12.7385 2.34123 12.914 2.47778L20.914 8.69978C21.0343 8.79335 21.1316 8.91317 21.1985 9.05008C21.2654 9.187 21.3001 9.3374 21.3 9.48978V19.9998ZM11.3 12.9998V18.9998H13.3V12.9998H11.3Z" fill="#10847E"/>
</g>
<defs>
<clipPath id="clip0_288_1163">
<rect width="24" height="24" fill="white" transform="translate(0.300018)"/>
</clipPath>
</defs>
</svg>
