<svg width="25" height="24" viewBox="0 0 25 24" fill="none" xmlns="http://www.w3.org/2000/svg">
<path d="M13.3 19H19.3V9.97803L12.3 4.53403L5.29999 9.97803V19H11.3V13H13.3V19ZM21.3 20C21.3 20.2652 21.1946 20.5196 21.0071 20.7071C20.8196 20.8947 20.5652 21 20.3 21H4.29999C4.03477 21 3.78042 20.8947 3.59288 20.7071C3.40534 20.5196 3.29999 20.2652 3.29999 20V9.49003C3.29988 9.33764 3.3346 9.18724 3.4015 9.05033C3.4684 8.91341 3.56571 8.79359 3.68599 8.70003L11.686 2.47803C11.8615 2.34147 12.0776 2.26733 12.3 2.26733C12.5224 2.26733 12.7384 2.34147 12.914 2.47803L20.914 8.70003C21.0343 8.79359 21.1316 8.91341 21.1985 9.05033C21.2654 9.18724 21.3001 9.33764 21.3 9.49003V20Z" fill="#656565"/>
</svg>
