<svg width="16" height="14" viewBox="0 0 16 14" fill="none" xmlns="http://www.w3.org/2000/svg">
<path d="M15.5 13.75H0.5V12.25H1.25V1C1.25 0.801088 1.32902 0.610322 1.46967 0.46967C1.61032 0.329018 1.80109 0.25 2 0.25H12.5C12.6989 0.25 12.8897 0.329018 13.0303 0.46967C13.171 0.610322 13.25 0.801088 13.25 1V4.75H14.75V12.25H15.5V13.75ZM11.75 12.25H13.25V6.25H8.75V12.25H10.25V7.75H11.75V12.25ZM11.75 4.75V1.75H2.75V12.25H7.25V4.75H11.75ZM4.25 6.25H5.75V7.75H4.25V6.25ZM4.25 9.25H5.75V10.75H4.25V9.25ZM4.25 3.25H5.75V4.75H4.25V3.25Z" fill="#656565"/>
</svg>
