<svg width="23" height="16" viewBox="0 0 23 16" fill="none" xmlns="http://www.w3.org/2000/svg">
<path d="M16.1154 6.30638V7.60117L13.1936 7.2093C13.1176 7.19956 13.0404 7.20607 12.9671 7.22842C12.8938 7.25077 12.8261 7.28843 12.7684 7.33891C12.7108 7.3894 12.6646 7.45155 12.6328 7.52126C12.601 7.59097 12.5843 7.66664 12.584 7.74326V13.8322H11.2869V7.14055C11.2869 7.06381 11.2705 6.98796 11.2388 6.91808C11.2072 6.84819 11.1609 6.78588 11.1032 6.73532C11.0455 6.68476 10.9776 6.64712 10.9042 6.62492C10.8307 6.60272 10.7534 6.59647 10.6773 6.60659L7.75543 6.99846V5.70826L10.8125 5.29117C10.9405 5.27239 11.0573 5.208 11.1415 5.10989C11.2257 5.01177 11.2717 4.88652 11.2708 4.75721V2.3418H12.5679V5.36221C12.5681 5.49126 12.6143 5.61601 12.6984 5.71393C12.7824 5.81185 12.8987 5.87649 13.0263 5.89617L16.1154 6.30638Z" fill="#8296FF"/>
<path d="M10.2694 5.36475L7.75543 5.70391V6.9987L10.2694 6.66183V5.36475ZM11.2869 9.40495H12.584V13.8347H11.2869V9.40495ZM14.0208 6.76037C14.0212 6.91565 14.0777 7.06555 14.1802 7.18228C14.2826 7.29901 14.4238 7.37464 14.5777 7.39516L16.1154 7.60141V6.30662L14.7404 6.12329C14.6502 6.11226 14.5587 6.1205 14.472 6.14748C14.3852 6.17445 14.3052 6.21955 14.2372 6.27978C14.1691 6.34 14.1147 6.41399 14.0774 6.49684C14.0401 6.57969 14.0208 6.66952 14.0208 6.76037Z" fill="#6478DC"/>
<path d="M8.52085 10.6034C9.50627 13.2479 6.59356 15.6817 4.1896 14.1875C3.13146 13.5348 2.2579 12.6222 1.65202 11.5366C1.04613 10.451 0.728058 9.22839 0.728058 7.98513C0.728058 6.74187 1.04613 5.51928 1.65202 4.43365C2.2579 3.34802 3.13146 2.43545 4.1896 1.78273C6.59356 0.306898 9.50627 2.74065 8.52085 5.38523C7.88827 7.06709 7.88827 8.9215 8.52085 10.6034Z" fill="#F7527B"/>
<path d="M8.68126 12.0815C8.40168 14.0408 6.13064 15.3952 4.1896 14.1875C2.72321 13.2847 1.62388 11.8919 1.08651 10.2559C0.54915 8.61987 0.608475 6.84643 1.25397 5.25C0.86646 6.75572 0.972095 8.34603 1.55535 9.78726C2.13861 11.2285 3.16874 12.4447 4.49439 13.2571C4.842 13.4723 5.23055 13.613 5.63538 13.6702C6.04022 13.7274 6.45252 13.6998 6.84615 13.5893C7.23978 13.4788 7.60616 13.2877 7.92206 13.0281C8.23796 12.7685 8.49649 12.4462 8.68126 12.0815Z" fill="#E33967"/>
<path d="M5.33084 5.96495C5.63183 5.96817 5.92628 5.87708 6.17287 5.70447C6.41947 5.53185 6.60584 5.28637 6.70584 5.00245C6.82501 4.65183 7.05188 4.22787 6.68751 3.6985C6.61019 3.57504 6.50923 3.4681 6.39042 3.38382C6.27161 3.29955 6.1373 3.2396 5.99523 3.20744C5.85317 3.17527 5.70614 3.17153 5.56262 3.19642C5.41909 3.22131 5.28191 3.27434 5.15896 3.35245C4.82138 3.56042 4.50647 3.80313 4.21938 4.07662C4.06367 4.23125 3.95754 4.42877 3.91454 4.64396C3.87154 4.85916 3.89362 5.08229 3.97795 5.28489C4.06228 5.48749 4.20505 5.66037 4.38805 5.7815C4.57105 5.90262 4.78598 5.96649 5.00542 5.96495H5.33084Z" fill="#FF7F99"/>
<path d="M5.87396 12.6064C5.82844 12.6067 5.78388 12.5934 5.74595 12.5682C5.70802 12.543 5.67844 12.5072 5.66098 12.4651C5.64353 12.4231 5.63899 12.3768 5.64794 12.3322C5.65689 12.2875 5.67893 12.2466 5.71125 12.2145L5.94042 11.9854C6.17723 11.7509 6.36518 11.4717 6.49342 11.1641C6.62165 10.8565 6.68762 10.5265 6.6875 10.1933C6.6875 10.1325 6.71165 10.0742 6.75463 10.0312C6.7976 9.98826 6.85589 9.96411 6.91667 9.96411C6.97745 9.96411 7.03574 9.98826 7.07872 10.0312C7.12169 10.0742 7.14584 10.1325 7.14584 10.1933C7.14752 10.5884 7.07058 10.9799 6.9195 11.345C6.76842 11.7101 6.54622 12.0415 6.26584 12.3199C6.04813 12.5262 6 12.6064 5.87396 12.6064ZM7.1573 6.67557C7.10896 6.63886 7.04802 6.62283 6.98787 6.63099C6.92772 6.63915 6.87327 6.67085 6.83646 6.71911L6.50646 7.15224C6.4078 7.03019 6.3014 6.91461 6.18792 6.8062C6.16662 6.78472 6.14127 6.76767 6.11334 6.75604C6.08542 6.7444 6.05547 6.73841 6.02521 6.73841C5.99496 6.73841 5.96501 6.7444 5.93708 6.75604C5.90915 6.76767 5.88381 6.78472 5.8625 6.8062C5.81982 6.84914 5.79586 6.90722 5.79586 6.96776C5.79586 7.0283 5.81982 7.08639 5.8625 7.12932L5.96792 7.23474C6.19521 7.45777 6.37588 7.72376 6.49941 8.01726C6.62295 8.31076 6.68689 8.62589 6.6875 8.94432C6.6875 9.0051 6.71165 9.06339 6.75463 9.10637C6.7976 9.14935 6.85589 9.17349 6.91667 9.17349C6.97745 9.17349 7.03574 9.14935 7.07872 9.10637C7.12169 9.06339 7.14584 9.0051 7.14584 8.94432C7.14624 8.4586 7.02323 7.98073 6.78834 7.55557L7.2123 6.99641C7.22988 6.97177 7.24241 6.9439 7.24917 6.9144C7.25592 6.8849 7.25677 6.85436 7.25166 6.82453C7.24654 6.7947 7.23557 6.76618 7.21938 6.74061C7.20318 6.71505 7.18208 6.69294 7.1573 6.67557Z" fill="#D42553"/>
<path d="M15.2606 8.64182V9.93661L12.0637 9.54473C11.9663 9.53195 11.8672 9.54022 11.7731 9.569C11.6791 9.59777 11.5924 9.64639 11.5187 9.71155C11.4451 9.77671 11.3863 9.85691 11.3463 9.94673C11.3063 10.0366 11.286 10.1339 11.2869 10.2322V15.4618H9.99208V10.4889C9.99193 10.4 9.97275 10.3121 9.93583 10.2312C9.89891 10.1503 9.84511 10.0782 9.77803 10.0198C9.71096 9.96145 9.63217 9.91809 9.54695 9.89266C9.46173 9.86724 9.37206 9.86034 9.28396 9.87244L6.6875 10.2391V8.94432L9.13729 8.59827C9.37764 8.56455 9.5977 8.44508 9.75689 8.26188C9.91608 8.07868 10.0037 7.8441 10.0035 7.6014V0.955566H11.2983V7.19119C11.2981 7.45684 11.3952 7.71336 11.5713 7.91225C11.7474 8.11115 11.9902 8.23862 12.254 8.27057L15.2606 8.64182Z" fill="#FFA7BC"/>
<path d="M7.44604 8.83667L6.6875 8.94438V10.2392L7.63625 10.1063C7.72248 10.0979 7.80613 10.0723 7.88216 10.0307C7.9582 9.98923 8.02504 9.93275 8.07865 9.86471C8.13227 9.79667 8.17156 9.71847 8.19414 9.63484C8.21673 9.55121 8.22215 9.46387 8.21007 9.37809C8.19799 9.29231 8.16867 9.20986 8.12387 9.13572C8.07907 9.06157 8.01972 8.99726 7.9494 8.94667C7.87908 8.89608 7.79924 8.86026 7.7147 8.84135C7.63016 8.82245 7.54267 8.82085 7.4575 8.83667H7.44604ZM13.9246 9.20334C13.9268 9.35907 13.9853 9.50874 14.0894 9.62462C14.1935 9.74049 14.336 9.81472 14.4906 9.83355L15.2606 9.9275V8.64188L14.6465 8.56626C14.5562 8.55525 14.4646 8.5635 14.3777 8.59045C14.2908 8.61741 14.2106 8.66247 14.1424 8.72266C14.0742 8.78285 14.0196 8.85681 13.982 8.93966C13.9445 9.02251 13.9249 9.11238 13.9246 9.20334Z" fill="#FF84A3"/>
<path d="M14.4906 10.6036C13.4938 13.2482 16.4065 15.6819 18.8104 14.1878C19.8686 13.5351 20.7421 12.6225 21.348 11.5369C21.9539 10.4512 22.272 9.22864 22.272 7.98538C22.272 6.74212 21.9539 5.51953 21.348 4.4339C20.7421 3.34827 19.8686 2.4357 18.8104 1.78298C16.4065 0.297983 13.4938 2.73173 14.4906 5.37632C15.1255 7.06091 15.1255 8.91901 14.4906 10.6036Z" fill="#F7527B"/>
<path d="M22.2709 8.00033C22.2752 9.24228 21.959 10.4643 21.3528 11.5483C20.7466 12.6323 19.8709 13.5414 18.8104 14.1878C16.6265 15.5468 14.0209 13.6585 14.3119 11.3187C14.8115 13.0626 16.9106 14.1672 18.7211 13.042C19.7815 12.3956 20.6572 11.4864 21.2635 10.4025C21.8697 9.31851 22.1859 8.09644 22.1815 6.85449C22.2453 7.23302 22.2752 7.61648 22.2709 8.00033Z" fill="#E33967"/>
<path d="M19.6813 8.80218H19.8348C20.0736 8.80227 20.303 8.70916 20.4742 8.54267C20.6454 8.37618 20.7449 8.14945 20.7515 7.91073C20.7639 6.97665 20.5313 6.05563 20.077 5.23941C19.6226 4.42318 18.9623 3.74025 18.1619 3.25864C18.039 3.18088 17.902 3.12814 17.7587 3.10345C17.6155 3.07876 17.4687 3.08259 17.3269 3.11474C17.1851 3.14689 17.051 3.20672 16.9324 3.2908C16.8138 3.37487 16.7129 3.48154 16.6356 3.60468C16.529 3.75378 16.4625 3.92775 16.4425 4.10993C16.4224 4.2921 16.4495 4.47638 16.521 4.6451C16.745 5.23773 16.9063 5.8522 17.0023 6.47843C17.0958 7.12273 17.4178 7.71194 17.9096 8.13854C18.4014 8.56514 19.0302 8.80068 19.6813 8.80218Z" fill="#FF7F99"/>
<path d="M9.99209 7.60135V8.62344C9.99209 8.68422 9.96794 8.74251 9.92496 8.78548C9.88199 8.82846 9.8237 8.8526 9.76292 8.8526C9.70214 8.8526 9.64385 8.82846 9.60087 8.78548C9.5579 8.74251 9.53375 8.68422 9.53375 8.62344V8.45844C9.67603 8.36561 9.79261 8.23842 9.87272 8.08861C9.95283 7.93881 9.99388 7.77122 9.99209 7.60135ZM11.7452 8.07802V8.55469C11.7452 8.61547 11.7211 8.67376 11.6781 8.71673C11.6351 8.75971 11.5768 8.78385 11.516 8.78385C11.4553 8.78385 11.397 8.75971 11.354 8.71673C11.311 8.67376 11.2869 8.61547 11.2869 8.55469V7.17969C11.2846 7.35539 11.3251 7.52901 11.4049 7.68554C11.4848 7.84206 11.6016 7.97677 11.7452 8.07802Z" fill="#F7527B"/>
<path d="M13.0423 6.59553V7.21199C12.915 7.23117 12.7987 7.29534 12.7146 7.39289C12.6305 7.49043 12.5842 7.61487 12.584 7.74365V6.59782C12.584 6.53704 12.6081 6.47875 12.6511 6.43577C12.6941 6.3928 12.7524 6.36865 12.8132 6.36865C12.8739 6.36865 12.9322 6.3928 12.9752 6.43577C13.0182 6.47875 13.0423 6.53704 13.0423 6.59782V6.59553Z" fill="#5F5FB9"/>
<path d="M18.0542 7.87866L17.149 7.4822C17.2131 6.59762 17.4813 6.07053 17.7448 5.46553C17.7655 5.41059 17.7642 5.34983 17.7414 5.29577C17.7186 5.2417 17.6759 5.19846 17.6221 5.17495C17.5683 5.15144 17.5076 5.14946 17.4524 5.16941C17.3972 5.18937 17.3517 5.22974 17.3254 5.2822C17.0183 5.99033 16.7273 6.5747 16.6861 7.59449C16.6826 7.61343 16.6826 7.63285 16.6861 7.65178C16.6762 8.08 16.7131 8.50802 16.7961 8.92824C16.8055 8.98902 16.8387 9.04357 16.8883 9.07988C16.9379 9.1162 17 9.13131 17.0607 9.12189C17.1215 9.11247 17.1761 9.07929 17.2124 9.02965C17.2487 8.98001 17.2638 8.91798 17.2544 8.8572C17.2002 8.5673 17.1657 8.27406 17.1513 7.97949L17.8709 8.29803C17.9258 8.31868 17.9866 8.31746 18.0406 8.29462C18.0947 8.27179 18.1379 8.22908 18.1614 8.1753C18.1849 8.12153 18.1869 8.06079 18.167 8.00559C18.147 7.9504 18.1066 7.90497 18.0542 7.87866Z" fill="#D42553"/>
</svg>
