<svg width="18" height="18" viewBox="0 0 18 18" fill="none" xmlns="http://www.w3.org/2000/svg">
<path d="M16.1302 1.87009C18.278 4.01784 18.278 7.50026 16.1302 9.64801L9.64941 16.1298C7.50075 18.2775 4.01833 18.2775 1.87058 16.1298C-0.277172 13.982 -0.277172 10.4996 1.87058 8.35184L8.35141 1.87009C10.5001 -0.27766 13.9825 -0.27766 16.1302 1.87009ZM10.9456 12.2403L5.75999 7.05476L3.16674 9.64892C1.73491 11.0798 1.73491 13.4018 3.16674 14.8336C4.59858 16.2654 6.9205 16.2654 8.35233 14.8336L10.9456 12.2394V12.2403ZM14.8341 3.16626C13.4022 1.73442 11.0803 1.73442 9.64849 3.16626L7.05708 5.75859L12.2427 10.9442L14.835 8.35184C16.2668 6.92001 16.2668 4.59809 14.835 3.16626H14.8341Z" fill="#656565"/>
</svg>
