<svg width="24" height="24" viewBox="0 0 24 24" fill="none" xmlns="http://www.w3.org/2000/svg">
<path d="M11.4845 1.03125C9.72497 1.03125 8.05819 1.42748 6.56766 2.13473L19.5199 20.7197L19.5198 20.7199C21.6479 18.6353 22.969 15.73 22.969 12.5157C22.9689 6.17302 17.8272 1.03125 11.4845 1.03125Z" fill="#7D62EE"/>
<path d="M16.7309 5.51104L13.3371 4.14697L11.08 10.6144L13.7392 14.0538C13.7392 14.0538 17.3135 9.00425 16.7309 5.51104Z" fill="#6AD9FB"/>
<path d="M21.852 7.56951L16.7309 5.51123C16.7309 5.51123 14.8416 6.4312 15.3043 8.25431L14.7947 10.1089C14.7947 10.1089 13.5639 10.7316 14.056 12.0002L13.3372 12.2832L11.3454 19.5474L13.3291 23.8519C15.7204 23.4656 17.8645 22.3414 19.5199 20.7197L21.2801 16.3402L22.4233 10.4524L21.852 7.56951Z" fill="#BBF0F9"/>
<path d="M23.179 8.10268L21.852 7.56934C21.8518 7.56943 19.6873 8.51434 20.5005 10.3426L20.1107 11.8898C20.1107 11.8898 18.4198 12.8273 19.2965 14.421L19.267 15.3585C19.267 15.3585 19.6618 16.8747 21.2801 16.3401L23.906 9.80682C24.1747 9.13824 23.8475 8.37141 23.179 8.10268Z" fill="#E8F8FC"/>
<path d="M14.4613 7.91535L13.6183 7.57654C13.5285 7.54038 13.4337 7.51803 13.3372 7.51025L12.556 8.42108L13.3372 9.5504L13.7392 9.71202L14.7947 9.09285L14.4613 7.91535Z" fill="#FC51A3"/>
<path d="M15.3043 8.25385L14.4613 7.91504L13.7392 9.71162L14.5822 10.0504C15.0763 10.249 15.6429 10.0073 15.8415 9.51319C16.0402 9.01913 15.7984 8.45246 15.3043 8.25385Z" fill="#FEF156"/>
<path d="M18.2493 4.76367L17.5154 5.29927C17.0853 5.61319 16.9903 6.22191 17.3042 6.65198C17.6181 7.08211 18.2268 7.17717 18.6569 6.86325L19.3908 6.32766L19.4246 5.10441L18.2493 4.76367Z" fill="#FC51A3"/>
<path d="M18.9833 4.22757L18.2494 4.76317L19.3908 6.3272L20.1247 5.7916C20.5548 5.47768 20.6499 4.86896 20.336 4.43889C20.0221 4.00876 19.4133 3.9137 18.9833 4.22757ZM13.8981 11.7526L13.3372 11.5271L12.6811 12.3582L13.3372 13.5971C13.7876 13.6919 14.2581 13.4529 14.4354 13.0119C14.6339 12.5178 14.3922 11.9512 13.8981 11.7526Z" fill="#FEF156"/>
<path d="M18.2513 13.5025L17.4083 13.1637C16.9143 12.9652 16.3476 13.2069 16.149 13.701C15.9504 14.195 16.1922 14.7617 16.6862 14.9603L17.5292 15.2991L18.5847 14.6799L18.2513 13.5025Z" fill="#FC51A3"/>
<path d="M19.0943 13.8413L18.2513 13.5024L17.5292 15.299L18.3722 15.6378C18.8663 15.8364 19.433 15.5947 19.6316 15.1006C19.8301 14.6065 19.5884 14.0399 19.0943 13.8413Z" fill="#FEF156"/>
<path d="M16.8451 17.0011L16.0021 16.6623C15.508 16.4637 14.9413 16.7054 14.7427 17.1995C14.5442 17.6936 14.7859 18.2602 15.28 18.4588L16.123 18.7977L17.1785 18.1785L16.8451 17.0011Z" fill="#FC51A3"/>
<path d="M17.6881 17.3398L16.8451 17.001L16.123 18.7976L16.966 19.1364C17.46 19.3349 18.0267 19.0932 18.2253 18.5991C18.4239 18.1051 18.1822 17.5384 17.6881 17.3398Z" fill="#FEF156"/>
<path d="M15.4389 20.5001L14.5959 20.1613C14.1018 19.9627 13.5351 20.2045 13.3365 20.6985C13.138 21.1926 13.3797 21.7593 13.8738 21.9579L14.7168 22.2967L15.7723 21.6775L15.4389 20.5001Z" fill="#FC51A3"/>
<path d="M16.2819 20.8388L15.4389 20.5L14.7168 22.2966L15.5598 22.6354C16.0539 22.834 16.6205 22.5922 16.8191 22.0982C17.0177 21.604 16.776 21.0374 16.2819 20.8388Z" fill="#FEF156"/>
<path d="M4.98961 3.04346C4.06917 3.67605 3.24534 4.43881 2.54386 5.30789V5.92111L2.00423 6.03282L2.00405 6.03268C0.739828 7.87758 0 10.1101 0 12.5156C0 15.5181 1.15327 18.2505 3.03975 20.2966L4.94058 21.3278C7.49775 20.4344 8.56013 14.6896 8.56013 14.6896L4.98961 3.04346Z" fill="#BBF0F9"/>
<path d="M12.0271 2.13428H6.56765L6.48768 2.17215C5.96708 2.42428 5.46631 2.71544 4.98965 3.04314C4.76085 3.62031 4.4992 4.69225 5.18891 5.60823V6.62387C5.18891 6.62387 3.93112 8.10043 5.18891 9.35823V10.452C5.18891 10.452 3.89985 11.8973 5.18891 13.1863V14.2332C5.18891 14.2332 3.81979 15.6492 5.18891 17.0184V17.9793C5.18891 17.9793 3.95062 19.2332 5.18891 20.6277L5.2026 22.1297C7.00771 23.3118 9.1656 23.9997 11.4845 23.9997C12.1124 23.9997 12.7284 23.9485 13.3291 23.8516C13.3343 23.8044 13.3371 23.7566 13.3371 23.7081V3.44429C13.3371 2.72378 12.7476 2.13428 12.0271 2.13428Z" fill="#E8F8FC"/>
<path d="M4.6169 6.18002L3.86849 5.21191H2.95992C2.81099 5.21191 2.67023 5.24698 2.5439 5.30773C2.35462 5.54229 2.17461 5.78417 2.00428 6.03284C1.99633 6.0815 1.99214 6.13071 1.99176 6.18002C1.99176 6.71248 2.42742 7.14813 2.95987 7.14813H3.86845L4.6169 6.18002Z" fill="#27A6FF"/>
<path d="M4.77702 5.21191H3.86844V7.14818H4.77697C5.30942 7.14818 5.74508 6.71252 5.74508 6.18002C5.74513 5.64757 5.30947 5.21191 4.77702 5.21191Z" fill="#BAEE63"/>
<path d="M20.5005 10.3428L18.8145 9.66518C18.3205 9.46662 17.7538 9.70835 17.5552 10.2024C17.3566 10.6965 17.5984 11.2632 18.0924 11.4618L19.7784 12.1394C20.2725 12.3379 20.8392 12.0962 21.0378 11.6021C21.2364 11.1081 20.9946 10.5414 20.5005 10.3428ZM10.3772 5.21191H8.56012C8.02767 5.21191 7.59201 5.64757 7.59201 6.18007C7.59201 6.71252 8.02767 7.14818 8.56012 7.14818H10.3772C10.9097 7.14818 11.3453 6.71252 11.3453 6.18007C11.3454 5.64757 10.9097 5.21191 10.3772 5.21191Z" fill="#6AD9FB"/>
<path d="M3.86846 8.98242H2.95993C2.42748 8.98242 1.99182 9.41808 1.99182 9.95053C1.99182 10.483 2.42748 10.9187 2.95993 10.9187H3.86846L4.61692 9.95053L3.86846 8.98242Z" fill="#27A6FF"/>
<path d="M4.77702 8.98242H3.86844V10.9187H4.77697C5.30942 10.9187 5.74508 10.483 5.74508 9.95053C5.74513 9.41808 5.30947 8.98242 4.77702 8.98242Z" fill="#BAEE63"/>
<path d="M9.46871 8.98242H8.56018C8.02773 8.98242 7.59207 9.41808 7.59207 9.95053C7.59207 10.483 8.02773 10.9187 8.56018 10.9187H9.46871L10.2172 9.95053L9.46871 8.98242Z" fill="#27A6FF"/>
<path d="M10.3772 8.98242H9.46869V10.9187H10.3772C10.9097 10.9187 11.3453 10.483 11.3453 9.95053C11.3454 9.41808 10.9097 8.98242 10.3772 8.98242Z" fill="#BAEE63"/>
<path d="M16.1154 2.294L16.7631 2.93112C17.1427 3.30448 17.7588 3.29942 18.1322 2.91978C18.5056 2.54014 18.5004 1.92406 18.1209 1.5507L17.4731 0.913574L16.2607 1.07895L16.1154 2.294Z" fill="#27A6FF"/>
<path d="M15.4676 1.65716L16.1153 2.29428L17.4731 0.913862L16.8254 0.276737C16.4458 -0.0966227 15.8297 -0.0915602 15.4563 0.28808C15.0829 0.667674 15.088 1.28375 15.4676 1.65716Z" fill="#BAEE63"/>
<path d="M3.86846 12.7534H2.95993C2.42748 12.7534 1.99182 13.1891 1.99182 13.7215C1.99182 14.254 2.42748 14.6896 2.95993 14.6896H3.86846L4.61692 13.7215L3.86846 12.7534Z" fill="#27A6FF"/>
<path d="M4.77702 12.7534H3.86844V14.6897H4.77697C5.30942 14.6897 5.74508 14.254 5.74508 13.7216C5.74508 13.1891 5.30947 12.7534 4.77702 12.7534Z" fill="#BAEE63"/>
<path d="M9.46871 12.7534H8.56018C8.02773 12.7534 7.59207 13.1891 7.59207 13.7215C7.59207 14.254 8.02773 14.6896 8.56018 14.6896H9.46871L10.2172 13.7215L9.46871 12.7534Z" fill="#27A6FF"/>
<path d="M10.3772 12.7534H9.46869V14.6897H10.3772C10.9097 14.6897 11.3453 14.254 11.3453 13.7216C11.3453 13.1891 10.9097 12.7534 10.3772 12.7534Z" fill="#BAEE63"/>
<path d="M3.86846 16.5239H2.95993C2.42748 16.5239 1.99182 16.9596 1.99182 17.492C1.99182 18.0245 2.42748 18.4601 2.95993 18.4601H3.86846L4.61692 17.492L3.86846 16.5239Z" fill="#27A6FF"/>
<path d="M4.77702 16.5239H3.86844V18.4602H4.77697C5.30942 18.4602 5.74508 18.0245 5.74508 17.4921C5.74513 16.9596 5.30947 16.5239 4.77702 16.5239Z" fill="#BAEE63"/>
<path d="M9.46871 16.5239H8.56018C8.02773 16.5239 7.59207 16.9596 7.59207 17.492C7.59207 18.0245 8.02773 18.4601 8.56018 18.4601H9.46871L10.2172 17.492L9.46871 16.5239Z" fill="#27A6FF"/>
<path d="M10.3772 16.5239H9.46869V18.4602H10.3772C10.9097 18.4602 11.3453 18.0245 11.3453 17.4921C11.3454 16.9596 10.9097 16.5239 10.3772 16.5239Z" fill="#BAEE63"/>
<path d="M4.29075 20.8407L3.86845 20.2944H3.03656C3.29998 20.5803 3.57767 20.8526 3.86859 21.1104L4.29075 20.8407Z" fill="#27A6FF"/>
<path d="M5.20278 22.1306C5.52299 21.9723 5.74508 21.6428 5.74508 21.263C5.74508 20.7306 5.30942 20.2949 4.77697 20.2949H3.86844V21.111C4.28787 21.4828 4.73383 21.8236 5.20278 22.1306Z" fill="#BAEE63"/>
<path d="M9.46871 20.2949H8.56018C8.02773 20.2949 7.59207 20.7306 7.59207 21.263C7.59207 21.7955 8.02773 22.2312 8.56018 22.2312H9.46871L10.2172 21.263L9.46871 20.2949Z" fill="#27A6FF"/>
<path d="M10.3772 20.2949H9.46869V22.2312H10.3772C10.9097 22.2312 11.3453 21.7955 11.3453 21.263C11.3454 20.7306 10.9097 20.2949 10.3772 20.2949Z" fill="#BAEE63"/>
</svg>
