<svg width="22" height="22" viewBox="0 0 22 22" fill="none" xmlns="http://www.w3.org/2000/svg">
<g clip-path="url(#clip0_204_5210)">
<path d="M1.49153 19.2035C1.39264 19.2035 1.2978 19.1642 1.22787 19.0943C1.15794 19.0243 1.11865 18.9295 1.11865 18.8306V12.8645C1.11865 12.7656 1.15794 12.6708 1.22787 12.6008C1.2978 12.5309 1.39264 12.4916 1.49153 12.4916C1.59043 12.4916 1.68527 12.5309 1.7552 12.6008C1.82513 12.6708 1.86441 12.7656 1.86441 12.8645V18.8306C1.86441 18.9295 1.82513 19.0243 1.7552 19.0943C1.68527 19.1642 1.59043 19.2035 1.49153 19.2035ZM16.7797 20.695H13.0509C12.6553 20.695 12.2759 20.5379 11.9962 20.2582C11.7165 19.9784 11.5593 19.5991 11.5593 19.2035V17.2496C11.5593 17.1507 11.5986 17.0558 11.6685 16.9859C11.7385 16.916 11.8333 16.8767 11.9322 16.8767C12.0311 16.8767 12.1259 16.916 12.1959 16.9859C12.2658 17.0558 12.3051 17.1507 12.3051 17.2496V19.2035C12.3051 19.4013 12.3837 19.591 12.5235 19.7308C12.6634 19.8707 12.8531 19.9492 13.0509 19.9492H16.7797C16.8786 19.9492 16.9734 19.9885 17.0433 20.0585C17.1133 20.1284 17.1525 20.2232 17.1525 20.3221C17.1525 20.421 17.1133 20.5159 17.0433 20.5858C16.9734 20.6557 16.8786 20.695 16.7797 20.695ZM18.6441 10.2543H16.4776C16.3787 10.2543 16.2839 10.215 16.214 10.1451C16.144 10.0752 16.1048 9.98034 16.1048 9.88145C16.1048 9.78255 16.144 9.68771 16.214 9.61778C16.2839 9.54785 16.3787 9.50857 16.4776 9.50857H18.6441C18.743 9.50857 18.8378 9.54785 18.9077 9.61778C18.9777 9.68771 19.017 9.78255 19.017 9.88145C19.017 9.98034 18.9777 10.0752 18.9077 10.1451C18.8378 10.215 18.743 10.2543 18.6441 10.2543ZM7.08475 4.57907C6.98586 4.57907 6.89102 4.53979 6.82109 4.46986C6.75116 4.39993 6.71187 4.30509 6.71187 4.20619V2.7967C6.71187 2.40112 6.86901 2.02175 7.14873 1.74203C7.42845 1.46232 7.80782 1.30518 8.2034 1.30518H13.0509C13.1497 1.30518 13.2446 1.34446 13.3145 1.41439C13.3845 1.48432 13.4237 1.57916 13.4237 1.67806C13.4237 1.77695 13.3845 1.8718 13.3145 1.94172C13.2446 2.01165 13.1497 2.05094 13.0509 2.05094H8.2034C8.00561 2.05094 7.81592 2.12951 7.67606 2.26937C7.53621 2.40922 7.45763 2.59891 7.45763 2.7967V4.20619C7.45763 4.30509 7.41835 4.39993 7.34842 4.46986C7.27849 4.53979 7.18365 4.57907 7.08475 4.57907ZM14.1695 8.38992C14.0706 8.38992 13.9758 8.35064 13.9058 8.28071C13.8359 8.21078 13.7966 8.11593 13.7966 8.01704V5.77975C13.7966 5.38418 13.9538 5.0048 14.2335 4.72508C14.5132 4.44537 14.8926 4.28823 15.2881 4.28823H18.6441C18.743 4.28823 18.8378 4.32751 18.9077 4.39744C18.9777 4.46737 19.017 4.56221 19.017 4.66111C19.017 4.76 18.9777 4.85485 18.9077 4.92478C18.8378 4.9947 18.743 5.03399 18.6441 5.03399H15.2881C15.0904 5.03399 14.9007 5.11256 14.7608 5.25242C14.621 5.39228 14.5424 5.58196 14.5424 5.77975V8.01704C14.5424 8.11593 14.5031 8.21078 14.4332 8.28071C14.3632 8.35064 14.2684 8.38992 14.1695 8.38992Z" fill="#FF5364"/>
<path d="M16.7797 11.8754C16.7815 12.4865 16.554 13.076 16.142 13.5273V13.531C16.1423 13.533 16.1421 13.5351 16.1414 13.537C16.1408 13.539 16.1397 13.5407 16.1383 13.5422C16.0645 13.9433 15.9179 14.3275 15.7058 14.6758C15.3862 15.2149 14.9261 15.657 14.3746 15.9547C14.3746 15.957 14.3761 15.9585 14.3783 15.9585C14.5275 16.1583 14.6546 16.3731 14.7586 16.5998C14.8489 16.7922 14.9261 16.9902 14.9898 17.1927C15.0219 17.2889 15.0383 17.3896 15.0383 17.491C15.0382 17.6809 14.9823 17.8666 14.8776 18.0251C14.7728 18.1835 14.6239 18.3077 14.4492 18.3822C14.2529 18.4622 14.0361 18.4771 13.8307 18.4248C13.6253 18.3724 13.4422 18.2555 13.3081 18.0914C13.0017 17.7337 12.6013 17.4689 12.1522 17.3269C11.1641 16.9951 10.6458 16.6669 10.3847 16.2269C10.2554 16.0044 10.1765 15.7562 10.1536 15.4998H10.1088C9.61376 15.4969 9.12342 15.4034 8.66203 15.2239C8.38084 15.5522 8.01788 15.8005 7.60991 15.9434C7.20194 16.0864 6.76343 16.119 6.33879 16.038C5.91414 15.9571 5.51844 15.7653 5.19173 15.4822C4.86502 15.1991 4.61891 14.8347 4.47831 14.4259H4.47458C4.24059 14.5149 3.99627 14.5737 3.74746 14.6012C3.60803 14.6224 3.46713 14.6323 3.3261 14.631C2.44344 14.6291 1.59757 14.2772 0.974025 13.6525C0.350484 13.0278 0.000195492 12.1812 0 11.2986C0.00212654 10.5815 0.233375 9.88379 0.66 9.30739C0.66 9.30366 0.656271 9.30366 0.656271 9.29993C0.605239 9.14851 0.578802 8.98989 0.577966 8.8301C0.57842 8.49647 0.694078 8.17323 0.905383 7.91504C1.11669 7.65686 1.41067 7.47956 1.73763 7.41315C1.74136 7.40942 1.74136 7.40942 1.74508 7.40942C1.73896 7.35246 1.73647 7.29517 1.73763 7.23789C1.73672 7.04172 1.76693 6.84664 1.82712 6.65993C1.94781 6.27998 2.18633 5.94832 2.50813 5.713C2.82993 5.47769 3.21829 5.35094 3.61695 5.35111C3.90021 5.35035 4.17978 5.41545 4.43356 5.54128C4.63871 5.19318 4.91826 4.89472 5.25222 4.66726C5.58617 4.4398 5.96628 4.28896 6.36533 4.22554C6.76438 4.16212 7.17252 4.18768 7.56054 4.3004C7.94856 4.41312 8.30687 4.6102 8.60983 4.87756C8.74927 4.65092 8.94873 4.46729 9.1861 4.34703C9.42348 4.22677 9.68951 4.17455 9.95473 4.19617C10.22 4.21779 10.474 4.3124 10.6888 4.46952C10.9035 4.62664 11.0706 4.84014 11.1715 5.08637C11.3039 5.07013 11.4371 5.06141 11.5705 5.06027C12.4425 5.06145 13.2822 5.39024 13.9231 5.98144C14.564 6.57265 14.9594 7.3831 15.0308 8.25213H15.042C15.2952 8.25345 15.5437 8.32084 15.7628 8.44763C15.9819 8.57443 16.1642 8.75624 16.2915 8.97508C16.4188 9.19392 16.4868 9.44221 16.4887 9.69538C16.4906 9.94855 16.4264 10.1978 16.3024 10.4186C16.6134 10.8405 16.7807 11.3512 16.7797 11.8754Z" fill="#FB7B76"/>
<path d="M4.67968 12.7478C4.48392 13.0718 4.38075 13.4432 4.38137 13.8217C4.38063 14.0268 4.41195 14.2308 4.47459 14.4258C4.2406 14.5147 3.99628 14.5736 3.74747 14.601C3.67253 14.3481 3.63485 14.0855 3.63561 13.8217C3.63561 13.7993 3.63934 13.7732 3.63934 13.7509C3.24824 13.7308 2.87975 13.5614 2.60986 13.2777C2.33997 12.9939 2.18927 12.6174 2.18883 12.2258C2.18883 12.0185 2.35439 11.8492 2.56171 11.8454C2.61045 11.8452 2.65876 11.8545 2.70389 11.8729C2.74902 11.8913 2.79008 11.9184 2.82471 11.9527C2.85935 11.987 2.88688 12.0278 2.90574 12.0727C2.92459 12.1176 2.9344 12.1659 2.93459 12.2146V12.2258C2.93657 12.3312 2.95941 12.4352 3.0018 12.5317C3.04419 12.6283 3.10528 12.7155 3.18156 12.7883C3.25783 12.8611 3.34777 12.9181 3.44618 12.9559C3.54459 12.9938 3.64953 13.0118 3.75493 13.0088C3.82432 12.7819 3.92072 12.564 4.04205 12.36C4.09311 12.2756 4.17554 12.2149 4.27129 12.1911C4.36703 12.1674 4.46829 12.1825 4.5529 12.2332C4.72778 12.3421 4.78408 12.5703 4.67968 12.7478ZM3.26646 7.90782C3.20379 7.95707 3.12615 7.98339 3.04646 7.9824C2.98762 7.98255 2.92958 7.96878 2.87709 7.94221C2.8246 7.91564 2.77913 7.87702 2.74442 7.82951C2.64533 7.69647 2.51652 7.58841 2.36827 7.51396C2.22001 7.43951 2.05642 7.40073 1.89052 7.4007C1.84205 7.4007 1.79357 7.40443 1.7451 7.40816C1.73897 7.3512 1.73648 7.29391 1.73764 7.23663C1.73674 7.04046 1.76694 6.84538 1.82713 6.65867C1.84811 6.65557 1.86932 6.65432 1.89052 6.65494C2.17364 6.65424 2.45291 6.72041 2.70562 6.84806C2.95832 6.97571 3.17731 7.16123 3.34476 7.38951C3.37419 7.42848 3.39553 7.47294 3.40753 7.52027C3.41954 7.56761 3.42196 7.61686 3.41467 7.66514C3.40738 7.71343 3.39051 7.75977 3.36505 7.80144C3.3396 7.84311 3.30608 7.87928 3.26646 7.90782ZM16.1383 13.5421C16.0645 13.9431 15.9179 14.3273 15.7058 14.6756C15.3888 14.7964 15.0532 14.8583 14.7139 14.8583C14.0262 14.8583 13.3621 14.6078 12.8458 14.1536C12.4888 14.3101 12.085 14.3222 11.7193 14.1873C11.3535 14.0524 11.0543 13.7811 10.8844 13.4302C10.8608 13.3862 10.8463 13.3379 10.8417 13.2882C10.8371 13.2384 10.8426 13.1883 10.8578 13.1407C10.8729 13.0931 10.8975 13.0491 10.93 13.0112C10.9625 12.9733 11.0023 12.9423 11.047 12.9201C11.0917 12.8979 11.1405 12.8848 11.1903 12.8818C11.2401 12.8787 11.2901 12.8857 11.3372 12.9024C11.3843 12.919 11.4275 12.9449 11.4644 12.9786C11.5013 13.0122 11.531 13.053 11.5519 13.0983C11.604 13.1971 11.6763 13.2838 11.7641 13.3529C11.8519 13.4219 11.9532 13.4718 12.0614 13.4992C12.1697 13.5266 12.2825 13.531 12.3926 13.512C12.5026 13.4931 12.6075 13.4512 12.7004 13.3892C12.8546 13.2809 12.965 13.121 13.0115 12.9383C13.058 12.7557 13.0376 12.5625 12.9539 12.3936C12.9135 12.3055 12.9089 12.2052 12.9411 12.1138C12.9734 12.0224 13.04 11.9472 13.1267 11.9041C13.2135 11.8609 13.3137 11.8532 13.406 11.8827C13.4983 11.9121 13.5756 11.9763 13.6214 12.0617C13.7505 12.3207 13.8033 12.6111 13.7736 12.899C13.7439 13.1868 13.6329 13.4603 13.4536 13.6875C13.5513 13.7624 13.656 13.8277 13.7668 13.8814C14.1501 14.0709 14.5819 14.14 15.0052 14.0794C15.4285 14.0188 15.8235 13.8315 16.1383 13.5421ZM10.4355 11.5688C11.0197 11.1666 11.4217 10.5503 11.5541 9.85351C11.5643 9.80504 11.5648 9.75501 11.5554 9.70636C11.5461 9.65772 11.5271 9.61142 11.4997 9.57017C11.4722 9.52893 11.4368 9.49357 11.3956 9.46616C11.3543 9.43874 11.308 9.41982 11.2593 9.41051C11.2107 9.40119 11.1607 9.40167 11.1122 9.4119C11.0637 9.42214 11.0178 9.44193 10.977 9.47012C10.9363 9.49831 10.9016 9.53434 10.8749 9.57609C10.8483 9.61785 10.8302 9.66449 10.8218 9.71331C10.754 10.0728 10.5871 10.4062 10.3399 10.6759C10.0928 10.9456 9.77524 11.1409 9.42305 11.2398C9.07085 11.3387 8.69803 11.3372 8.34662 11.2356C7.9952 11.134 7.67917 10.9362 7.43415 10.6645C7.36779 10.5912 7.27502 10.5472 7.17625 10.5423C7.07747 10.5374 6.98079 10.5719 6.90746 10.6382C6.83413 10.7046 6.79016 10.7974 6.78523 10.8961C6.7803 10.9949 6.81481 11.0916 6.88117 11.1649C7.2955 11.6208 7.85272 11.922 8.46107 12.0188C8.33164 12.2466 8.144 12.4359 7.91736 12.5672C7.69072 12.6986 7.43323 12.7674 7.17127 12.7665C7.07238 12.7665 6.97753 12.8057 6.9076 12.8757C6.83767 12.9456 6.79839 13.0405 6.79839 13.1393C6.79839 13.2382 6.83767 13.3331 6.9076 13.403C6.97753 13.4729 7.07238 13.5122 7.17127 13.5122C7.63221 13.5137 8.08217 13.3715 8.45859 13.1055C8.83502 12.8395 9.11923 12.4628 9.27171 12.0278C9.69007 11.9674 10.0886 11.8103 10.4355 11.5688ZM14.7587 16.5997C14.4287 16.7614 14.077 16.8744 13.7146 16.9353C13.6922 16.9353 13.6736 16.939 13.6512 16.939C13.5562 16.9409 13.464 16.9065 13.3935 16.8428C13.323 16.7791 13.2795 16.6908 13.2719 16.5961C13.2643 16.5014 13.2931 16.4073 13.3525 16.3331C13.4119 16.2589 13.4974 16.2102 13.5915 16.197C13.8637 16.1545 14.1285 16.0739 14.3783 15.9583C14.5275 16.1582 14.6546 16.373 14.7587 16.5997ZM11.2946 16.0553C10.9985 16.1451 10.6935 16.2026 10.3848 16.2268C10.2554 16.0043 10.1765 15.7561 10.1536 15.4997H10.1275C10.1648 15.5012 10.2024 15.4986 10.2393 15.4922C10.5237 15.4744 10.8052 15.4243 11.0783 15.3431C11.126 15.3253 11.1769 15.3174 11.2277 15.32C11.2786 15.3226 11.3284 15.3356 11.374 15.3582C11.4197 15.3808 11.4602 15.4125 11.4931 15.4513C11.526 15.4902 11.5507 15.5354 11.5655 15.5841C11.5803 15.6328 11.5849 15.6841 11.5792 15.7346C11.5734 15.7852 11.5573 15.8341 11.5319 15.8783C11.5066 15.9224 11.4724 15.9609 11.4316 15.9913C11.3908 16.0218 11.3441 16.0435 11.2946 16.0553ZM7.2712 7.91901C7.2712 7.82011 7.23192 7.72527 7.16199 7.65534C7.09206 7.58541 6.99721 7.54612 6.89832 7.54612C6.35458 7.54672 5.83329 7.76298 5.44881 8.14746C5.06433 8.53194 4.84806 9.05324 4.84747 9.59697C4.84747 9.69587 4.88676 9.79071 4.95669 9.86064C5.02662 9.93057 5.12146 9.96985 5.22035 9.96985C5.31925 9.96985 5.41409 9.93057 5.48402 9.86064C5.55395 9.79071 5.59324 9.69587 5.59324 9.59697C5.59324 9.25084 5.73073 8.91889 5.97549 8.67414C6.22024 8.42939 6.55219 8.29189 6.89832 8.29189C6.99721 8.29189 7.09206 8.2526 7.16199 8.18267C7.23192 8.11274 7.2712 8.0179 7.2712 7.91901Z" fill="#DF4D60"/>
<path d="M1.49153 21.8136C2.31527 21.8136 2.98305 21.1458 2.98305 20.3221C2.98305 19.4983 2.31527 18.8306 1.49153 18.8306C0.667779 18.8306 0 19.4983 0 20.3221C0 21.1458 0.667779 21.8136 1.49153 21.8136Z" fill="#3B97D3"/>
<path d="M18.2712 21.8136C19.0949 21.8136 19.7627 21.1458 19.7627 20.3221C19.7627 19.4983 19.0949 18.8306 18.2712 18.8306C17.4474 18.8306 16.7797 19.4983 16.7797 20.3221C16.7797 21.1458 17.4474 21.8136 18.2712 21.8136Z" fill="#3B97D3"/>
<path d="M14.5424 3.16957C15.3661 3.16957 16.0339 2.5018 16.0339 1.67805C16.0339 0.854302 15.3661 0.186523 14.5424 0.186523C13.7186 0.186523 13.0508 0.854302 13.0508 1.67805C13.0508 2.5018 13.7186 3.16957 14.5424 3.16957Z" fill="#3B97D3"/>
<path d="M20.5085 6.15248C21.3322 6.15248 22 5.48471 22 4.66096C22 3.83721 21.3322 3.16943 20.5085 3.16943C19.6847 3.16943 19.0169 3.83721 19.0169 4.66096C19.0169 5.48471 19.6847 6.15248 20.5085 6.15248Z" fill="#3B97D3"/>
<path d="M20.1356 11.3732C20.9593 11.3732 21.6271 10.7054 21.6271 9.88166C21.6271 9.05792 20.9593 8.39014 20.1356 8.39014C19.3119 8.39014 18.6441 9.05792 18.6441 9.88166C18.6441 10.7054 19.3119 11.3732 20.1356 11.3732Z" fill="#3B97D3"/>
</g>
<defs>
<clipPath id="clip0_204_5210">
<rect width="22" height="22" fill="white"/>
</clipPath>
</defs>
</svg>
