<svg width="66" height="52" viewBox="0 0 66 52" fill="none" xmlns="http://www.w3.org/2000/svg">
<path d="M53.7477 19.4162C52.906 8.70705 43.9219 0.250236 33 0.250236C28.5047 0.22876 24.125 1.67358 20.5248 4.36565C16.9247 7.05772 14.3005 10.8502 13.0501 15.1682C9.42415 16.4298 6.28034 18.7879 4.05415 21.9156C1.82795 25.0434 0.629564 28.7861 0.625 32.6252C0.625 42.8257 8.92456 51.1252 19.125 51.1252H49.1875C58.1138 51.1252 65.375 43.864 65.375 34.9377C65.384 31.4392 64.2545 28.0327 62.157 25.2326C60.0594 22.4326 57.1078 20.391 53.7477 19.4162ZM41.5724 35.6153C42.0061 36.0489 42.2497 36.637 42.2497 37.2502C42.2497 37.8635 42.0061 38.4516 41.5724 38.8852C41.1388 39.3188 40.5507 39.5624 39.9375 39.5624C39.3243 39.5624 38.7362 39.3188 38.3026 38.8852L33 33.5826L27.6974 38.8852C27.4827 39.0999 27.2278 39.2702 26.9473 39.3864C26.6668 39.5026 26.3661 39.5624 26.0625 39.5624C25.7589 39.5624 25.4582 39.5026 25.1777 39.3864C24.8972 39.2702 24.6423 39.0999 24.4276 38.8852C24.2129 38.6705 24.0425 38.4156 23.9263 38.1351C23.8102 37.8545 23.7503 37.5539 23.7503 37.2502C23.7503 36.9466 23.8102 36.6459 23.9263 36.3654C24.0425 36.0849 24.2129 35.83 24.4276 35.6153L29.7301 30.3127L24.4276 25.0102C24.2129 24.7955 24.0425 24.5406 23.9263 24.2601C23.8102 23.9795 23.7503 23.6789 23.7503 23.3752C23.7503 23.0716 23.8102 22.7709 23.9263 22.4904C24.0425 22.2099 24.2129 21.955 24.4276 21.7403C24.6423 21.5256 24.8972 21.3553 25.1777 21.2391C25.4582 21.1229 25.7589 21.0631 26.0625 21.0631C26.3661 21.0631 26.6668 21.1229 26.9473 21.2391C27.2278 21.3553 27.4827 21.5256 27.6974 21.7403L33 27.0429L38.3026 21.7403C38.7362 21.3067 39.3243 21.0631 39.9375 21.0631C40.5507 21.0631 41.1388 21.3067 41.5724 21.7403C42.0061 22.1739 42.2497 22.762 42.2497 23.3752C42.2497 23.9885 42.0061 24.5766 41.5724 25.0102L36.2699 30.3127L41.5724 35.6153Z" fill="#E6E6E6"/>
</svg>
