<svg width="24" height="24" viewBox="0 0 24 24" fill="none" xmlns="http://www.w3.org/2000/svg">
<g opacity="0.61">
<path d="M10.2608 22.1362L9.99386 22.7528H9.85293L9.58691 22.1362H9.74109L9.92867 22.5766L10.1189 22.1362H10.2608Z" fill="white"/>
<path d="M10.7285 22.5479H10.37C10.3832 22.6069 10.4334 22.643 10.5057 22.643C10.5559 22.643 10.592 22.628 10.6246 22.5972L10.6977 22.6764C10.6537 22.7267 10.5876 22.7531 10.5021 22.7531C10.3383 22.7531 10.2317 22.65 10.2317 22.5091C10.2317 22.3673 10.34 22.2651 10.4845 22.2651C10.6237 22.2651 10.7311 22.3585 10.7311 22.5109C10.7312 22.5215 10.7294 22.5364 10.7285 22.5479ZM10.3683 22.4677H10.6017C10.592 22.4078 10.5471 22.3691 10.4855 22.3691C10.4229 22.3691 10.378 22.4069 10.3683 22.4677Z" fill="white"/>
<path d="M10.7874 22.5091C10.7874 22.3664 10.8975 22.2651 11.0516 22.2651C11.1511 22.2651 11.2295 22.3083 11.2639 22.3858L11.1573 22.4431C11.1318 22.3981 11.0939 22.3779 11.0507 22.3779C10.9811 22.3779 10.9266 22.4263 10.9266 22.5091C10.9266 22.5919 10.9812 22.6404 11.0507 22.6404C11.0939 22.6404 11.1318 22.621 11.1573 22.5752L11.2639 22.6333C11.2295 22.709 11.1511 22.7531 11.0516 22.7531C10.8975 22.7531 10.7874 22.6518 10.7874 22.5091Z" fill="white"/>
<path d="M11.6557 22.7228C11.6275 22.743 11.5861 22.7527 11.5438 22.7527C11.432 22.7527 11.3668 22.6955 11.3668 22.5827V22.3881H11.2937V22.2824H11.3668V22.167H11.5042V22.2824H11.6223V22.3881H11.5042V22.581C11.5042 22.6215 11.5262 22.6435 11.5632 22.6435C11.5835 22.6435 11.6037 22.6374 11.6187 22.6259L11.6557 22.7228Z" fill="white"/>
<path d="M12.5989 22.272V22.3988C12.5875 22.398 12.5786 22.3971 12.5681 22.3971C12.4923 22.3971 12.4421 22.4384 12.4421 22.5292V22.7529H12.3047V22.279H12.4359V22.3416C12.4694 22.2958 12.5258 22.272 12.5989 22.272Z" fill="white"/>
<path d="M12.6384 22.6816L12.6869 22.5742C12.7388 22.612 12.8163 22.6384 12.8903 22.6384C12.9749 22.6384 13.0092 22.6103 13.0092 22.5724C13.0092 22.457 12.6507 22.5363 12.6507 22.3072C12.6507 22.2024 12.7353 22.1152 12.9105 22.1152C12.9881 22.1152 13.0674 22.1337 13.1246 22.1699L13.0805 22.2782C13.0232 22.2456 12.9643 22.2298 12.9096 22.2298C12.8251 22.2298 12.7925 22.2614 12.7925 22.3002C12.7925 22.4138 13.151 22.3355 13.151 22.5618C13.151 22.6649 13.0655 22.753 12.8894 22.753C12.7917 22.753 12.6931 22.7239 12.6384 22.6816Z" fill="white"/>
<path d="M13.7007 22.5479H13.3422C13.3554 22.6069 13.4056 22.643 13.4778 22.643C13.528 22.643 13.5641 22.628 13.5967 22.5972L13.6698 22.6764C13.6258 22.7267 13.5597 22.7531 13.4743 22.7531C13.3105 22.7531 13.2039 22.65 13.2039 22.5091C13.2039 22.3673 13.3122 22.2651 13.4567 22.2651C13.5959 22.2651 13.7033 22.3585 13.7033 22.5109C13.7034 22.5215 13.7016 22.5364 13.7007 22.5479ZM13.3405 22.4677H13.5739C13.5642 22.4078 13.5193 22.3691 13.4576 22.3691C13.3951 22.3691 13.3502 22.4069 13.3405 22.4677Z" fill="white"/>
<path d="M14.2564 22.5479H13.8979C13.9111 22.6069 13.9613 22.643 14.0335 22.643C14.0837 22.643 14.1198 22.628 14.1524 22.5972L14.2255 22.6764C14.1814 22.7267 14.1154 22.7531 14.03 22.7531C13.8661 22.7531 13.7595 22.65 13.7595 22.5091C13.7595 22.3673 13.8679 22.2651 14.0123 22.2651C14.1515 22.2651 14.259 22.3585 14.259 22.5109C14.259 22.5215 14.2572 22.5364 14.2564 22.5479ZM13.8961 22.4677H14.1295C14.1198 22.4078 14.0749 22.3691 14.0132 22.3691C13.9507 22.3691 13.9058 22.4069 13.8961 22.4677Z" fill="white"/>
<path d="M14.5541 22.5673L14.488 22.6325V22.7532H14.3506V22.0996H14.488V22.4695L14.6888 22.2793H14.8527L14.6553 22.4801L14.8703 22.7532H14.7038L14.5541 22.5673Z" fill="white"/>
<path d="M12.317 22.8175L12.1797 22.6802C12.1589 22.7046 12.134 22.7254 12.1061 22.7418C12.1017 22.7451 12.0972 22.7483 12.0925 22.7514L12.2378 22.8967C12.2597 22.9185 12.2952 22.9185 12.317 22.8967C12.3389 22.8748 12.3389 22.8393 12.317 22.8175Z" fill="white"/>
<path d="M11.9995 22.2357C12.0101 22.2274 12.0232 22.2223 12.0377 22.2223C12.0398 22.2223 12.0417 22.2223 12.0437 22.2225C12.0334 22.215 12.0207 22.2106 12.007 22.2106C11.9881 22.2106 11.9713 22.2192 11.9599 22.2326C11.9575 22.2326 11.9551 22.2329 11.9527 22.233C11.9546 22.2293 11.9558 22.2252 11.9558 22.2207C11.9558 22.2095 11.9489 22.1999 11.9391 22.1958C11.9433 22.2018 11.9458 22.2092 11.9458 22.2172C11.9458 22.223 11.9443 22.2285 11.9419 22.2335C11.807 22.2432 11.7004 22.3554 11.7004 22.4927C11.7004 22.6364 11.8169 22.7529 11.9606 22.7529C12.1043 22.7529 12.2208 22.6364 12.2208 22.4927C12.2208 22.3622 12.1247 22.2545 11.9995 22.2357ZM11.9034 22.3035C11.9243 22.3035 11.9439 22.3089 11.961 22.3183C11.9789 22.3066 12.0003 22.2998 12.0233 22.2998C12.0575 22.2998 12.088 22.3147 12.109 22.3385C12.0881 22.3203 12.0608 22.3092 12.0309 22.3092C12.0093 22.3092 11.9891 22.3149 11.9716 22.325C11.9678 22.3272 11.9642 22.3296 11.9606 22.3322C11.9575 22.3299 11.9543 22.3277 11.9509 22.3257C11.9331 22.3152 11.9125 22.3092 11.8904 22.3092C11.876 22.3092 11.8622 22.3118 11.8494 22.3165C11.8657 22.3082 11.884 22.3035 11.9034 22.3035ZM12.0853 22.5167C12.0908 22.5314 12.094 22.5472 12.094 22.5637C12.094 22.6374 12.0343 22.697 11.9606 22.697C11.887 22.697 11.8274 22.6374 11.8274 22.5637C11.8274 22.5472 11.8305 22.5314 11.836 22.5167C11.8063 22.4984 11.7864 22.4657 11.7864 22.4281C11.7864 22.3707 11.833 22.3241 11.8904 22.3241C11.9175 22.3241 11.9422 22.3345 11.9606 22.3515C11.9792 22.3345 12.0038 22.3241 12.0309 22.3241C12.0884 22.3241 12.135 22.3707 12.135 22.4281C12.135 22.4657 12.1151 22.4984 12.0853 22.5167Z" fill="white"/>
<path d="M12.0801 22.4192C12.0801 22.4431 12.0608 22.4625 12.0369 22.4625C12.013 22.4625 11.9937 22.4431 11.9937 22.4192C11.9937 22.3954 12.013 22.376 12.0369 22.376C12.0417 22.376 12.0464 22.3768 12.0507 22.3782C12.0492 22.3812 12.0485 22.3846 12.0485 22.388C12.0485 22.4011 12.0591 22.4117 12.0722 22.4117C12.0746 22.4117 12.077 22.4114 12.0792 22.4107C12.0799 22.4135 12.0801 22.4163 12.0801 22.4192Z" fill="white"/>
<path d="M11.9165 22.4189C11.9165 22.437 11.9018 22.4516 11.8838 22.4516C11.8657 22.4516 11.8511 22.437 11.8511 22.4189C11.8511 22.4009 11.8657 22.3862 11.8838 22.3862C11.8874 22.3862 11.8909 22.3869 11.8942 22.3879C11.8931 22.3902 11.8925 22.3927 11.8925 22.3954C11.8925 22.4052 11.9006 22.4133 11.9105 22.4133C11.9123 22.4133 11.9141 22.413 11.9158 22.4125C11.9162 22.4146 11.9165 22.4167 11.9165 22.4189Z" fill="white"/>
<path d="M11.6892 22.4561H11.6597V22.4856H11.6892V22.4561Z" fill="white"/>
<path d="M12.2613 22.4561H12.2317V22.4856H12.2613V22.4561Z" fill="white"/>
<path d="M12.25 22.4682H12.2433C12.2433 22.3122 12.1165 22.1854 11.9606 22.1854C11.8047 22.1854 11.6779 22.3122 11.6779 22.4682H11.6711C11.6711 22.3908 11.7012 22.3182 11.7559 22.2635C11.8106 22.2088 11.8833 22.1787 11.9606 22.1787C12.0379 22.1787 12.1106 22.2088 12.1653 22.2635C12.2199 22.3182 12.25 22.3908 12.25 22.4682Z" fill="white"/>
<path d="M11.9754 22.1675H11.9458V22.197H11.9754V22.1675Z" fill="white"/>
<path d="M12.1634 22.1787H11.7578V22.1854H12.1634V22.1787Z" fill="white"/>
<path d="M11.7686 22.1837C11.7686 22.1889 11.7643 22.1931 11.7592 22.1931C11.754 22.1931 11.7498 22.1889 11.7498 22.1837C11.7498 22.1785 11.754 22.1743 11.7592 22.1743C11.7643 22.1743 11.7686 22.1785 11.7686 22.1837Z" fill="white"/>
<path d="M12.1726 22.1837C12.1726 22.1889 12.1684 22.1931 12.1632 22.1931C12.158 22.1931 12.1538 22.1889 12.1538 22.1837C12.1538 22.1785 12.158 22.1743 12.1632 22.1743C12.1684 22.1743 12.1726 22.1785 12.1726 22.1837Z" fill="white"/>
<path d="M15.0893 22.7241C15.0893 22.7989 14.9758 22.7989 14.9758 22.7241C14.9759 22.6493 15.0893 22.6493 15.0893 22.7241Z" fill="white"/>
<path d="M7.76363 22.3945L7.84869 22.6868L7.93773 22.3945H8.04405L7.90854 22.7853H7.7967L7.75653 22.6702L7.72187 22.5403L7.68721 22.6702L7.64704 22.7853H7.5352L7.39893 22.3945H7.50601L7.59505 22.6868L7.67934 22.3945H7.76363Z" fill="white"/>
<path d="M8.48238 22.3945L8.56744 22.6868L8.65648 22.3945H8.7628L8.62729 22.7853H8.51545L8.47528 22.6702L8.44062 22.5403L8.40596 22.6702L8.36579 22.7853H8.25395L8.11768 22.3945H8.22476L8.3138 22.6868L8.39809 22.3945H8.48238Z" fill="white"/>
<path d="M9.20113 22.3945L9.28619 22.6868L9.37523 22.3945H9.48155L9.34604 22.7853H9.2342L9.19403 22.6702L9.15937 22.5403L9.12471 22.6702L9.08454 22.7853H8.9727L8.83643 22.3945H8.94351L9.03255 22.6868L9.11684 22.3945H9.20113Z" fill="white"/>
<path d="M9.64375 22.7289C9.64375 22.8038 9.53027 22.8038 9.53027 22.7289C9.53032 22.6542 9.64375 22.6542 9.64375 22.7289Z" fill="white"/>
<path d="M15.4903 22.7238C15.4454 22.7679 15.3982 22.7852 15.3407 22.7852C15.2281 22.7852 15.1343 22.7175 15.1343 22.5797C15.1343 22.4418 15.228 22.374 15.3407 22.374C15.3958 22.374 15.4384 22.3898 15.4809 22.4316L15.4202 22.4954C15.3974 22.4748 15.369 22.4646 15.3423 22.4646C15.2777 22.4646 15.2305 22.5119 15.2305 22.5797C15.2305 22.6537 15.2809 22.693 15.3407 22.693C15.3714 22.693 15.4022 22.6844 15.4258 22.6608L15.4903 22.7238Z" fill="white"/>
<path d="M15.9268 22.5828C15.9268 22.6946 15.8504 22.7852 15.7244 22.7852C15.5983 22.7852 15.5227 22.6946 15.5227 22.5828C15.5227 22.4717 15.5999 22.3804 15.7236 22.3804C15.8473 22.3804 15.9268 22.4717 15.9268 22.5828ZM15.6188 22.5828C15.6188 22.6419 15.6543 22.697 15.7244 22.697C15.7944 22.697 15.8299 22.6419 15.8299 22.5828C15.8299 22.5245 15.7889 22.4678 15.7244 22.4678C15.655 22.4678 15.6188 22.5245 15.6188 22.5828Z" fill="white"/>
<path d="M16.2515 22.7851V22.5771C16.2515 22.5259 16.2247 22.4795 16.172 22.4795C16.12 22.4795 16.0893 22.5259 16.0893 22.5771V22.7851H15.9932V22.3959H16.0822L16.0893 22.4432C16.1098 22.4039 16.1547 22.3896 16.1917 22.3896C16.2382 22.3896 16.2847 22.4086 16.3067 22.4621C16.3414 22.407 16.3863 22.3912 16.4367 22.3912C16.5469 22.3912 16.6013 22.459 16.6013 22.5755V22.785H16.5052V22.5755C16.5052 22.5243 16.484 22.4809 16.4319 22.4809C16.38 22.4809 16.3476 22.5258 16.3476 22.5771V22.785H16.2515V22.7851Z" fill="white"/>
</g>
<g opacity="0.61">
<path d="M16.6075 20.7025C16.6072 20.6437 16.5615 20.6007 16.5024 20.5997C16.4581 20.5991 16.4625 20.6055 16.4624 20.5581C16.4623 20.5055 16.4621 20.4528 16.4625 20.4001C16.4627 20.3819 16.4572 20.3669 16.4452 20.3533C16.3328 20.2252 16.2206 20.0969 16.1083 19.9687C16.1025 19.9622 16.0951 19.957 16.0884 19.9512C15.7901 19.9512 15.4919 19.9512 15.1936 19.9512C15.1555 19.9652 15.1389 19.9928 15.139 20.0332C15.1395 20.2131 15.1392 20.393 15.1392 20.5729C15.1392 20.5996 15.139 20.6011 15.1128 20.5993C15.0409 20.5944 14.992 20.6466 14.9929 20.7189C14.995 20.8858 14.9936 21.0527 14.9936 21.2195C14.9937 21.2954 15.0352 21.3368 15.1112 21.3371C15.1391 21.3372 15.1391 21.3372 15.1391 21.3659C15.1391 21.4724 15.1391 21.5789 15.1392 21.6854C15.1392 21.7426 15.167 21.7704 15.2241 21.7704C15.6087 21.7705 15.9933 21.7705 16.378 21.7704C16.434 21.7704 16.4622 21.7424 16.4623 21.6867C16.4624 21.5784 16.4623 21.4701 16.4624 21.3618C16.4624 21.3372 16.4625 21.3373 16.4873 21.3371C16.5003 21.337 16.5133 21.3375 16.5261 21.3343C16.574 21.3225 16.6073 21.2842 16.6075 21.235C16.6082 21.0575 16.6083 20.88 16.6075 20.7025ZM15.2419 20.0239C15.498 20.0239 15.7542 20.0239 16.0103 20.0239C16.0366 20.0239 16.0369 20.0242 16.0369 20.0508C16.037 20.1585 16.0369 20.2661 16.037 20.3739C16.037 20.4128 16.0489 20.4247 16.0879 20.4247C16.1795 20.4247 16.2713 20.4247 16.3629 20.4247C16.3849 20.4247 16.3859 20.4257 16.386 20.4479C16.3862 20.4905 16.3861 20.5331 16.386 20.5757C16.386 20.5986 16.3849 20.5996 16.3618 20.5997C16.1749 20.5997 15.9879 20.5997 15.801 20.5997C15.6147 20.5997 15.4283 20.5997 15.242 20.5997C15.2156 20.5997 15.2155 20.5996 15.2155 20.5727C15.2154 20.3988 15.2154 20.2249 15.2155 20.0509C15.2155 20.0241 15.2157 20.0239 15.2419 20.0239ZM16.3595 21.6759C16.1732 21.676 15.9868 21.6759 15.8003 21.6759C15.6145 21.6759 15.4287 21.6759 15.2429 21.6759C15.2155 21.6759 15.2154 21.6758 15.2154 21.6481C15.2153 21.5523 15.2153 21.4564 15.2154 21.3605C15.2154 21.3383 15.2165 21.3372 15.2384 21.3372C15.6129 21.3371 15.9875 21.3371 16.362 21.3372C16.385 21.3372 16.386 21.3381 16.386 21.3613C16.3861 21.4572 16.386 21.553 16.386 21.6489C16.3861 21.6757 16.3858 21.6759 16.3595 21.6759Z" fill="white"/>
<path d="M15.8004 20.0186H15.7161V20.0691H15.8004V20.0186Z" fill="white"/>
<path d="M15.7159 20.0693H15.6316V20.1199H15.7159V20.0693Z" fill="white"/>
<path d="M15.8004 20.1196H15.7161V20.1702H15.8004V20.1196Z" fill="white"/>
<path d="M15.7159 20.1704H15.6316V20.221H15.7159V20.1704Z" fill="white"/>
<path d="M15.8004 20.2212H15.7161V20.2718H15.8004V20.2212Z" fill="white"/>
<path d="M15.7159 20.2715H15.6316V20.3221H15.7159V20.2715Z" fill="white"/>
<path d="M15.8004 20.3223H15.7161V20.3729H15.8004V20.3223Z" fill="white"/>
<path d="M15.7159 20.373H15.6316V20.4236H15.7159V20.373Z" fill="white"/>
<path d="M15.8004 20.4233H15.7161V20.4739H15.8004V20.4233Z" fill="white"/>
<path d="M15.7159 20.4741H15.6316V20.5247H15.7159V20.4741Z" fill="white"/>
<path d="M15.8004 20.5244H15.7161V20.575H15.8004V20.5244Z" fill="white"/>
<path d="M15.7159 20.5752H15.6316V20.6258H15.7159V20.5752Z" fill="white"/>
<path d="M9.00668 20.7025C9.00639 20.6437 8.96065 20.6007 8.90161 20.5997C8.85725 20.5991 8.86167 20.6055 8.86157 20.5581C8.86143 20.5055 8.86124 20.4528 8.86172 20.4001C8.86186 20.3819 8.85634 20.3669 8.84434 20.3533C8.73193 20.2252 8.6198 20.0969 8.50743 19.9687C8.50167 19.9622 8.49423 19.957 8.48756 19.9512C8.18929 19.9512 7.89106 19.9512 7.59279 19.9512C7.55468 19.9652 7.53807 19.9928 7.53817 20.0332C7.53865 20.2131 7.53836 20.393 7.53836 20.5729C7.53836 20.5996 7.53821 20.6011 7.51196 20.5993C7.4401 20.5944 7.39119 20.6466 7.3921 20.7189C7.39421 20.8858 7.39273 21.0527 7.39277 21.2195C7.39282 21.2954 7.43439 21.3368 7.51037 21.3371C7.53831 21.3372 7.53831 21.3372 7.53831 21.3659C7.53831 21.4724 7.53826 21.5789 7.53836 21.6854C7.53841 21.7426 7.5662 21.7704 7.62322 21.7704C8.00785 21.7705 8.39252 21.7705 8.77714 21.7704C8.83321 21.7704 8.86138 21.7424 8.86148 21.6867C8.86157 21.5784 8.86148 21.4701 8.86153 21.3618C8.86153 21.3372 8.86162 21.3373 8.88649 21.3371C8.89949 21.337 8.91245 21.3375 8.92532 21.3343C8.97313 21.3225 9.00644 21.2842 9.00663 21.235C9.0074 21.0575 9.00754 20.88 9.00668 20.7025ZM7.64108 20.0239C7.89725 20.0239 8.15343 20.0239 8.40956 20.0239C8.43586 20.0239 8.43615 20.0242 8.43615 20.0508C8.4362 20.1585 8.4361 20.2661 8.4362 20.3739C8.43625 20.4128 8.44815 20.4247 8.48708 20.4247C8.57876 20.4247 8.67049 20.4247 8.76217 20.4247C8.78415 20.4247 8.78516 20.4257 8.78525 20.4479C8.7854 20.4905 8.78535 20.5331 8.78525 20.5757C8.78521 20.5986 8.7841 20.5996 8.76106 20.5997C8.5741 20.5997 8.38714 20.5997 8.20023 20.5997C8.01389 20.5997 7.82751 20.5997 7.64117 20.5997C7.61477 20.5997 7.61468 20.5996 7.61468 20.5727C7.61463 20.3988 7.61463 20.2249 7.61468 20.0509C7.61463 20.0241 7.61482 20.0239 7.64108 20.0239ZM8.75876 21.6759C8.57237 21.676 8.38599 21.6759 8.19956 21.6759C8.01375 21.6759 7.82794 21.6759 7.64213 21.6759C7.61468 21.6759 7.61458 21.6758 7.61458 21.6481C7.61453 21.5523 7.61453 21.4564 7.61463 21.3605C7.61463 21.3383 7.61573 21.3372 7.63757 21.3372C8.01212 21.3371 8.38671 21.3371 8.76125 21.3372C8.7842 21.3372 8.78521 21.3381 8.78521 21.3613C8.7853 21.4572 8.78525 21.553 8.78521 21.6489C8.78525 21.6757 8.78501 21.6759 8.75876 21.6759Z" fill="white"/>
<path d="M7.66943 21.1525V20.7734H7.80283C7.82083 20.7734 7.83767 20.7764 7.85337 20.7822C7.86906 20.788 7.88275 20.7962 7.89441 20.8068C7.90603 20.8174 7.91524 20.83 7.92191 20.8447C7.92863 20.8593 7.93199 20.8755 7.93199 20.8931C7.93199 20.9111 7.92863 20.9274 7.92191 20.9421C7.91519 20.9567 7.90603 20.9693 7.89441 20.9799C7.88275 20.9905 7.86906 20.9987 7.85337 21.0046C7.83767 21.0104 7.82083 21.0133 7.80283 21.0133H7.74091V21.1525H7.66943V21.1525ZM7.80388 20.9455C7.8226 20.9455 7.83671 20.9401 7.84622 20.9296C7.85577 20.919 7.86052 20.9068 7.86052 20.8931C7.86052 20.8863 7.85937 20.8798 7.85707 20.8735C7.85476 20.8671 7.85126 20.8616 7.84646 20.8568C7.84171 20.8521 7.83575 20.8483 7.8287 20.8454C7.82164 20.8426 7.81334 20.8412 7.80383 20.8412H7.74086V20.9455H7.80388Z" fill="white"/>
<path d="M7.98291 20.7734H8.066L8.21849 21.0275H8.22272L8.21849 20.9545V20.7734H8.28944V21.1525H8.21427L8.05333 20.8841H8.0491L8.05333 20.9571V21.1525H7.98291V20.7734Z" fill="white"/>
<path d="M8.54032 20.9441H8.72618C8.72724 20.9484 8.7281 20.9535 8.72882 20.9595C8.72949 20.9655 8.72988 20.9715 8.72988 20.9775C8.72988 21.0018 8.72618 21.0248 8.71879 21.0463C8.7114 21.0679 8.69973 21.0871 8.68385 21.104C8.6669 21.122 8.6466 21.136 8.62298 21.1458C8.59932 21.1557 8.57234 21.1606 8.54196 21.1606C8.5144 21.1606 8.48849 21.1557 8.4641 21.1458C8.43977 21.1359 8.4186 21.1222 8.4006 21.1045C8.3826 21.0869 8.36829 21.066 8.35769 21.0418C8.34708 21.0176 8.3418 20.9913 8.3418 20.9626C8.3418 20.9341 8.34708 20.9077 8.35769 20.8835C8.36829 20.8593 8.38255 20.8384 8.4006 20.8208C8.4186 20.8031 8.43977 20.7894 8.4641 20.7795C8.48844 20.7696 8.5144 20.7646 8.54196 20.7646C8.57268 20.7646 8.60009 20.7699 8.62428 20.7805C8.64847 20.7911 8.66916 20.8058 8.68648 20.8245L8.63729 20.8726C8.6249 20.8596 8.61117 20.8496 8.59596 20.8427C8.58079 20.8359 8.5626 20.8324 8.54143 20.8324C8.5241 20.8324 8.50769 20.8355 8.49218 20.8417C8.47663 20.8479 8.46305 20.8566 8.45138 20.8679C8.43977 20.8792 8.43045 20.8929 8.42359 20.9089C8.41673 20.925 8.41327 20.9429 8.41327 20.9626C8.41327 20.9824 8.41673 21.0003 8.42359 21.0164C8.43045 21.0325 8.43981 21.0462 8.45162 21.0574C8.46343 21.0687 8.47711 21.0775 8.49266 21.0837C8.50817 21.0898 8.52477 21.0929 8.54244 21.0929C8.56255 21.0929 8.57954 21.09 8.59351 21.0842C8.60743 21.0784 8.61933 21.0708 8.62922 21.0617C8.63633 21.0553 8.64242 21.0473 8.64751 21.0376C8.6526 21.0279 8.65658 21.017 8.65941 21.005H8.54028L8.54032 20.9441Z" fill="white"/>
<path d="M10.753 20.7025C10.7527 20.6437 10.707 20.6007 10.6479 20.5997C10.6036 20.5991 10.608 20.6055 10.6079 20.5581C10.6078 20.5055 10.6076 20.4528 10.6081 20.4001C10.6082 20.3819 10.6027 20.3669 10.5907 20.3533C10.4783 20.2252 10.3661 20.0969 10.2538 19.9687C10.248 19.9622 10.2406 19.957 10.2339 19.9512C9.93562 19.9512 9.6374 19.9512 9.33913 19.9512C9.30102 19.9652 9.28441 19.9928 9.2845 20.0332C9.28498 20.2131 9.2847 20.393 9.2847 20.5729C9.2847 20.5996 9.28455 20.6011 9.2583 20.5993C9.18644 20.5944 9.13753 20.6466 9.13844 20.7189C9.14055 20.8858 9.13906 21.0527 9.13911 21.2195C9.13916 21.2954 9.18073 21.3368 9.25671 21.3371C9.28465 21.3372 9.28465 21.3372 9.28465 21.3659C9.28465 21.4724 9.2846 21.5789 9.2847 21.6854C9.28474 21.7426 9.31254 21.7704 9.36956 21.7704C9.75418 21.7705 10.1389 21.7705 10.5235 21.7704C10.5795 21.7704 10.6077 21.7424 10.6078 21.6867C10.6079 21.5784 10.6078 21.4701 10.6079 21.3618C10.6079 21.3372 10.608 21.3373 10.6328 21.3371C10.6458 21.337 10.6588 21.3375 10.6717 21.3343C10.7195 21.3225 10.7528 21.2842 10.753 21.235C10.7537 21.0575 10.7538 20.88 10.753 20.7025ZM9.38737 20.0239C9.64354 20.0239 9.89972 20.0239 10.1558 20.0239C10.1822 20.0239 10.1824 20.0242 10.1824 20.0508C10.1825 20.1585 10.1824 20.2661 10.1825 20.3739C10.1825 20.4128 10.1944 20.4247 10.2334 20.4247C10.325 20.4247 10.4168 20.4247 10.5085 20.4247C10.5304 20.4247 10.5314 20.4257 10.5315 20.4479C10.5317 20.4905 10.5316 20.5331 10.5315 20.5757C10.5315 20.5986 10.5304 20.5996 10.5074 20.5997C10.3204 20.5997 10.1334 20.5997 9.94652 20.5997C9.76018 20.5997 9.5738 20.5997 9.38746 20.5997C9.36106 20.5997 9.36097 20.5996 9.36097 20.5727C9.36092 20.3988 9.36092 20.2249 9.36097 20.0509C9.36097 20.0241 9.36116 20.0239 9.38737 20.0239ZM10.5051 21.6759C10.3187 21.676 10.1323 21.6759 9.9459 21.6759C9.76009 21.6759 9.57428 21.6759 9.38847 21.6759C9.36102 21.6759 9.36092 21.6758 9.36092 21.6481C9.36087 21.5523 9.36087 21.4564 9.36097 21.3605C9.36097 21.3383 9.36207 21.3372 9.38391 21.3372C9.75846 21.3371 10.133 21.3371 10.5076 21.3372C10.5305 21.3372 10.5315 21.3381 10.5315 21.3613C10.5316 21.4572 10.5316 21.553 10.5315 21.6489C10.5316 21.6757 10.5314 21.6759 10.5051 21.6759Z" fill="white"/>
<path d="M9.84554 20.7734H9.92709L10.0695 21.1525H9.9906L9.95935 21.062H9.81324L9.78199 21.1525H9.70312L9.84554 20.7734ZM9.93607 20.9964L9.90218 20.9016L9.88841 20.8555H9.88418L9.87041 20.9016L9.83652 20.9964H9.93607Z" fill="white"/>
<path d="M10.1441 20.858C10.1381 20.858 10.1323 20.8568 10.1269 20.8545C10.1214 20.8522 10.1166 20.8491 10.1126 20.845C10.1085 20.8409 10.1053 20.8362 10.1031 20.831C10.1008 20.8257 10.0996 20.8198 10.0996 20.8135C10.0996 20.8072 10.1008 20.8013 10.1031 20.796C10.1054 20.7907 10.1085 20.786 10.1126 20.782C10.1166 20.778 10.1214 20.7748 10.1269 20.7725C10.1323 20.7702 10.1381 20.769 10.1441 20.769C10.1564 20.769 10.167 20.7734 10.1759 20.782C10.1847 20.7907 10.1891 20.8012 10.1891 20.8135C10.1891 20.8258 10.1847 20.8363 10.1759 20.845C10.167 20.8537 10.1565 20.858 10.1441 20.858ZM10.1097 21.1524V20.893H10.1791V21.1524H10.1097Z" fill="white"/>
<path d="M12.5301 20.7025C12.5298 20.6437 12.4841 20.6007 12.425 20.5997C12.3807 20.5991 12.3851 20.6055 12.385 20.5581C12.3849 20.5055 12.3847 20.4528 12.3852 20.4001C12.3853 20.3819 12.3798 20.3669 12.3678 20.3533C12.2554 20.2252 12.1432 20.0969 12.0309 19.9687C12.0251 19.9622 12.0177 19.957 12.011 19.9512C11.7127 19.9512 11.4145 19.9512 11.1162 19.9512C11.0781 19.9652 11.0615 19.9928 11.0616 20.0332C11.0621 20.2131 11.0618 20.393 11.0618 20.5729C11.0618 20.5996 11.0617 20.6011 11.0354 20.5993C10.9635 20.5944 10.9146 20.6466 10.9155 20.7189C10.9177 20.8858 10.9162 21.0527 10.9162 21.2195C10.9163 21.2954 10.9578 21.3368 11.0338 21.3371C11.0617 21.3372 11.0617 21.3372 11.0617 21.3659C11.0617 21.4724 11.0617 21.5789 11.0618 21.6854C11.0618 21.7426 11.0896 21.7704 11.1467 21.7704C11.5313 21.7705 11.916 21.7705 12.3006 21.7704C12.3566 21.7704 12.3848 21.7424 12.3849 21.6867C12.385 21.5784 12.3849 21.4701 12.385 21.3618C12.385 21.3372 12.3851 21.3373 12.4099 21.3371C12.4229 21.337 12.4359 21.3375 12.4488 21.3343C12.4966 21.3225 12.5299 21.2842 12.5301 21.235C12.5308 21.0575 12.5309 20.88 12.5301 20.7025ZM11.1645 20.0239C11.4206 20.0239 11.6768 20.0239 11.9329 20.0239C11.9593 20.0239 11.9595 20.0242 11.9595 20.0508C11.9596 20.1585 11.9595 20.2661 11.9596 20.3739C11.9596 20.4128 11.9715 20.4247 12.0105 20.4247C12.1021 20.4247 12.1939 20.4247 12.2856 20.4247C12.3075 20.4247 12.3085 20.4257 12.3086 20.4479C12.3088 20.4905 12.3087 20.5331 12.3086 20.5757C12.3086 20.5986 12.3075 20.5996 12.2845 20.5997C12.0975 20.5997 11.9105 20.5997 11.7236 20.5997C11.5373 20.5997 11.3509 20.5997 11.1646 20.5997C11.1382 20.5997 11.1381 20.5996 11.1381 20.5727C11.138 20.3988 11.138 20.2249 11.1381 20.0509C11.138 20.0241 11.1383 20.0239 11.1645 20.0239ZM12.2821 21.6759C12.0958 21.676 11.9094 21.6759 11.7229 21.6759C11.5371 21.6759 11.3513 21.6759 11.1655 21.6759C11.1381 21.6759 11.138 21.6758 11.138 21.6481C11.1379 21.5523 11.1379 21.4564 11.138 21.3605C11.138 21.3383 11.1391 21.3372 11.161 21.3372C11.5355 21.3371 11.9101 21.3371 12.2846 21.3372C12.3076 21.3372 12.3086 21.3381 12.3086 21.3613C12.3087 21.4572 12.3086 21.553 12.3086 21.6489C12.3087 21.6757 12.3085 21.6759 12.2821 21.6759Z" fill="white"/>
<path d="M11.3455 21.1605C11.3292 21.1605 11.3137 21.1582 11.2989 21.1536C11.284 21.1491 11.2704 21.1422 11.2581 21.133C11.2458 21.1238 11.235 21.1126 11.2258 21.0994C11.2166 21.0862 11.2094 21.0707 11.2041 21.0531L11.2713 21.0266C11.2763 21.0457 11.2849 21.0615 11.2973 21.074C11.3096 21.0865 11.3259 21.0928 11.346 21.0928C11.3534 21.0928 11.3605 21.0919 11.3674 21.0899C11.3743 21.088 11.3805 21.0851 11.386 21.0814C11.3914 21.0778 11.3958 21.073 11.3989 21.0674C11.4021 21.0618 11.4037 21.0552 11.4037 21.0478C11.4037 21.0408 11.4024 21.0345 11.4 21.0288C11.3975 21.0232 11.3934 21.0179 11.3876 21.0129C11.3817 21.008 11.3741 21.0032 11.3648 20.9986C11.3554 20.994 11.3439 20.9892 11.3301 20.9843L11.3068 20.9758C11.2966 20.9723 11.2862 20.9675 11.2759 20.9615C11.2654 20.9555 11.256 20.9483 11.2475 20.9398C11.239 20.9314 11.2321 20.9214 11.2266 20.9099C11.2211 20.8985 11.2184 20.8855 11.2184 20.8711C11.2184 20.8562 11.2213 20.8424 11.2271 20.8295C11.2329 20.8166 11.2413 20.8054 11.252 20.7956C11.2628 20.7859 11.2756 20.7783 11.2906 20.7729C11.3057 20.7674 11.3223 20.7646 11.3407 20.7646C11.3597 20.7646 11.3762 20.7672 11.3901 20.7723C11.4041 20.7775 11.4159 20.784 11.4256 20.7919C11.4353 20.7998 11.4432 20.8086 11.4492 20.8181C11.4552 20.8277 11.4596 20.8366 11.4624 20.8451L11.3995 20.8716C11.3959 20.861 11.3895 20.8515 11.3802 20.843C11.3708 20.8345 11.358 20.8303 11.3418 20.8303C11.3262 20.8303 11.3133 20.8339 11.3031 20.8411C11.2929 20.8484 11.2878 20.8578 11.2878 20.8694C11.2878 20.8807 11.2927 20.8904 11.3026 20.8983C11.3125 20.9062 11.3282 20.9139 11.3497 20.9213L11.3736 20.9292C11.3888 20.9346 11.4026 20.9406 11.4152 20.9475C11.4277 20.9544 11.4384 20.9626 11.4475 20.9722C11.4564 20.9817 11.4633 20.9926 11.4681 21.0047C11.4729 21.0169 11.4753 21.0309 11.4753 21.0468C11.4753 21.0666 11.4713 21.0836 11.4633 21.0979C11.4554 21.1122 11.4453 21.1239 11.4329 21.1331C11.4205 21.1423 11.4066 21.1492 11.3911 21.1537C11.3755 21.1582 11.3603 21.1605 11.3455 21.1605Z" fill="white"/>
<path d="M11.4968 20.7734H11.5741L11.6525 21.0016L11.6663 21.0504H11.6705L11.6853 21.0016L11.7669 20.7734H11.8442L11.706 21.1525H11.6308L11.4968 20.7734Z" fill="white"/>
<path d="M12.0528 20.9441H12.2386C12.2397 20.9484 12.2406 20.9535 12.2413 20.9595C12.242 20.9655 12.2424 20.9715 12.2424 20.9775C12.2424 21.0018 12.2386 21.0248 12.2312 21.0463C12.2238 21.0679 12.2122 21.0871 12.1963 21.104C12.1794 21.122 12.1591 21.136 12.1354 21.1458C12.1118 21.1557 12.0848 21.1606 12.0544 21.1606C12.0269 21.1606 12.0009 21.1557 11.9766 21.1458C11.9523 21.1359 11.931 21.1222 11.913 21.1045C11.895 21.0869 11.8807 21.066 11.8701 21.0418C11.8596 21.0176 11.8542 20.9913 11.8542 20.9626C11.8542 20.9341 11.8595 20.9077 11.8701 20.8835C11.8807 20.8593 11.895 20.8384 11.913 20.8208C11.931 20.8031 11.9522 20.7894 11.9766 20.7795C12.0009 20.7696 12.0269 20.7646 12.0544 20.7646C12.0851 20.7646 12.1125 20.7699 12.1367 20.7805C12.1609 20.7911 12.1817 20.8058 12.1989 20.8245L12.1497 20.8726C12.1374 20.8596 12.1236 20.8496 12.1084 20.8427C12.0932 20.8359 12.075 20.8324 12.0538 20.8324C12.0366 20.8324 12.0201 20.8355 12.0046 20.8417C11.9891 20.8479 11.9754 20.8566 11.9638 20.8679C11.9522 20.8792 11.9429 20.8929 11.936 20.9089C11.9292 20.925 11.9257 20.9429 11.9257 20.9626C11.9257 20.9824 11.9292 21.0003 11.936 21.0164C11.9429 21.0325 11.9523 21.0462 11.9641 21.0574C11.9759 21.0687 11.9896 21.0775 12.0051 21.0837C12.0207 21.0898 12.0372 21.0929 12.0549 21.0929C12.075 21.0929 12.092 21.09 12.106 21.0842C12.1199 21.0784 12.1318 21.0708 12.1417 21.0617C12.1488 21.0553 12.1549 21.0473 12.16 21.0376C12.1651 21.0279 12.169 21.017 12.1719 21.005H12.0527V20.9441H12.0528Z" fill="white"/>
<path d="M14.2706 20.7025C14.2703 20.6437 14.2246 20.6007 14.1655 20.5997C14.1212 20.5991 14.1256 20.6055 14.1255 20.5581C14.1253 20.5055 14.1252 20.4528 14.1256 20.4001C14.1258 20.3819 14.1203 20.3669 14.1083 20.3533C13.9958 20.2252 13.8837 20.0969 13.7713 19.9687C13.7656 19.9622 13.7581 19.957 13.7515 19.9512C13.4532 19.9512 13.155 19.9512 12.8567 19.9512C12.8186 19.9652 12.802 19.9928 12.8021 20.0332C12.8026 20.2131 12.8023 20.393 12.8023 20.5729C12.8023 20.5996 12.8021 20.6011 12.7759 20.5993C12.704 20.5944 12.6551 20.6466 12.656 20.7189C12.6581 20.8858 12.6566 21.0527 12.6567 21.2195C12.6567 21.2954 12.6983 21.3368 12.7743 21.3371C12.8022 21.3372 12.8022 21.3372 12.8022 21.3659C12.8022 21.4724 12.8022 21.5789 12.8023 21.6854C12.8023 21.7426 12.8301 21.7704 12.8871 21.7704C13.2718 21.7705 13.6564 21.7705 14.0411 21.7704C14.0971 21.7704 14.1253 21.7424 14.1254 21.6867C14.1255 21.5784 14.1254 21.4701 14.1254 21.3618C14.1254 21.3372 14.1255 21.3373 14.1504 21.3371C14.1634 21.337 14.1764 21.3375 14.1892 21.3343C14.237 21.3225 14.2704 21.2842 14.2705 21.235C14.2713 21.0575 14.2715 20.88 14.2706 20.7025ZM12.905 20.0239C13.1612 20.0239 13.4173 20.0239 13.6735 20.0239C13.6998 20.0239 13.7001 20.0242 13.7001 20.0508C13.7001 20.1585 13.7 20.2661 13.7001 20.3739C13.7002 20.4128 13.7121 20.4247 13.751 20.4247C13.8427 20.4247 13.9344 20.4247 14.0261 20.4247C14.0481 20.4247 14.0491 20.4257 14.0492 20.4479C14.0493 20.4905 14.0493 20.5331 14.0492 20.5757C14.0491 20.5986 14.048 20.5996 14.025 20.5997C13.838 20.5997 13.6511 20.5997 13.4641 20.5997C13.2778 20.5997 13.0914 20.5997 12.9051 20.5997C12.8787 20.5997 12.8786 20.5996 12.8786 20.5727C12.8785 20.3988 12.8785 20.2249 12.8786 20.0509C12.8785 20.0241 12.8787 20.0239 12.905 20.0239ZM14.0227 21.6759C13.8363 21.676 13.6499 21.6759 13.4635 21.6759C13.2777 21.6759 13.0919 21.6759 12.9061 21.6759C12.8786 21.6759 12.8785 21.6758 12.8785 21.6481C12.8785 21.5523 12.8785 21.4564 12.8785 21.3605C12.8785 21.3383 12.8797 21.3372 12.9015 21.3372C13.276 21.3371 13.6506 21.3371 14.0252 21.3372C14.0481 21.3372 14.0491 21.3381 14.0491 21.3613C14.0492 21.4572 14.0492 21.553 14.0491 21.6489C14.0492 21.6757 14.0489 21.6759 14.0227 21.6759Z" fill="white"/>
<path d="M13.1025 20.8412V20.9291H13.2544V20.9968H13.1025V21.0847H13.2713V21.1525H13.031V20.7734H13.2713V20.8412L13.1025 20.8412Z" fill="white"/>
<path d="M13.3372 21.1525V20.7734H13.4706C13.4886 20.7734 13.5054 20.7764 13.5211 20.7822C13.5368 20.788 13.5505 20.7962 13.5621 20.8068C13.5738 20.8174 13.583 20.83 13.5897 20.8447C13.5964 20.8593 13.5997 20.8755 13.5997 20.8931C13.5997 20.9111 13.5964 20.9274 13.5897 20.9421C13.583 20.9567 13.5738 20.9693 13.5621 20.9799C13.5505 20.9905 13.5368 20.9987 13.5211 21.0046C13.5054 21.0104 13.4886 21.0133 13.4706 21.0133H13.4086V21.1525H13.3372V21.1525ZM13.4716 20.9455C13.4903 20.9455 13.5044 20.9401 13.5139 20.9296C13.5235 20.919 13.5282 20.9068 13.5282 20.8931C13.5282 20.8863 13.5271 20.8798 13.5248 20.8735C13.5225 20.8671 13.519 20.8616 13.5142 20.8568C13.5094 20.8521 13.5035 20.8483 13.4964 20.8454C13.4894 20.8426 13.4811 20.8412 13.4716 20.8412H13.4086V20.9455H13.4716Z" fill="white"/>
<path d="M13.7661 21.161C13.7499 21.161 13.7343 21.1587 13.7195 21.1541C13.7047 21.1496 13.6911 21.1427 13.6788 21.1335C13.6664 21.1243 13.6556 21.1131 13.6465 21.0999C13.6373 21.0866 13.63 21.0712 13.6248 21.0536L13.692 21.0271C13.6969 21.0462 13.7056 21.062 13.718 21.0745C13.7303 21.087 13.7465 21.0933 13.7667 21.0933C13.7741 21.0933 13.7812 21.0924 13.7881 21.0904C13.795 21.0885 13.8012 21.0856 13.8067 21.0819C13.8121 21.0782 13.8165 21.0735 13.8196 21.0679C13.8228 21.0623 13.8244 21.0557 13.8244 21.0483C13.8244 21.0413 13.8232 21.0349 13.8207 21.0293C13.8183 21.0237 13.8141 21.0184 13.8083 21.0134C13.8025 21.0084 13.7949 21.0037 13.7856 20.9991C13.7762 20.9945 13.7646 20.9897 13.7509 20.9848L13.7276 20.9763C13.7173 20.9728 13.707 20.968 13.6966 20.962C13.6862 20.956 13.6767 20.9488 13.6683 20.9403C13.6598 20.9319 13.6528 20.9219 13.6474 20.9104C13.6419 20.899 13.6392 20.886 13.6392 20.8716C13.6392 20.8567 13.6421 20.8429 13.6479 20.83C13.6537 20.8171 13.662 20.8058 13.6728 20.7961C13.6835 20.7864 13.6964 20.7788 13.7114 20.7733C13.7264 20.7679 13.7431 20.7651 13.7614 20.7651C13.7805 20.7651 13.797 20.7677 13.8109 20.7728C13.8248 20.778 13.8367 20.7845 13.8464 20.7924C13.8561 20.8003 13.8639 20.8091 13.8699 20.8186C13.8759 20.8282 13.8804 20.8371 13.8832 20.8456L13.8202 20.8721C13.8167 20.8615 13.8102 20.852 13.8009 20.8435C13.7915 20.835 13.7787 20.8308 13.7625 20.8308C13.747 20.8308 13.7341 20.8344 13.7239 20.8416C13.7137 20.8488 13.7085 20.8583 13.7085 20.8699C13.7085 20.8812 13.7135 20.8908 13.7233 20.8988C13.7332 20.9067 13.7489 20.9144 13.7705 20.9218L13.7943 20.9297C13.8095 20.9351 13.8233 20.9411 13.8359 20.948C13.8484 20.9549 13.8591 20.9631 13.8682 20.9726C13.8771 20.9822 13.8841 20.993 13.8888 21.0052C13.8936 21.0174 13.896 21.0314 13.896 21.0473C13.896 21.0671 13.892 21.0841 13.8841 21.0984C13.8761 21.1127 13.866 21.1244 13.8536 21.1336C13.8412 21.1428 13.8273 21.1497 13.8118 21.1542C13.7961 21.1587 13.7809 21.161 13.7661 21.161Z" fill="white"/>
<path d="M15.427 21.0805L15.6192 20.8412H15.4355V20.7734H15.7023V20.8454L15.5122 21.0847H15.7044V21.1525H15.427L15.427 21.0805Z" fill="white"/>
<path d="M15.7637 20.7734H15.8351V21.1525H15.7637V20.7734Z" fill="white"/>
<path d="M15.9116 21.1525V20.7734H16.045C16.063 20.7734 16.0799 20.7764 16.0956 20.7822C16.1113 20.788 16.1249 20.7962 16.1366 20.8068C16.1483 20.8174 16.1574 20.83 16.1641 20.8447C16.1709 20.8593 16.1742 20.8755 16.1742 20.8931C16.1742 20.9111 16.1708 20.9274 16.1641 20.9421C16.1574 20.9567 16.1483 20.9693 16.1366 20.9799C16.1249 20.9905 16.1113 20.9987 16.0956 21.0046C16.0799 21.0104 16.063 21.0133 16.045 21.0133H15.9831V21.1525H15.9116V21.1525ZM16.0461 20.9455C16.0648 20.9455 16.079 20.9401 16.0885 20.9296C16.098 20.919 16.1028 20.9068 16.1028 20.8931C16.1028 20.8863 16.1016 20.8798 16.0993 20.8735C16.097 20.8671 16.0935 20.8616 16.0887 20.8568C16.0839 20.8521 16.078 20.8483 16.0709 20.8454C16.0639 20.8426 16.0556 20.8412 16.0461 20.8412H15.9831V20.9455H16.0461Z" fill="white"/>
</g>
<g opacity="0.61">
<path d="M14.4065 20.7974H14.8417V20.905H14.4065V20.7974ZM14.4065 20.9829H14.8417V21.0906H14.4065V20.9829Z" fill="white"/>
</g>
<g opacity="0.61">
<path d="M7.52441 22.9863H7.60155C7.66217 22.9863 7.70302 23.0253 7.70302 23.0811C7.70302 23.1368 7.66217 23.1758 7.60155 23.1758H7.52441V22.9863ZM7.60045 23.1585C7.6508 23.1585 7.68325 23.1265 7.68325 23.0811C7.68325 23.0356 7.65075 23.0037 7.60045 23.0037H7.54443V23.1585H7.60045Z" fill="white"/>
<path d="M7.92676 23.0812C7.92676 23.026 7.96895 22.9849 8.02636 22.9849C8.08319 22.9849 8.12567 23.0257 8.12567 23.0812C8.12567 23.1367 8.08319 23.1775 8.02636 23.1775C7.969 23.1775 7.92676 23.1364 7.92676 23.0812ZM8.10565 23.0812C8.10565 23.036 8.07181 23.0027 8.02636 23.0027C7.98061 23.0027 7.94653 23.036 7.94653 23.0812C7.94653 23.1264 7.98061 23.1597 8.02636 23.1597C8.07186 23.1597 8.10565 23.1264 8.10565 23.0812Z" fill="white"/>
<path d="M8.62079 22.9863L8.5569 23.1758H8.53578L8.48029 23.0142L8.42456 23.1758H8.40373L8.33984 22.9863H8.36044L8.41511 23.1492L8.47165 22.9863H8.49032L8.54605 23.1501L8.60154 22.9863H8.62079Z" fill="white"/>
<path d="M9.01133 22.9863V23.1758H8.99482L8.87304 23.0221V23.1758H8.85303V22.9863H8.86954L8.9916 23.1401V22.9863H9.01133Z" fill="white"/>
<path d="M9.26855 22.9863H9.28857V23.1585H9.39465V23.1758H9.26855V22.9863Z" fill="white"/>
<path d="M9.60303 23.0812C9.60303 23.026 9.64522 22.9849 9.70263 22.9849C9.75946 22.9849 9.80194 23.0257 9.80194 23.0812C9.80194 23.1367 9.75946 23.1775 9.70263 23.1775C9.64527 23.1775 9.60303 23.1364 9.60303 23.0812ZM9.78192 23.0812C9.78192 23.036 9.74808 23.0027 9.70263 23.0027C9.65688 23.0027 9.6228 23.036 9.6228 23.0812C9.6228 23.1264 9.65688 23.1597 9.70263 23.1597C9.74808 23.1597 9.78192 23.1264 9.78192 23.0812Z" fill="white"/>
<path d="M10.1587 23.1252H10.0531L10.0304 23.1758H10.0095L10.0961 22.9863H10.1159L10.2025 23.1758H10.1814L10.1587 23.1252ZM10.1514 23.109L10.1059 23.0072L10.0604 23.109H10.1514Z" fill="white"/>
<path d="M10.4297 22.9863H10.5068C10.5674 22.9863 10.6083 23.0253 10.6083 23.0811C10.6083 23.1368 10.5674 23.1758 10.5068 23.1758H10.4297V22.9863ZM10.5057 23.1585C10.5561 23.1585 10.5885 23.1265 10.5885 23.0811C10.5885 23.0356 10.556 23.0037 10.5057 23.0037H10.4497V23.1585H10.5057Z" fill="white"/>
<path d="M11.2341 23.1252H11.1285L11.1058 23.1758H11.085L11.1716 22.9863H11.1913L11.2779 23.1758H11.2568L11.2341 23.1252ZM11.2268 23.109L11.1813 23.0072L11.1359 23.109H11.2268Z" fill="white"/>
<path d="M11.5051 22.9863H11.5251V23.1585H11.6312V23.1758H11.5051V22.9863Z" fill="white"/>
<path d="M11.8601 22.9863H11.8801V23.1585H11.9862V23.1758H11.8601V22.9863Z" fill="white"/>
<path d="M12.5017 23.0036V23.0781H12.5997V23.0954H12.5017V23.1758H12.4817V22.9863H12.6116V23.0037L12.5017 23.0036Z" fill="white"/>
<path d="M12.8486 22.9863H12.8686V23.1758H12.8486V22.9863Z" fill="white"/>
<path d="M13.126 22.9863H13.146V23.1585H13.2521V23.1758H13.126V22.9863Z" fill="white"/>
<path d="M13.6152 23.1585V23.1758H13.4812V22.9863H13.6111V23.0037H13.5012V23.071H13.5992V23.0881H13.5012V23.1585H13.6152Z" fill="white"/>
<path d="M14.1445 23.0036V23.0781H14.2425V23.0954H14.1445V23.1758H14.1245V22.9863H14.2544V23.0037L14.1445 23.0036Z" fill="white"/>
<path d="M14.4722 23.0812C14.4722 23.026 14.5144 22.9849 14.5718 22.9849C14.6286 22.9849 14.6711 23.0257 14.6711 23.0812C14.6711 23.1367 14.6286 23.1775 14.5718 23.1775C14.5144 23.1775 14.4722 23.1364 14.4722 23.0812ZM14.651 23.0812C14.651 23.036 14.6172 23.0027 14.5717 23.0027C14.526 23.0027 14.4919 23.036 14.4919 23.0812C14.4919 23.1264 14.526 23.1597 14.5717 23.1597C14.6172 23.1597 14.651 23.1264 14.651 23.0812Z" fill="white"/>
<path d="M15.041 23.1758L14.9977 23.1149C14.9928 23.1154 14.9879 23.1157 14.9825 23.1157H14.9316V23.1758H14.9116V22.9863H14.9825C15.0307 22.9863 15.0599 23.0107 15.0599 23.0513C15.0599 23.081 15.0442 23.1019 15.0166 23.1108L15.0629 23.1757H15.041V23.1758ZM15.0399 23.0513C15.0399 23.0209 15.0199 23.0037 14.9819 23.0037H14.9316V23.0986H14.9819C15.0199 23.0986 15.0399 23.081 15.0399 23.0513Z" fill="white"/>
<path d="M15.4997 22.9864V23.1758H15.4805V23.0242L15.4061 23.1517H15.3966L15.3222 23.0251V23.1758H15.303V22.9863H15.3195L15.4018 23.1268L15.4832 22.9863L15.4997 22.9864Z" fill="white"/>
<path d="M15.8759 23.1252H15.7703L15.7476 23.1758H15.7268L15.8134 22.9863H15.8331L15.9197 23.1758H15.8986L15.8759 23.1252ZM15.8686 23.109L15.8231 23.0072L15.7777 23.109H15.8686Z" fill="white"/>
<path d="M16.1742 23.0037H16.1077V22.9863H16.2609V23.0037H16.1943V23.1758H16.1743V23.0037H16.1742Z" fill="white"/>
<path d="M16.467 23.1529L16.4749 23.1375C16.4884 23.1508 16.5125 23.1605 16.5374 23.1605C16.5729 23.1605 16.5883 23.1456 16.5883 23.1269C16.5883 23.075 16.4716 23.1069 16.4716 23.0368C16.4716 23.009 16.4933 22.9849 16.5415 22.9849C16.5629 22.9849 16.5851 22.9911 16.6002 23.0017L16.5935 23.0176C16.5772 23.0071 16.5583 23.002 16.5415 23.002C16.5068 23.002 16.4914 23.0174 16.4914 23.0363C16.4914 23.0883 16.6081 23.0569 16.6081 23.1259C16.6081 23.1538 16.5859 23.1776 16.5374 23.1776C16.509 23.1775 16.4811 23.1675 16.467 23.1529Z" fill="white"/>
</g>
<path d="M12 22.7997C17.9646 22.7997 22.7999 17.9644 22.7999 11.9997C22.7999 6.03503 17.9646 1.19971 12 1.19971C6.03528 1.19971 1.19995 6.03503 1.19995 11.9997C1.19995 17.9644 6.03528 22.7997 12 22.7997Z" fill="#FF7900"/>
<path d="M18.5314 8.17969C18.547 8.18919 18.5649 8.18886 18.5821 8.19154C18.9695 8.25164 19.2769 8.55572 19.3334 8.94342C19.3756 9.23242 19.2907 9.48495 19.0934 9.6998C19.0802 9.7141 19.066 9.7274 19.0522 9.74113C17.8928 10.9001 16.7334 12.0591 15.5742 13.2184C15.5557 13.237 15.5319 13.252 15.5216 13.2816C15.5447 13.2958 15.5684 13.2906 15.5907 13.2906C16.0341 13.291 16.4776 13.2909 16.921 13.2909C17.1661 13.2909 17.4112 13.2911 17.6562 13.2908C17.7323 13.2907 17.8078 13.2963 17.8825 13.3103C18.2488 13.3786 18.5382 13.6746 18.5993 14.0427C18.6827 14.5452 18.3279 15.0176 17.8225 15.078C17.7721 15.084 17.7219 15.0868 17.6713 15.0868C16.2339 15.0867 14.7965 15.0869 13.3592 15.0866C13.1464 15.0865 12.9521 15.0282 12.784 14.8943C12.5946 14.7434 12.4806 14.5488 12.4475 14.3076C12.4406 14.2573 12.4383 14.2071 12.4383 14.1565C12.4384 12.7099 12.4377 11.2633 12.439 9.81668C12.4393 9.51956 12.5588 9.2749 12.7964 9.09706C13.0608 8.89921 13.3553 8.85754 13.6628 8.97961C13.9866 9.10815 14.1682 9.35598 14.2229 9.69764C14.2302 9.74329 14.2275 9.79076 14.2275 9.83737C14.2277 10.5393 14.2276 11.2412 14.2278 11.9431C14.2278 11.9659 14.2247 11.9891 14.2329 12.0145C14.2577 12.0086 14.2691 11.9893 14.2834 11.9751C14.5216 11.7375 14.7595 11.4996 14.9974 11.2618C15.9271 10.3323 16.8577 9.40374 17.7858 8.47278C17.9416 8.31658 18.122 8.21804 18.3403 8.18852C18.3498 8.18722 18.3588 8.18271 18.368 8.17974C18.4225 8.17969 18.4769 8.17969 18.5314 8.17969Z" fill="white"/>
<path d="M9.75868 11.9967C9.7316 12.0075 9.71711 12.0288 9.69983 12.0461C8.53751 13.2077 7.37528 14.3693 6.21349 15.5314C6.11595 15.629 6.00723 15.7082 5.87802 15.7584C5.33072 15.9712 4.72847 15.6086 4.66247 15.0253C4.63083 14.7456 4.71579 14.504 4.9077 14.2991C4.92762 14.2779 4.94869 14.2576 4.96928 14.237C6.12455 13.0821 7.27981 11.9272 8.43493 10.7722C8.45077 10.7564 8.47011 10.7428 8.48043 10.7183C8.45322 10.7057 8.42783 10.7106 8.40344 10.7106C7.71104 10.7103 7.01859 10.7105 6.32619 10.7102C6.15205 10.7101 5.98592 10.6761 5.83482 10.5854C5.59386 10.4406 5.44568 10.2298 5.40051 9.95254C5.35223 9.65605 5.43901 9.39622 5.64565 9.18195C5.81624 9.00507 6.03085 8.91435 6.27815 8.91282C6.63795 8.91056 6.99776 8.91219 7.35762 8.91219C8.45653 8.91219 9.55544 8.91166 10.6544 8.91253C10.9659 8.91277 11.2144 9.04222 11.3987 9.29197C11.5069 9.43856 11.5569 9.6067 11.5651 9.78781C11.5658 9.80528 11.5653 9.8228 11.5653 9.84032C11.5653 11.283 11.5653 12.7257 11.5655 14.1684C11.5655 14.369 11.5123 14.553 11.3929 14.7149C11.2413 14.9206 11.0381 15.0415 10.7843 15.0785C10.429 15.1303 10.0556 14.9484 9.87599 14.6149C9.80168 14.4769 9.76703 14.3284 9.76693 14.1721C9.76659 13.4721 9.76683 12.7722 9.76655 12.0722C9.7665 12.048 9.77178 12.0225 9.75868 11.9967Z" fill="white"/>
</svg>
