<svg width="14" height="14" viewBox="0 0 14 14" fill="none" xmlns="http://www.w3.org/2000/svg">
<g clip-path="url(#clip0_37_1663)">
<path d="M6.41667 10.4639C5.23992 10.3142 4.16433 9.72199 3.40853 8.8077C2.65272 7.89342 2.27342 6.72564 2.3477 5.54173C2.42198 4.35782 2.94428 3.24662 3.80844 2.43397C4.6726 1.62132 5.81376 1.16822 7 1.16675C8.18769 1.16586 9.33103 1.61786 10.1971 2.43064C11.0631 3.24343 11.5866 4.35583 11.661 5.54119C11.7354 6.72655 11.355 7.89566 10.5973 8.81032C9.8397 9.72497 8.76182 10.3163 7.58334 10.4639V11.6737C9.88517 11.7274 11.6667 12.0955 11.6667 12.5417C11.6667 13.0247 9.57717 13.4167 7 13.4167C4.42284 13.4167 2.33334 13.0247 2.33334 12.5417C2.33334 12.0955 4.11484 11.7274 6.41667 11.6737V10.4639ZM7 7.00008C7.30942 7.00008 7.60617 6.87717 7.82496 6.65837C8.04375 6.43958 8.16667 6.14284 8.16667 5.83342C8.16667 5.524 8.04375 5.22725 7.82496 5.00846C7.60617 4.78967 7.30942 4.66675 7 4.66675C6.69058 4.66675 6.39384 4.78967 6.17504 5.00846C5.95625 5.22725 5.83334 5.524 5.83334 5.83342C5.83334 6.14284 5.95625 6.43958 6.17504 6.65837C6.39384 6.87717 6.69058 7.00008 7 7.00008Z" fill="#10847E"/>
</g>
<defs>
<clipPath id="clip0_37_1663">
<rect width="14" height="14" fill="white"/>
</clipPath>
</defs>
</svg>
