<svg width="25" height="24" viewBox="0 0 25 24" fill="none" xmlns="http://www.w3.org/2000/svg">
<path d="M12.7 17C16.362 17 19.565 18.575 21.307 20.925L19.465 21.796C18.047 20.116 15.547 19 12.7 19C9.85302 19 7.35302 20.116 5.93502 21.796L4.09402 20.924C5.83602 18.574 9.03802 17 12.7 17ZM12.7 2C14.0261 2 15.2979 2.52678 16.2356 3.46447C17.1732 4.40215 17.7 5.67392 17.7 7V10C17.7 11.2885 17.2025 12.5272 16.3114 13.4578C15.4202 14.3884 14.2043 14.9391 12.917 14.995L12.7 15C11.3739 15 10.1022 14.4732 9.16449 13.5355C8.22681 12.5979 7.70002 11.3261 7.70002 10V7C7.7001 5.71154 8.19757 4.47284 9.08868 3.54222C9.9798 2.61161 11.1958 2.06092 12.483 2.005L12.7 2ZM12.7 4C11.9348 3.99996 11.1985 4.29233 10.6418 4.81728C10.085 5.34224 9.74992 6.06011 9.70502 6.824L9.70002 7V10C9.69927 10.7809 10.003 11.5313 10.5468 12.0918C11.0905 12.6523 11.8314 12.9787 12.612 13.0016C13.3926 13.0245 14.1513 12.7422 14.727 12.2145C15.3027 11.6869 15.65 10.9556 15.695 10.176L15.7 10V7C15.7 6.20435 15.384 5.44129 14.8213 4.87868C14.2587 4.31607 13.4957 4 12.7 4Z" fill="#656565"/>
</svg>
