<svg width="25" height="24" viewBox="0 0 25 24" fill="none" xmlns="http://www.w3.org/2000/svg">
<path d="M12.5 17C16.162 17 19.365 18.575 21.107 20.925L19.265 21.796C17.847 20.116 15.347 19 12.5 19C9.65304 19 7.15304 20.116 5.73504 21.796L3.89404 20.924C5.63604 18.574 8.83804 17 12.5 17ZM12.5 2C13.8261 2 15.0979 2.52678 16.0356 3.46447C16.9733 4.40215 17.5 5.67392 17.5 7V10C17.5 11.3261 16.9733 12.5979 16.0356 13.5355C15.0979 14.4732 13.8261 15 12.5 15C11.174 15 9.90219 14.4732 8.96451 13.5355C8.02683 12.5979 7.50004 11.3261 7.50004 10V7C7.50004 5.67392 8.02683 4.40215 8.96451 3.46447C9.90219 2.52678 11.174 2 12.5 2Z" fill="#10847E"/>
</svg>
