<svg width="25" height="24" viewBox="0 0 25 24" fill="none" xmlns="http://www.w3.org/2000/svg">
<g clip-path="url(#clip0_288_1181)">
<path d="M17.718 5.968L19.171 4.515L20.585 5.929L19.132 7.382C20.5678 9.17917 21.2609 11.4579 21.0691 13.7501C20.8773 16.0424 19.815 18.1742 18.1005 19.7077C16.386 21.2412 14.1494 22.0601 11.85 21.9961C9.55062 21.9321 7.36302 20.9901 5.73649 19.3635C4.10995 17.737 3.16794 15.5494 3.10393 13.25C3.03992 10.9506 3.85877 8.71402 5.39229 6.99951C6.92582 5.285 9.05763 4.22275 11.3499 4.03092C13.6421 3.83909 15.9208 4.53223 17.718 5.968ZM12.1 20C13.0193 20 13.9295 19.8189 14.7788 19.4672C15.6281 19.1154 16.3998 18.5998 17.0498 17.9497C17.6998 17.2997 18.2154 16.5281 18.5672 15.6788C18.919 14.8295 19.1 13.9193 19.1 13C19.1 12.0807 18.919 11.1705 18.5672 10.3212C18.2154 9.47194 17.6998 8.70026 17.0498 8.05025C16.3998 7.40024 15.6281 6.88463 14.7788 6.53284C13.9295 6.18106 13.0193 6 12.1 6C10.2435 6 8.46302 6.7375 7.15027 8.05025C5.83751 9.36301 5.10002 11.1435 5.10002 13C5.10002 14.8565 5.83751 16.637 7.15027 17.9497C8.46302 19.2625 10.2435 20 12.1 20ZM11.1 8H13.1V14H11.1V8ZM8.10002 1H16.1V3H8.10002V1Z" fill="#656565"/>
</g>
<defs>
<clipPath id="clip0_288_1181">
<rect width="24" height="24" fill="white" transform="translate(0.100014)"/>
</clipPath>
</defs>
</svg>
