<svg width="21" height="22" viewBox="0 0 21 22" fill="none" xmlns="http://www.w3.org/2000/svg">
<path d="M15.5547 9.23845V5.15625H18.1328V2.57812H15.5547V0H12.9766V2.57812H10.3984V5.15625H12.9766V9.2388C12.0059 9.43585 11.1143 9.8511 10.3555 10.4312C9.66842 10.9561 9.09344 11.6134 8.66443 12.3641C8.12732 13.3049 7.82031 14.3938 7.82031 15.5547C7.82031 16.7155 8.12732 17.8045 8.66443 18.7453L10.3555 18.7451L12.0465 12.3641C12.6717 11.9374 13.4286 11.6875 14.2441 11.6875C16.3917 11.6875 18.1328 13.4188 18.1328 15.5547C18.1328 17.6905 16.3917 19.4219 14.2441 19.4219C13.4286 19.4219 12.6717 19.172 12.0465 18.7453L10.3555 18.7451V20.6782C11.4399 21.5072 12.7951 22 14.2656 22C17.8253 22 20.7109 19.1144 20.7109 15.5547C20.7109 12.4366 18.4967 9.83563 15.5547 9.23845Z" fill="#FF3980"/>
<path d="M15.5547 9.23845V5.15625H18.1328V2.57812H15.5547V0H14.2441V11.6875C16.3917 11.6875 18.1328 13.4188 18.1328 15.5547C18.1328 17.6905 16.3917 19.4219 14.2441 19.4219L14.2656 22C17.8253 22 20.7109 19.1144 20.7109 15.5547C20.7109 12.4366 18.4967 9.83563 15.5547 9.23845Z" fill="#FF0059"/>
<path d="M12.0465 12.3641C11.0254 13.061 10.3555 14.23 10.3555 15.5547C10.3555 16.8793 9.68559 18.0484 8.66443 18.7453C8.0392 19.172 7.28234 19.4219 6.4668 19.4219C4.31922 19.4219 2.57812 17.6905 2.57812 15.5547C2.57812 13.4188 4.31922 11.6875 6.4668 11.6875C7.28234 11.6875 8.0392 11.9374 8.66443 12.3641C9.09338 11.6133 9.66837 10.9561 10.3555 10.4312C9.59664 9.8511 8.70504 9.43602 7.73438 9.2388V4.16797H10.3984L6.44531 0.300781L2.57812 4.16797H5.15625V9.23845C2.21422 9.83563 0 12.4366 0 15.5547C0 19.1144 2.88561 22 6.44531 22C7.91583 22 9.27102 21.5072 10.3555 20.6782C11.0425 20.1532 11.6175 19.496 12.0465 18.7453C12.5836 17.8045 12.8906 16.7155 12.8906 15.5547C12.8906 14.3938 12.5836 13.3048 12.0465 12.3641Z" fill="#76E2F8"/>
<path d="M6.4668 11.6875C7.28234 11.6875 8.0392 11.9374 8.66443 12.3641C9.09338 11.6133 9.66837 10.9561 10.3555 10.4312C9.59664 9.8511 8.70504 9.43602 7.73438 9.2388V4.16797H10.3984L6.44531 0.300781V11.6878C6.45253 11.6877 6.45958 11.6875 6.4668 11.6875ZM12.0465 12.3641C11.0254 13.061 10.3555 14.23 10.3555 15.5547C10.3555 16.8793 9.68559 18.0484 8.66443 18.7453C8.0392 19.172 7.28234 19.4219 6.4668 19.4219C6.45958 19.4219 6.45253 19.4217 6.44531 19.4215V22C7.91583 22 9.27102 21.5072 10.3555 20.6782C11.0425 20.1532 11.6175 19.496 12.0465 18.7453C12.5836 17.8045 12.8906 16.7155 12.8906 15.5547C12.8906 14.3938 12.5836 13.3048 12.0465 12.3641Z" fill="#00CEF5"/>
</svg>
