<svg width="21" height="22" viewBox="0 0 21 22" fill="none" xmlns="http://www.w3.org/2000/svg">
<path d="M15.1578 9.59186L14.73 12.6196C15.4916 12.7439 16.3639 11.8668 16.4902 11.1056C16.6454 10.1701 16.1122 9.51297 15.1578 9.59186ZM4.50981 11.1056C4.63613 11.8668 5.5084 12.7439 6.26998 12.6196L5.84218 9.59186C4.88776 9.51297 4.3546 10.1701 4.50981 11.1056ZM18.3942 21.675H2.60577C2.85487 21.0201 3.24918 20.4301 3.75906 19.9494C4.56859 19.1983 6.62421 18.8236 7.67437 18.2908C7.96916 18.1476 8.22518 17.9356 8.42082 17.6726C8.61645 17.4097 8.74597 17.1035 8.79843 16.78C8.85244 16.4577 8.88517 16.1321 8.8964 15.8055H12.1036C12.1148 16.1321 12.1475 16.4577 12.2016 16.78C12.254 17.1035 12.3835 17.4097 12.5792 17.6726C12.7748 17.9356 13.0308 18.1476 13.3256 18.2908C14.3758 18.8236 16.4314 19.1983 17.2409 19.9494C17.7508 20.4301 18.1451 21.0201 18.3942 21.675Z" fill="#FFA39C"/>
<path d="M12.2016 16.78C11.7482 17.0405 11.2571 17.2289 10.7458 17.3385C10.5839 17.3746 10.4161 17.3746 10.2542 17.3385C9.74293 17.2289 9.2518 17.0405 8.79843 16.78C8.85244 16.4576 8.88517 16.1321 8.8964 15.8054H12.1036C12.1148 16.1321 12.1475 16.4576 12.2016 16.78Z" fill="#FF6C73"/>
<path d="M5.8422 9.59196C5.83962 11.8839 6.44376 13.718 7.4824 14.7245C8.12384 15.346 8.9399 16.0177 10.2547 16.3076C10.4165 16.3434 10.5842 16.3434 10.746 16.3076C12.0608 16.0177 12.8772 15.346 13.5183 14.7245C14.5563 13.718 15.1607 11.8839 15.1578 9.59196C14.5877 0.816367 6.27017 1.37496 5.8422 9.59196Z" fill="#FFB3A9"/>
<path d="M16.9419 16.7261C17.5371 16.7261 18.0195 16.2436 18.0195 15.6485C18.0195 15.0533 17.5371 14.5708 16.9419 14.5708C16.3467 14.5708 15.8642 15.0533 15.8642 15.6485C15.8642 16.2436 16.3467 16.7261 16.9419 16.7261Z" fill="#FFE1E1"/>
<path d="M1.29798 12.1796C1.83601 12.1796 2.27217 11.7434 2.27217 11.2054C2.27217 10.6674 1.83601 10.2312 1.29798 10.2312C0.75995 10.2312 0.323792 10.6674 0.323792 11.2054C0.323792 11.7434 0.75995 12.1796 1.29798 12.1796Z" fill="#FFE1E1"/>
<path d="M19.7684 12.428C20.136 12.428 20.434 12.13 20.434 11.7624C20.434 11.3947 20.136 11.0967 19.7684 11.0967C19.4007 11.0967 19.1027 11.3947 19.1027 11.7624C19.1027 12.13 19.4007 12.428 19.7684 12.428Z" fill="#FFE1E1"/>
<path d="M1.53811 8.17607C1.90575 8.17607 2.20378 7.87804 2.20378 7.5104C2.20378 7.14276 1.90575 6.84473 1.53811 6.84473C1.17047 6.84473 0.872437 7.14276 0.872437 7.5104C0.872437 7.87804 1.17047 8.17607 1.53811 8.17607Z" fill="#FFE1E1"/>
<path d="M3.92028 16.9562C4.20979 16.9562 4.44449 16.7215 4.44449 16.4319C4.44449 16.1424 4.20979 15.9077 3.92028 15.9077C3.63076 15.9077 3.39606 16.1424 3.39606 16.4319C3.39606 16.7215 3.63076 16.9562 3.92028 16.9562Z" fill="#FFE1E1"/>
<path d="M19.5592 6.77807C19.9147 6.77807 20.2029 6.48988 20.2029 6.13439C20.2029 5.7789 19.9147 5.49072 19.5592 5.49072C19.2037 5.49072 18.9155 5.7789 18.9155 6.13439C18.9155 6.48988 19.2037 6.77807 19.5592 6.77807Z" fill="#FFE1E1"/>
<path d="M10.5 12.1046C10.2651 12.0967 10.0411 12.0034 9.87008 11.8421C9.82758 11.7991 9.80283 11.7417 9.80076 11.6812C9.79869 11.6208 9.81944 11.5618 9.8589 11.516C9.89835 11.4702 9.95361 11.4409 10.0137 11.434C10.0737 11.427 10.1342 11.443 10.1831 11.4786C10.2223 11.5242 10.271 11.5608 10.3257 11.5858C10.3804 11.6109 10.4398 11.6239 10.5 11.6239C10.5602 11.6239 10.6196 11.6109 10.6743 11.5858C10.729 11.5608 10.7777 11.5242 10.8169 11.4786C10.8658 11.443 10.9263 11.427 10.9863 11.434C11.0464 11.4409 11.1017 11.4702 11.1411 11.516C11.1806 11.5618 11.2013 11.6208 11.1993 11.6812C11.1972 11.7417 11.1724 11.7991 11.1299 11.8421C10.9589 12.0034 10.7349 12.0967 10.5 12.1046ZM11.9556 13.1472C11.9463 13.099 11.9182 13.0565 11.8776 13.029C11.837 13.0015 11.7871 12.9913 11.7389 13.0006H11.7358C11.5447 13.039 11.3484 13.0441 11.1555 13.0157C11.1074 13.0086 11.0605 12.9994 11.0043 12.9885C10.924 12.9699 10.8411 12.9659 10.7594 12.9767C10.6739 12.9917 10.5926 13.0249 10.5211 13.0741C10.5147 13.0779 10.5074 13.0799 10.5 13.0799C10.4926 13.0799 10.4853 13.0779 10.4789 13.0741C10.4074 13.0249 10.3261 12.9917 10.2406 12.9767C10.159 12.9659 10.076 12.9699 9.99573 12.9885C9.93969 12.9994 9.8926 13.0086 9.84448 13.0157C9.65169 13.0441 9.45544 13.039 9.2644 13.0006H9.26113C9.2163 12.9917 9.16979 12.9998 9.13057 13.0233C9.09135 13.0467 9.06219 13.0838 9.04872 13.1275C9.03525 13.1712 9.03841 13.2183 9.05761 13.2597C9.07681 13.3012 9.11067 13.3341 9.15268 13.352C9.38276 13.4521 9.63202 13.5003 9.8828 13.4933C9.94502 13.4916 10.0079 13.4865 10.0614 13.4823C10.1116 13.4779 10.1331 13.4861 10.2076 13.5299C10.29 13.5801 10.3843 13.6074 10.4808 13.609H10.5193C10.6157 13.6074 10.71 13.5801 10.7924 13.5299C10.867 13.4861 10.8884 13.4784 10.9386 13.4823C10.9921 13.4865 11.055 13.4916 11.1172 13.4933C11.368 13.5003 11.6172 13.4521 11.8473 13.352C11.886 13.3353 11.9178 13.3059 11.9375 13.2687C11.9572 13.2314 11.9636 13.1885 11.9556 13.1472ZM10.5 14.4546C10.368 14.4539 10.238 14.4231 10.1196 14.3647C10.0614 14.3332 10.0174 14.2804 9.99704 14.2174C9.97663 14.1543 9.98128 14.0858 10.01 14.0261C10.0388 13.9664 10.0894 13.9201 10.1514 13.8967C10.2135 13.8734 10.2821 13.8748 10.3431 13.9007C10.3913 13.9264 10.4452 13.9398 10.4998 13.9398C10.5545 13.9398 10.6083 13.9264 10.6566 13.9007C10.6873 13.8841 10.721 13.8739 10.7557 13.8707C10.7905 13.8675 10.8255 13.8714 10.8587 13.8822C10.8918 13.8929 10.9225 13.9103 10.9488 13.9332C10.9751 13.9561 10.9964 13.9842 11.0115 14.0156C11.0267 14.047 11.0353 14.0812 11.0368 14.116C11.0384 14.1509 11.0328 14.1857 11.0205 14.2183C11.0082 14.251 10.9894 14.2808 10.9653 14.3059C10.9411 14.3311 10.9121 14.3511 10.88 14.3647C10.7618 14.423 10.6318 14.4538 10.5 14.4546Z" fill="#9B506B"/>
<path d="M16.8204 8.80765C17.2188 7.48971 17.0381 4.64157 15.6234 2.68546C14.6348 1.31854 12.1435 -0.225759 10.5 0.580506C8.37392 1.45226 9.06881 3.01168 10.5 4.75054C14.1157 8.92023 15.7812 10.2837 16.3154 10.6689C16.3774 10.7139 16.4527 10.7368 16.5293 10.7339C16.6059 10.7311 16.6792 10.7026 16.7377 10.6531C17.2497 10.2153 17.0321 9.56218 16.8204 8.80765Z" fill="#FFCFCF"/>
<path d="M10.1356 1.87576C10.1073 1.33315 10.5 0.580506 10.5 0.580506C8.85653 -0.225759 6.3652 1.31854 5.37657 2.68546C3.96187 4.64157 3.78123 7.48971 4.17963 8.80765C3.99968 9.44908 3.81526 10.0175 4.07892 10.4424C4.11737 10.5018 4.16775 10.5525 4.22688 10.5914C4.286 10.6303 4.35256 10.6565 4.42234 10.6682C4.49212 10.68 4.56358 10.6772 4.6322 10.6599C4.70081 10.6425 4.76507 10.6111 4.8209 10.5676C5.47403 10.0692 7.14964 8.6148 10.5 4.75054C11.3729 3.77962 10.1777 2.68546 10.1356 1.87576Z" fill="#FFE1E1"/>
<path d="M16.9402 16.9837C16.6535 16.9832 16.3746 16.8905 16.1447 16.7193C15.9148 16.548 15.7461 16.3074 15.6636 16.0328C15.5811 15.7583 15.5892 15.4645 15.6866 15.1949C15.784 14.9253 15.9656 14.6942 16.2045 14.5358C16.4434 14.3774 16.727 14.3001 17.0132 14.3153C17.2995 14.3306 17.5732 14.4375 17.794 14.6204C18.0147 14.8033 18.1708 15.0523 18.239 15.3308C18.3072 15.6092 18.284 15.9022 18.1728 16.1664C18.0713 16.4093 17.9 16.6167 17.6805 16.7621C17.4611 16.9076 17.2034 16.9847 16.9402 16.9837ZM16.9419 14.828C16.7381 14.8276 16.5413 14.903 16.39 15.0395C16.2386 15.176 16.1433 15.3639 16.1227 15.5667C16.1021 15.7694 16.1576 15.9726 16.2784 16.1368C16.3992 16.301 16.5768 16.4144 16.7765 16.455C16.9762 16.4956 17.184 16.4606 17.3593 16.3566C17.5346 16.2527 17.6651 16.0873 17.7253 15.8925C17.7855 15.6978 17.7712 15.4876 17.6852 15.3029C17.5991 15.1181 17.4475 14.9719 17.2597 14.8926C17.1591 14.8501 17.0511 14.8282 16.9419 14.828ZM1.29834 12.4372C1.06837 12.4373 0.842993 12.3729 0.647704 12.2515C0.452414 12.1301 0.295013 11.9564 0.193317 11.7502C0.0916199 11.5439 0.0496883 11.3133 0.0722676 11.0845C0.0948469 10.8556 0.181036 10.6376 0.321079 10.4552C0.461121 10.2728 0.649426 10.1333 0.86468 10.0524C1.07993 9.97145 1.31354 9.9524 1.53906 9.99737C1.76458 10.0423 1.97301 10.1496 2.14076 10.3069C2.3085 10.4642 2.42887 10.6653 2.48823 10.8874C2.5369 11.0699 2.54299 11.2611 2.50603 11.4463C2.46906 11.6315 2.39003 11.8057 2.27503 11.9554C2.16004 12.1052 2.01215 12.2266 1.8428 12.3101C1.67345 12.3936 1.48717 12.4371 1.29834 12.4372ZM1.29834 10.4889C1.14867 10.4888 1.00275 10.5357 0.881077 10.6228C0.759401 10.71 0.668075 10.8331 0.619924 10.9748C0.571773 11.1165 0.569215 11.2697 0.612608 11.4129C0.656002 11.5562 0.743168 11.6822 0.861867 11.7734C0.980566 11.8646 1.12484 11.9162 1.27442 11.9212C1.424 11.9262 1.57139 11.8842 1.69588 11.8011C1.82037 11.718 1.91571 11.598 1.96851 11.458C2.02132 11.318 2.02894 11.1649 1.9903 11.0203C1.94938 10.8679 1.85938 10.7333 1.73423 10.6372C1.60908 10.5412 1.45576 10.489 1.29799 10.4889H1.29834ZM19.7684 12.6865C19.5699 12.6866 19.3766 12.6229 19.2171 12.5046C19.0576 12.3864 18.9405 12.22 18.883 12.03C18.8255 11.84 18.8307 11.6365 18.8979 11.4497C18.965 11.2629 19.0905 11.1027 19.2558 10.9927C19.4211 10.8828 19.6174 10.829 19.8157 10.8394C20.0139 10.8497 20.2035 10.9236 20.3565 11.0501C20.5095 11.1766 20.6177 11.349 20.665 11.5418C20.7124 11.7346 20.6964 11.9375 20.6195 12.1205C20.5488 12.2879 20.4305 12.4309 20.2791 12.5316C20.1278 12.6322 19.9501 12.6861 19.7684 12.6865ZM19.7684 11.3544C19.7014 11.3543 19.6355 11.3707 19.5764 11.4021C19.5173 11.4335 19.4668 11.479 19.4294 11.5345C19.3921 11.59 19.3689 11.6539 19.3621 11.7205C19.3553 11.7871 19.3649 11.8543 19.3902 11.9163C19.4207 11.991 19.4726 12.0549 19.5393 12.1001C19.6061 12.1453 19.6848 12.1697 19.7655 12.1701C19.8461 12.1706 19.9251 12.1471 19.9924 12.1027C20.0597 12.0583 20.1123 11.9949 20.1436 11.9206C20.1697 11.8586 20.1801 11.7911 20.1738 11.7242C20.1675 11.6572 20.1447 11.5928 20.1075 11.5368C20.0703 11.4808 20.0198 11.4348 19.9606 11.403C19.9013 11.3712 19.8351 11.3546 19.7678 11.3546L19.7684 11.3544ZM1.53827 8.43393C1.30362 8.43406 1.0777 8.3449 0.906376 8.18456C0.735049 8.02422 0.631144 7.8047 0.615749 7.57055C0.600354 7.3364 0.674622 7.10516 0.82348 6.92377C0.972338 6.74237 1.18464 6.62441 1.41729 6.59381C1.64994 6.56322 1.88552 6.62229 2.07621 6.75903C2.2669 6.89577 2.39843 7.09995 2.44409 7.33011C2.48976 7.56028 2.44614 7.7992 2.32209 7.99839C2.19804 8.19758 2.00286 8.3421 1.77615 8.40264C1.69855 8.42335 1.61859 8.43386 1.53827 8.43393ZM1.53827 7.10224C1.48018 7.10219 1.42274 7.11456 1.3698 7.1385C1.31687 7.16244 1.26966 7.19741 1.23133 7.24107C1.193 7.28473 1.16443 7.33607 1.14755 7.39166C1.13066 7.44725 1.12583 7.5058 1.1334 7.56341C1.14097 7.62101 1.16075 7.67633 1.19142 7.72568C1.22209 7.77502 1.26294 7.81724 1.31125 7.84952C1.35955 7.8818 1.41419 7.90339 1.47151 7.91285C1.52884 7.92232 1.58752 7.91943 1.64363 7.90438C1.6954 7.89059 1.74394 7.86674 1.78648 7.83417C1.82901 7.80161 1.86471 7.76098 1.89153 7.7146C1.91835 7.66823 1.93576 7.61702 1.94277 7.56391C1.94978 7.5108 1.94625 7.45683 1.93238 7.40508C1.90909 7.31825 1.85782 7.24151 1.78651 7.18677C1.7152 7.13202 1.62783 7.10231 1.53793 7.10224H1.53827ZM3.91909 17.2143C3.72029 17.2145 3.52885 17.1391 3.3836 17.0034C3.23836 16.8676 3.15018 16.6817 3.13695 16.4834C3.12372 16.285 3.18643 16.0891 3.31236 15.9352C3.43829 15.7814 3.61801 15.6812 3.81508 15.655C4.01215 15.6288 4.2118 15.6786 4.37355 15.7942C4.5353 15.9097 4.64703 16.0825 4.68608 16.2774C4.72513 16.4724 4.68858 16.6749 4.58384 16.8438C4.4791 17.0128 4.31402 17.1356 4.12207 17.1873C4.05586 17.2051 3.98763 17.2142 3.91909 17.2143ZM3.9208 16.1659C3.8976 16.1659 3.8745 16.169 3.85205 16.1748C3.8012 16.1885 3.75553 16.2169 3.72081 16.2565C3.68609 16.2961 3.66388 16.3451 3.65699 16.3973C3.65009 16.4495 3.65882 16.5025 3.68207 16.5498C3.70532 16.597 3.74205 16.6363 3.78762 16.6627C3.83319 16.6891 3.88555 16.7014 3.9381 16.698C3.99065 16.6946 4.04102 16.6758 4.08286 16.6438C4.1247 16.6118 4.15612 16.5682 4.17316 16.5184C4.19021 16.4685 4.1921 16.4148 4.17862 16.3639C4.16349 16.3073 4.13014 16.2573 4.08372 16.2216C4.0373 16.1859 3.9804 16.1665 3.92184 16.1664L3.9208 16.1659ZM19.559 7.03641C19.3653 7.03648 19.1767 6.97417 19.0211 6.85871C18.8656 6.74325 18.7513 6.58077 18.6953 6.39533C18.6392 6.20988 18.6444 6.01132 18.71 5.82903C18.7756 5.64674 18.8981 5.49041 19.0594 5.38318C19.2208 5.27595 19.4124 5.22352 19.6058 5.23364C19.7993 5.24376 19.9844 5.3159 20.1336 5.43939C20.2829 5.56287 20.3885 5.73113 20.4347 5.91927C20.4809 6.1074 20.4653 6.30542 20.3902 6.484C20.3212 6.64748 20.2055 6.78702 20.0577 6.88522C19.9099 6.98342 19.7365 7.03612 19.559 7.03641ZM19.559 5.74821C19.509 5.74829 19.4594 5.75804 19.4131 5.77691C19.3543 5.80085 19.3023 5.83892 19.2617 5.88776C19.2211 5.93659 19.1932 5.99468 19.1805 6.05689C19.1677 6.11909 19.1705 6.18348 19.1886 6.24434C19.2066 6.30521 19.2394 6.36069 19.2841 6.40584C19.3287 6.451 19.3838 6.48445 19.4445 6.50323C19.5051 6.52201 19.5695 6.52553 19.6318 6.51349C19.6942 6.50146 19.7526 6.47422 19.8019 6.43421C19.8512 6.3942 19.8898 6.34264 19.9145 6.28411C19.9391 6.22545 19.9488 6.16161 19.9429 6.09827C19.9369 6.03493 19.9153 5.97404 19.8802 5.92102C19.845 5.868 19.7973 5.82448 19.7413 5.79434C19.6852 5.76419 19.6226 5.74834 19.559 5.74821ZM12.0902 9.90088C12.2241 9.94082 12.3648 9.95304 12.5036 9.9368C12.6589 9.92174 12.8122 9.89035 12.9609 9.84313C13.0372 9.81907 13.1142 9.79414 13.1881 9.76389C13.2265 9.751 13.2624 9.73485 13.2992 9.71989L13.3526 9.69532L13.4253 9.66421C13.5368 9.61533 13.6581 9.59286 13.7797 9.59855C13.8478 9.60183 13.914 9.62176 13.9725 9.65658C14.0311 9.6914 14.0802 9.74005 14.1156 9.79827C14.1257 9.8177 14.1303 9.83951 14.129 9.86137C14.1277 9.88322 14.1205 9.90432 14.1081 9.92241C14.0958 9.9405 14.0788 9.9549 14.0589 9.9641C14.039 9.97329 14.017 9.97692 13.9953 9.97461L13.9609 9.97083C13.9052 9.96494 13.849 9.97495 13.7988 9.99971C13.7427 10.0231 13.689 10.0519 13.6384 10.0856C13.6226 10.097 13.613 10.1054 13.5924 10.1185L13.5269 10.1583C13.4827 10.1829 13.4387 10.2085 13.3937 10.23C13.3034 10.273 13.2103 10.3097 13.1149 10.3398C12.9197 10.4023 12.7154 10.4316 12.5104 10.4266C12.2848 10.4257 12.066 10.3488 11.8894 10.2084C11.8568 10.1808 11.8348 10.1427 11.8271 10.1006C11.8194 10.0586 11.8266 10.0152 11.8474 9.97785C11.8681 9.9405 11.9013 9.91153 11.941 9.89589C11.9808 9.88025 12.0248 9.87892 12.0654 9.89211L12.0902 9.90088ZM9.11091 10.2092C8.93431 10.3497 8.71557 10.4266 8.48993 10.4275C8.285 10.4325 8.08069 10.4032 7.88544 10.3407C7.7901 10.3106 7.69695 10.2739 7.60666 10.2309C7.56146 10.2094 7.51763 10.1838 7.47346 10.1592L7.40798 10.1193C7.38735 10.1063 7.37773 10.0978 7.36174 10.0865C7.31125 10.0527 7.2576 10.024 7.20155 10.0006C7.15135 9.97581 7.09515 9.9658 7.03948 9.97169L7.0051 9.97547C6.97315 9.979 6.94111 9.9697 6.91601 9.94963C6.89091 9.92955 6.8748 9.90034 6.87121 9.86839C6.8685 9.8447 6.87299 9.82074 6.8841 9.79964C6.91948 9.74142 6.96859 9.69277 7.02715 9.65795C7.0857 9.62313 7.1519 9.60321 7.21994 9.59993C7.34156 9.59423 7.46285 9.6167 7.57435 9.66558L7.64705 9.69669L7.70051 9.72127C7.73729 9.73622 7.77321 9.75238 7.81154 9.76527C7.88545 9.79552 7.96244 9.82044 8.03876 9.8445C8.18749 9.89172 8.34079 9.92312 8.49612 9.93818C8.63463 9.9543 8.77497 9.94207 8.90862 9.90225L8.93354 9.89418C8.97404 9.88104 9.01783 9.88233 9.05749 9.89782C9.09715 9.9133 9.13023 9.94203 9.15112 9.97913C9.17201 10.0162 9.17942 10.0594 9.17209 10.1014C9.16476 10.1433 9.14314 10.1814 9.11091 10.2092ZM13.5766 7.89269C13.4734 7.87224 13.3703 7.8535 13.2672 7.83889C13.0297 7.80717 12.7893 7.80388 12.551 7.8291C12.3033 7.85154 12.061 7.91472 11.8339 8.0161C11.7888 8.0372 11.753 8.07404 11.7331 8.1197C11.7133 8.16536 11.7108 8.2167 11.7261 8.26407C11.7414 8.31145 11.7735 8.3516 11.8163 8.37699C11.8592 8.40238 11.9098 8.41126 11.9587 8.40196L11.9673 8.40024C12.3889 8.34013 12.8144 8.31249 13.2402 8.31757C13.3959 8.31275 13.5527 8.31757 13.7091 8.32496C13.6573 8.26659 13.6187 8.19779 13.5959 8.12322C13.573 8.04864 13.5664 7.97003 13.5766 7.89269ZM9.16609 8.0161C8.93899 7.91472 8.69671 7.85154 8.44902 7.8291C8.21075 7.80388 7.97032 7.80717 7.73282 7.83889C7.61904 7.85482 7.506 7.8739 7.39371 7.89613C7.40904 7.96919 7.40975 8.04456 7.3958 8.1179C7.38185 8.19124 7.35351 8.26109 7.31241 8.32341C7.46124 8.31554 7.61031 8.31359 7.75929 8.31757C8.18508 8.31249 8.61063 8.34013 9.03219 8.40024L9.04096 8.40196C9.08985 8.41118 9.14043 8.40225 9.1832 8.37684C9.22598 8.35143 9.25802 8.31129 9.27331 8.26394C9.2886 8.21659 9.28609 8.1653 9.26625 8.11967C9.24642 8.07404 9.21062 8.03721 9.16557 8.0161H9.16609ZM5.37641 6.14954C5.32751 6.14951 5.27962 6.13557 5.23833 6.10934C5.19705 6.08312 5.16408 6.0457 5.14326 6.00144C5.12245 5.95718 5.11465 5.90792 5.12079 5.8594C5.12692 5.81087 5.14673 5.7651 5.1779 5.72741C5.27123 5.61466 7.48601 2.96143 9.39932 2.96143C9.4677 2.96143 9.53327 2.98859 9.58162 3.03694C9.62997 3.08529 9.65713 3.15086 9.65713 3.21924C9.65713 3.28761 9.62997 3.35319 9.58162 3.40154C9.53327 3.44989 9.4677 3.47705 9.39932 3.47705C7.72612 3.47705 5.59676 6.03025 5.57544 6.05518C5.5513 6.08463 5.52093 6.10837 5.48651 6.12468C5.4521 6.141 5.4145 6.14948 5.37641 6.14954ZM15.6236 6.14954C15.5856 6.14959 15.548 6.14123 15.5136 6.12507C15.4792 6.1089 15.4488 6.08533 15.4246 6.05604C15.4033 6.03025 13.2717 3.47791 11.6007 3.47791C11.5323 3.47791 11.4667 3.45075 11.4184 3.4024C11.37 3.35405 11.3429 3.28847 11.3429 3.2201C11.3429 3.15172 11.37 3.08615 11.4184 3.0378C11.4667 2.98945 11.5323 2.96229 11.6007 2.96229C13.514 2.96229 15.7288 5.61552 15.8221 5.72827C15.853 5.76597 15.8726 5.81167 15.8786 5.86005C15.8846 5.90843 15.8767 5.95752 15.856 6.00162C15.8352 6.04572 15.8023 6.08303 15.7612 6.10921C15.7201 6.13539 15.6724 6.14937 15.6236 6.14954Z" fill="#9B506B"/>
<path d="M18.6328 21.5778C18.3694 20.888 17.9538 20.2665 17.4168 19.7597C16.8757 19.2587 15.8871 18.9347 14.9321 18.62C14.4236 18.4682 13.926 18.2816 13.443 18.0615C12.4657 17.5657 12.4118 16.657 12.3733 15.9935C12.3733 15.9774 12.3714 15.9638 12.3703 15.9482C12.8534 15.6576 13.2989 15.3087 13.6969 14.9094C14.255 14.3389 14.6722 13.6458 14.915 12.8855C15.7583 12.8585 16.6095 11.9584 16.7432 11.1482C16.7582 11.0599 16.7675 10.9707 16.771 10.8811C16.924 10.8236 17.0538 10.7171 17.1401 10.5783C17.4475 10.0798 17.2776 9.48051 17.0981 8.84595L17.0871 8.80762C17.4604 7.456 17.3214 4.59497 15.8324 2.53418C14.7728 1.06861 12.2636 -0.450424 10.5 0.299294C8.73622 -0.450596 6.22719 1.06844 5.16758 2.53367C3.67794 4.59514 3.5389 7.45617 3.9129 8.80711L3.9019 8.84544C3.72229 9.48 3.55247 10.0793 3.85979 10.5778C3.94615 10.7165 4.07594 10.8229 4.22897 10.8803C4.23241 10.9694 4.24166 11.0582 4.25665 11.1462C4.39054 11.9577 5.24166 12.858 6.08505 12.885C6.32778 13.6455 6.7449 14.3387 7.30313 14.9094C7.70133 15.3087 8.14707 15.6576 8.63035 15.9482C8.62932 15.9638 8.62829 15.9774 8.62743 15.9935C8.58824 16.657 8.53479 17.5657 7.55768 18.0615C7.0747 18.2816 6.57715 18.4682 6.06855 18.62C5.11293 18.9338 4.12499 19.2587 3.58393 19.7597C3.04695 20.2665 2.63128 20.888 2.36791 21.5778C2.34222 21.641 2.34268 21.7119 2.36917 21.7748C2.39567 21.8377 2.44604 21.8876 2.50924 21.9134C2.57244 21.9392 2.64331 21.9389 2.70629 21.9126C2.76928 21.8862 2.81923 21.836 2.84521 21.7728C3.08076 21.1529 3.45305 20.5941 3.93438 20.138C4.39277 19.7133 5.36868 19.3927 6.22943 19.1098C6.76306 18.9505 7.28484 18.7539 7.79091 18.5215C8.93027 17.9433 9.08152 16.9117 9.13033 16.2056C9.47329 16.36 9.83133 16.4784 10.1987 16.559C10.3974 16.6029 10.6033 16.6029 10.802 16.559C11.1696 16.4783 11.5278 16.3598 11.8711 16.2055C11.9199 16.9115 12.0711 17.9431 13.2105 18.5213C13.7165 18.7537 14.2383 18.9503 14.772 19.1096C15.6327 19.3925 16.6086 19.7131 17.067 20.1378C17.5483 20.594 17.9206 21.1528 18.1562 21.7727C18.1821 21.8358 18.2321 21.8861 18.2951 21.9124C18.3581 21.9388 18.4289 21.9391 18.4921 21.9132C18.5553 21.8874 18.6057 21.8376 18.6322 21.7746C18.6587 21.7117 18.6592 21.6409 18.6335 21.5776L18.6328 21.5778ZM16.2355 11.0628C16.1495 11.5851 15.6102 12.2101 15.0839 12.3448C15.1841 11.9653 15.2604 11.5799 15.3125 11.1908C15.4186 10.9913 15.5531 11.0018 15.5983 11.0064C15.6664 11.013 15.7342 10.9923 15.787 10.9488C15.8397 10.9054 15.8731 10.8428 15.8797 10.7747C15.8839 10.7285 15.8755 10.682 15.8553 10.6402C15.9118 10.6854 15.9686 10.7311 16.021 10.7711C16.0912 10.8247 16.1701 10.866 16.2542 10.893C16.251 10.9499 16.2447 11.0066 16.2355 11.0628ZM15.3826 10.514C15.3888 10.4281 15.3929 10.3409 15.3974 10.2538C15.4978 10.3418 15.5939 10.424 15.6856 10.5006C15.6734 10.4972 15.661 10.4947 15.6483 10.4932C15.5592 10.4849 15.4694 10.492 15.3826 10.514ZM10.6899 0.778826C12.1754 0.136013 14.4997 1.57065 15.4146 2.83583C16.5899 4.46228 16.8865 6.75165 16.693 8.15742C16.5893 8.01415 16.4733 7.88021 16.3463 7.75712C16.2957 7.71392 16.2303 7.69198 16.1638 7.6959C16.0974 7.69982 16.035 7.72929 15.9898 7.77815C15.9446 7.82701 15.92 7.89147 15.9212 7.95803C15.9225 8.02459 15.9494 8.08809 15.9964 8.13525C16.2293 8.36257 16.4263 8.62394 16.5808 8.9104C16.7212 9.23164 16.8901 10.0018 16.7011 10.3074C16.68 10.3403 16.6512 10.3674 16.6172 10.3865C16.5832 10.4056 16.545 10.416 16.506 10.4169C16.4444 10.4167 16.3843 10.3974 16.3341 10.3615C16.1451 10.2167 15.8163 9.9499 15.3309 9.50217C14.8546 9.06458 14.3155 8.53331 13.7282 7.92315C12.8652 7.0294 11.8908 5.95793 10.8321 4.74072C11.3217 4.02279 10.9684 3.27411 10.6784 2.66309C10.5376 2.41457 10.4406 2.14362 10.3919 1.86215C10.3756 1.51961 10.5751 1.021 10.6899 0.778826ZM4.76436 11.0612C4.75508 11.0055 4.74877 10.9494 4.74546 10.893C4.82921 10.8664 4.9078 10.8257 4.97783 10.7727C5.0306 10.7323 5.08766 10.6867 5.14438 10.641C5.12452 10.6821 5.11601 10.7278 5.11974 10.7734C5.12347 10.8189 5.1393 10.8626 5.16559 10.9C5.19189 10.9373 5.22769 10.9669 5.26928 10.9858C5.31088 11.0047 5.35677 11.0121 5.40219 11.0073C5.44705 11.0025 5.5818 10.9922 5.68785 11.1917C5.74025 11.5806 5.81671 11.9659 5.91679 12.3453C5.39016 12.209 4.85065 11.5843 4.76436 11.0612ZM5.31436 10.5006C5.40603 10.4243 5.50182 10.3422 5.60174 10.2545C5.60621 10.3416 5.61119 10.4282 5.61738 10.514C5.53064 10.4919 5.44077 10.4849 5.35166 10.4932C5.33903 10.495 5.32656 10.4977 5.31436 10.5014V10.5006ZM5.6674 9.50251C5.18254 9.95025 4.85443 10.217 4.66382 10.3619C4.61607 10.398 4.55767 10.4173 4.49779 10.4167C4.45803 10.4164 4.41898 10.4062 4.38413 10.387C4.34927 10.3679 4.31971 10.3404 4.29807 10.3071C4.10901 10.0015 4.2783 9.23095 4.41838 8.90989C4.57271 8.6234 4.76976 8.36208 5.00276 8.1349C5.04975 8.08775 5.07668 8.02424 5.07791 7.95768C5.07914 7.89112 5.05457 7.82667 5.00936 7.77781C4.96414 7.72895 4.90177 7.69947 4.83532 7.69555C4.76886 7.69163 4.70346 7.71357 4.65282 7.75678C4.52583 7.87986 4.40983 8.01381 4.30615 8.15707C4.11261 6.75131 4.40927 4.46176 5.58455 2.83548C6.34458 1.78618 8.07468 0.618638 9.49024 0.618638C9.71479 0.61656 9.93828 0.649853 10.1525 0.717294C9.9812 1.08436 9.88758 1.48284 9.87747 1.88776C9.92525 2.23798 10.0392 2.57593 10.2131 2.88361C10.5509 3.595 10.7398 4.09722 10.3077 4.57778L10.3044 4.58122C9.19238 5.86564 8.17127 6.98987 7.2703 7.92333C6.68335 8.53314 6.14418 9.0644 5.6674 9.50251ZM10.6891 16.0558C10.564 16.0834 10.4344 16.0834 10.3094 16.0558C9.07344 15.7828 8.30602 15.1658 7.66097 14.5397C7.13254 13.9893 6.74357 13.3205 6.5266 12.589C6.51707 12.5605 6.50779 12.5318 6.49876 12.5031C6.35519 12.0353 6.25203 11.5561 6.19041 11.0707C6.13677 10.6495 6.10727 10.2255 6.10207 9.80089C6.5651 9.3712 7.08176 8.86262 7.64121 8.28065C8.49543 7.39653 9.4569 6.34053 10.5 5.1429C11.5431 6.34036 12.5046 7.39636 13.3581 8.28083C13.9186 8.86331 14.4347 9.3724 14.8976 9.8014C14.8924 10.2259 14.8629 10.6497 14.8093 11.0709C14.7485 11.5474 14.6479 12.018 14.5085 12.4777C14.5047 12.4897 14.4741 12.5873 14.4705 12.5966C14.2533 13.3249 13.8652 13.9908 13.3385 14.5388C12.6935 15.1656 11.9266 15.7827 10.6891 16.0558Z" fill="#9B506B"/>
</svg>
