<svg width="22" height="22" viewBox="0 0 22 22" fill="none" xmlns="http://www.w3.org/2000/svg">
<g clip-path="url(#clip0_204_5224)">
<path d="M6.75469 16.5201C6.20221 15.6487 5.90686 14.6391 5.9026 13.6074C5.89835 12.5756 6.18535 11.5636 6.73062 10.6877L8.6582 7.58915C9.10233 6.87591 8.58782 5.95488 7.74473 5.95488H5.95856V4.67041H7.74473C9.59883 4.67041 10.7311 6.6951 9.75442 8.26565L7.82684 11.3642C6.97451 12.7348 6.9807 14.4699 7.84532 15.8342L6.75469 16.5201Z" fill="#FF2B26"/>
<path d="M14.1215 15.8342C14.9856 14.4708 14.9929 12.7357 14.14 11.3642L12.2124 8.26565C11.2354 6.69463 12.3685 4.67041 14.2221 4.67041H16.0847V5.95488H14.2221C13.3792 5.95488 12.8644 6.87582 13.3086 7.58915L15.2362 10.6877C15.7815 11.5636 16.0685 12.5756 16.0642 13.6074C16.0599 14.6391 15.7646 15.6487 15.2121 16.5201L14.1215 15.8342Z" fill="#E41414"/>
<path d="M17.8856 0C15.0561 0 14.1034 3.10449 15.547 4.94523C15.6346 5.05686 15.6795 5.18757 15.6819 5.31983L18.4925 6.6043L22 5.31983C22 2.5697 20.5886 0 17.8856 0Z" fill="#FF8381"/>
<path d="M15.5683 5.69228C14.2143 7.68384 15.3121 10.4684 17.8856 10.4684C20.5896 10.4684 22 8.06935 22 5.31982H15.6819C15.6842 5.44774 15.6466 5.57716 15.5683 5.69228Z" fill="#FF5955"/>
<path d="M6.45296 4.94523C7.8968 3.10428 6.94504 0 4.11434 0C1.41036 0 0 2.57043 0 5.31983L3.28857 6.47135L6.31808 5.31983C6.32045 5.18757 6.36543 5.05686 6.45296 4.94523Z" fill="#FF8381"/>
<path d="M6.31808 5.31982H0C0 8.07013 1.41152 10.4684 4.11434 10.4684C6.67395 10.4684 7.79414 7.6963 6.43169 5.69228C6.3534 5.57716 6.3158 5.44774 6.31808 5.31982ZM19.6626 15.3386L19.0248 15.0984L19.4941 14.6055C19.81 14.2738 19.6866 13.7257 19.2544 13.5629L17.7094 12.9807C17.3763 12.8552 17.0042 13.0224 16.8782 13.3541C16.7521 13.6858 16.92 14.0565 17.2531 14.182L17.891 14.4224L17.4217 14.9153C17.1056 15.2472 17.2297 15.7953 17.6614 15.958L19.2064 16.54C19.5403 16.6657 19.9118 16.4976 20.0377 16.1665C20.1636 15.8348 19.9957 15.4641 19.6626 15.3386Z" fill="#FF5955"/>
<path d="M4.30037 12.9807L2.75538 13.5629C2.32604 13.7247 2.19778 14.2717 2.5157 14.6055L2.98501 15.0984L2.34718 15.3386C2.01409 15.4641 1.84621 15.8348 1.97215 16.1665C2.09818 16.4983 2.47024 16.6655 2.80342 16.5401L4.34841 15.958C4.77779 15.7962 4.90601 15.2492 4.58813 14.9153L4.11878 14.4224L4.75665 14.1821C5.08975 14.0566 5.25763 13.6859 5.1316 13.3541C5.00557 13.0224 4.63338 12.8552 4.30037 12.9807Z" fill="#FF8381"/>
<path d="M9.67226 14.293C7.90637 14.293 6.46967 15.724 6.46967 17.4861C6.48324 20.055 9.34715 20.5748 10.5415 21.8042C10.6017 21.8662 10.6737 21.9155 10.7533 21.9491C10.8329 21.9827 10.9185 21.9999 11.0049 21.9997L11.4347 21.2032V14.8885L11.0049 14.293H9.67226V14.293Z" fill="#F9CBBC"/>
<path d="M12.3375 14.2935H11.0049V22.0002C11.1732 22.0002 11.3416 21.9351 11.4683 21.8047C12.6664 20.5716 15.5401 20.057 15.5401 17.4832C15.5401 15.7244 14.1034 14.2935 12.3375 14.2935Z" fill="#FBB9A9"/>
</g>
<defs>
<clipPath id="clip0_204_5224">
<rect width="22" height="22" fill="white"/>
</clipPath>
</defs>
</svg>
