<svg width="49" height="45" viewBox="0 0 49 45" fill="none" xmlns="http://www.w3.org/2000/svg">
<path d="M22.4578 44.9167C10.0754 44.9167 0 34.8417 0 22.4593C0 10.077 10.0754 0.00158691 22.4578 0.00158691C26.7635 0.00158691 30.9527 1.22846 34.5724 3.55177C35.2831 4.00941 35.4913 4.95665 35.0337 5.66914C34.5746 6.38172 33.6292 6.58767 32.9167 6.13041C29.7931 4.12339 26.1755 3.06399 22.4578 3.06399C11.7637 3.06399 3.0624 11.7652 3.0624 22.4593C3.0624 33.1531 11.7637 41.8543 22.4578 41.8543C33.1515 41.8543 41.8527 33.1531 41.8527 22.4593C41.8527 21.8201 41.8221 21.1872 41.7631 20.5648C41.6815 19.7214 42.298 18.9741 43.139 18.8926C43.9843 18.8149 44.7294 19.4276 44.8112 20.2688C44.8808 20.9969 44.9154 21.7279 44.9151 22.4593C44.9151 34.8417 34.8401 44.9167 22.4578 44.9167Z" fill="#10847E"/>
<path d="M25.0096 27.5633C24.6178 27.5633 24.2257 27.4141 23.9277 27.1142L14.7405 17.927C14.1423 17.3286 14.1423 16.3589 14.7405 15.7608C15.3386 15.1626 16.3083 15.1626 16.9064 15.7608L25.0118 23.8661L46.3851 2.49242C46.9836 1.89429 47.9533 1.89429 48.5514 2.49242C49.1495 3.09054 49.1495 4.06027 48.5514 4.6584L26.0937 27.1162C25.8058 27.4029 25.4159 27.5637 25.0096 27.5633Z" fill="#10847E"/>
</svg>
