<svg width="22" height="22" viewBox="0 0 22 22" fill="none" xmlns="http://www.w3.org/2000/svg">
<path d="M12.7173 0.947021L16.4513 2.38102L15.7343 4.24802L14.8003 3.88902L14.0543 5.83402C14.8333 6.29602 15.4983 6.92802 15.9993 7.68002L17.9023 6.83302L17.4953 5.91902L19.3223 5.10602L20.9493 8.76002L19.1223 9.57302L18.7153 8.66002L16.8133 9.50702C16.9353 9.98402 17.0003 10.485 17.0003 11C17.0003 11.406 16.9603 11.803 16.8833 12.187L18.8273 12.933L19.1853 12L21.0533 12.717L19.6193 16.451L17.7523 15.734L18.1103 14.801L16.1663 14.054C15.7043 14.833 15.0723 15.498 14.3203 15.999L15.1673 17.902L16.0813 17.495L16.8943 19.322L13.2403 20.949L12.4273 19.122L13.3403 18.715L12.4933 16.813C12.0163 16.935 11.5153 17 11.0003 17C10.5933 17 10.1963 16.96 9.81227 16.882L9.06627 18.827L10.0003 19.185L9.28327 21.053L5.54927 19.619L6.26627 17.752L7.19827 18.11L7.94627 16.166C7.16727 15.704 6.50227 15.072 6.00027 14.32L4.09727 15.167L4.50427 16.081L2.67727 16.894L1.05027 13.24L2.87727 12.427L3.28327 13.341L5.18627 12.493C5.06527 12.016 5.00027 11.515 5.00027 11C5.00027 10.594 5.04027 10.197 5.11727 9.81302L3.17227 9.06702L2.81527 10L0.947266 9.28302L2.38127 5.55002L4.24827 6.26702L3.88927 7.20002L5.83427 7.94702C6.29627 7.16702 6.92827 6.50202 7.68027 6.00002L6.83327 4.09702L5.91927 4.50402L5.10627 2.67702L8.76027 1.05102L9.57327 2.87802L8.66027 3.28502L9.50727 5.18702C9.98427 5.06502 10.4853 5.00002 11.0003 5.00002C11.4063 5.00002 11.8033 5.04002 12.1873 5.11702L12.9323 3.17202L12.0003 2.81502L12.7173 0.947021ZM11.0003 7.00002C8.79027 7.00002 7.00027 8.79002 7.00027 11C7.00027 13.21 8.79027 15 11.0003 15C13.2103 15 15.0003 13.21 15.0003 11C15.0003 8.79002 13.2103 7.00002 11.0003 7.00002ZM10.5003 11.866C10.9783 12.142 11.1423 12.754 10.8663 13.232C10.5903 13.71 9.97826 13.874 9.50027 13.598C9.02227 13.322 8.85827 12.71 9.13427 12.232C9.41027 11.754 10.0223 11.59 10.5003 11.866ZM13.0003 10C13.5523 10 14.0003 10.448 14.0003 11C14.0003 11.552 13.5523 12 13.0003 12C12.4483 12 12.0003 11.552 12.0003 11C12.0003 10.448 12.4483 10 13.0003 10ZM10.8663 8.76802C11.1423 9.24602 10.9783 9.85802 10.5003 10.134C10.0223 10.41 9.41027 10.246 9.13427 9.76802C8.85827 9.29002 9.02227 8.67802 9.50027 8.40202C9.97826 8.12602 10.5903 8.29002 10.8663 8.76802Z" fill="#7C7C7C"/>
</svg>
