<svg width="20" height="20" viewBox="0 0 20 20" fill="none" xmlns="http://www.w3.org/2000/svg">
<path d="M9.99967 19.1668C4.93692 19.1668 0.833008 15.0629 0.833008 10.0002C0.833008 4.93741 4.93692 0.833496 9.99967 0.833496C15.0624 0.833496 19.1663 4.93741 19.1663 10.0002C19.1663 15.0629 15.0624 19.1668 9.99967 19.1668ZM9.99967 17.3335C11.9446 17.3335 13.8099 16.5609 15.1851 15.1856C16.5604 13.8103 17.333 11.9451 17.333 10.0002C17.333 8.05524 16.5604 6.18998 15.1851 4.81471C13.8099 3.43945 11.9446 2.66683 9.99967 2.66683C8.05475 2.66683 6.18949 3.43945 4.81422 4.81471C3.43896 6.18998 2.66634 8.05524 2.66634 10.0002C2.66634 11.9451 3.43896 13.8103 4.81422 15.1856C6.18949 16.5609 8.05475 17.3335 9.99967 17.3335ZM10.9163 10.0002H14.583V11.8335H9.08301V5.41683H10.9163V10.0002Z" fill="#656565"/>
</svg>
