<svg width="16" height="16" viewBox="0 0 16 16" fill="none" xmlns="http://www.w3.org/2000/svg">
<path d="M8.00006 0.5C9.39245 0.5 10.7278 1.05312 11.7124 2.03769C12.6969 3.02226 13.2501 4.35761 13.2501 5.75H14.0556C14.2445 5.75001 14.4264 5.8213 14.565 5.94964C14.7037 6.07798 14.7888 6.2539 14.8033 6.44225L15.4378 14.6923C15.4531 14.8906 15.389 15.0868 15.2596 15.2379C15.1302 15.389 14.9461 15.4824 14.7478 15.4977L14.6901 15.5H1.31006C1.11115 15.5 0.920381 15.421 0.779729 15.2803C0.639076 15.1397 0.560059 14.9489 0.560059 14.75L0.562309 14.6923L1.19681 6.44225C1.21135 6.2539 1.29644 6.07798 1.43507 5.94964C1.5737 5.8213 1.75565 5.75001 1.94456 5.75H2.75006C2.75006 4.35761 3.30318 3.02226 4.28775 2.03769C5.27231 1.05312 6.60767 0.5 8.00006 0.5ZM13.3603 7.25H2.63906L2.11931 14H13.8801L13.3603 7.25ZM9.50006 8.75V10.25H6.50006V8.75H9.50006ZM8.00006 2C7.03371 2.00006 6.10469 2.37316 5.40673 3.04149C4.70876 3.70983 4.29575 4.62181 4.25381 5.58725L4.25006 5.75H11.7501C11.75 4.78365 11.3769 3.85463 10.7086 3.15667C10.0402 2.4587 9.12825 2.04569 8.16281 2.00375L8.00006 2Z" fill="#656565"/>
</svg>
